<svg xmlns="http://www.w3.org/2000/svg" viewBox="0 0 68.91 59.32"><path d="M34.42,59.31c-9.37,0-18.75,0-28.12,0A6.08,6.08,0,0,1,0,52.76a7.38,7.38,0,0,1,1-3Q15,26.46,29,3.23a6.13,6.13,0,0,1,10.82,0q14.07,23.22,28,46.51c2.68,4.48-.26,9.52-5.49,9.54C53.08,59.33,43.75,59.31,34.42,59.31Zm0-4.5c9.1,0,18.21,0,27.31,0a3,3,0,0,0,2.29-.86,2.94,2.94,0,0,0-.38-2.41Q50.07,28.78,36.36,6.13C35.05,4,33.82,4,32.51,6.14Q18.88,28.76,5.23,51.38c-.49.81-1.21,1.74-.44,2.55a3.5,3.5,0,0,0,2.35.84C16.24,54.83,25.34,54.81,34.45,54.81Z"/><path d="M36.87,29.36c0,2.83,0,5.65,0,8.48,0,1.32-1,2.06-2.45,2.06s-2.35-.67-2.4-2.08c-.2-5.38-.4-10.76-.55-16.14-.08-2.56,2.12-3.94,4.49-2.86a2.43,2.43,0,0,1,1.49,2.47c0,2.69,0,5.38,0,8.07Z"/><path d="M34.52,49.16A3.17,3.17,0,1,1,37.66,46,3.2,3.2,0,0,1,34.52,49.16Z"/></svg>