<svg xmlns="http://www.w3.org/2000/svg" viewBox="0 0 88.48 82.54"><defs><style>.a{fill:#121921;}</style></defs><path class="a" d="M24.06,56.55c.73,6.61,1.4,13,2.17,19.46.62,5.15.71,6.7-5.71,6.52-7-.21-11.58-4-12.48-11C7.42,66.8,7,62,6.46,57.27a2.72,2.72,0,0,0-1.67-2.49A8.15,8.15,0,0,1,.06,47.11q-.12-10.2,0-20.4c.06-5.25,3.78-8.89,9.18-9,4-.1,8,0,12-.05a13.42,13.42,0,0,0,3.62-.52c10.82-3.29,21.62-6.66,32.44-10,1.12-.34,1.65-.73,1.76-2A5.64,5.64,0,0,1,64.75,0C66.5,0,68.25,0,70,0c4.41,0,6.64,2.24,6.66,6.71,0,4.92.07,9.84,0,14.76,0,1.54.4,2.09,2,2.29A11,11,0,0,1,88.13,33a41.3,41.3,0,0,1,0,10.42,11.07,11.07,0,0,1-9.9,9.48c-1.44.17-1.63.78-1.62,2,0,5,0,10,0,15,0,4.56-2.25,6.78-6.8,6.8-1.55,0-3.1,0-4.66,0-3.53,0-5.74-2.12-6.22-5.65a2.18,2.18,0,0,0-1-1.51Q41.31,63,24.63,56.62A2.88,2.88,0,0,0,24.06,56.55ZM59,13a2.46,2.46,0,0,0-.59,0c-10.13,3.1-20.25,6.24-30.4,9.29-1.38.41-1.38,1.24-1.38,2.32,0,8.16.06,16.31,0,24.46a2.39,2.39,0,0,0,1.9,2.62c9.5,3.56,19,7.2,28.44,10.81.64.24,1.3.4,2.06.64ZM20.57,23.58c-3.71,0-7.2,0-10.68,0-3,0-3.94,1-3.95,4,0,5.5,0,11,0,16.49,0,5.83.24,6.07,6.16,6.07h8.47ZM65.07,6V70.58h5.59V6ZM20.32,76.46c-.76-6.86-1.5-13.57-2.26-20.36H12.19c.62,5.41,1.12,10.73,1.89,16C14.48,74.9,17.06,76.59,20.32,76.46ZM76.83,46.89C79.54,47,82,45.3,82.3,42.67a39,39,0,0,0,0-8.84,4.83,4.83,0,0,0-5.45-4Z"/></svg>