<svg xmlns="http://www.w3.org/2000/svg" viewBox="0 0 44.99 45"><path d="M.16,10.26a45.24,45.24,0,0,1,0-5.94A5,5,0,0,1,5.26,0Q10.33,0,15.38,0a5.32,5.32,0,0,1,5.27,5.32q.11,5,0,10a5.32,5.32,0,0,1-5.31,5.3c-3.34.07-6.67.07-10,0A5.36,5.36,0,0,1,0,15.16c0-1.63,0-3.26,0-4.9Zm3.66.07c0,1.63,0,3.26,0,4.9a1.45,1.45,0,0,0,1.64,1.63q4.84,0,9.69,0a1.49,1.49,0,0,0,1.69-1.71c0-3.2,0-6.39,0-9.59,0-1.18-.51-1.72-1.65-1.72-3.24,0-6.47,0-9.7,0-1.17,0-1.66.51-1.67,1.69C3.81,7.13,3.82,8.73,3.82,10.33Z"/><path d="M10.32,44.86a45.24,45.24,0,0,1-5.94,0A5,5,0,0,1,0,39.59c0-3.26,0-6.53,0-9.79a5.34,5.34,0,0,1,5.36-5.45q4.95-.09,9.9,0a5.35,5.35,0,0,1,5.37,5.35q.09,4.95,0,9.9A5.37,5.37,0,0,1,15.12,45h-4.8Zm-.05-3.68c1.67,0,3.34,0,5,0a1.39,1.39,0,0,0,1.57-1.48q0-5,0-10a1.4,1.4,0,0,0-1.54-1.51q-5,0-9.91,0a1.41,1.41,0,0,0-1.56,1.59c0,3.27,0,6.54,0,9.81,0,1.1.52,1.6,1.64,1.61C7.07,41.19,8.67,41.18,10.27,41.18Z"/><path d="M34.66,0c1.63,0,3.26,0,4.89,0A5.32,5.32,0,0,1,45,5.41c0,3.26,0,6.53,0,9.79a5.34,5.34,0,0,1-5.35,5.46q-4.95.09-9.9,0a5.37,5.37,0,0,1-5.39-5.45c0-3.23,0-6.46,0-9.68A5.4,5.4,0,0,1,29.87,0Zm6.51,10.39c0-1.67,0-3.34,0-5a1.38,1.38,0,0,0-1.48-1.56q-5,0-10,0a1.39,1.39,0,0,0-1.52,1.53q0,5,0,9.91a1.42,1.42,0,0,0,1.59,1.57q4.9,0,9.81,0c1.09,0,1.6-.54,1.61-1.64C41.18,13.61,41.17,12,41.17,10.41Z"/><path d="M45,34.66c0,1.6,0,3.2,0,4.79A5.35,5.35,0,0,1,39.49,45c-3.23,0-6.46,0-9.69,0a5.34,5.34,0,0,1-5.46-5.35q-.09-5,0-9.9a5.38,5.38,0,0,1,5.44-5.39c3.27,0,6.53,0,9.8,0A5.38,5.38,0,0,1,45,29.87C45,31.47,45,33.07,45,34.66Zm-3.81.05V30c0-1.38-.48-1.87-1.83-1.87H30c-1.29,0-1.81.51-1.82,1.79q0,4.74,0,9.48c0,1.24.51,1.75,1.73,1.75h9.59c1.19,0,1.69-.49,1.7-1.66C41.18,37.91,41.17,36.31,41.17,34.71Z"/></svg>