<svg xmlns="http://www.w3.org/2000/svg" viewBox="0 0 12.66 16.81"><defs><style>.a{fill:#535453;}</style></defs><path class="a" d="M4.16,8.42c.12-1.12.16-2.14.35-3.14A8.4,8.4,0,0,1,7.81.13c.31-.25.62-.13.63.24A5.79,5.79,0,0,0,9.67,3.63a30.75,30.75,0,0,1,2,3,7.47,7.47,0,0,1,.74,5.67,6.37,6.37,0,0,1-5.15,4.49,6.26,6.26,0,0,1-7-4.82A7.06,7.06,0,0,1,.78,7a5,5,0,0,1,1-1.23c.33-.32.61-.19.71.27A3.53,3.53,0,0,0,3.32,7.8,6.09,6.09,0,0,0,4.16,8.42ZM8.6,15.65a5.56,5.56,0,0,0,3-3.21A6.65,6.65,0,0,0,11,6.87c-.54-1-1.24-1.87-1.88-2.8A7.48,7.48,0,0,1,7.9,1.59q-.06-.24-.12-.51A7.55,7.55,0,0,0,5.24,5.22C5.06,6.33,5,7.46,5,8.58c0,.44-.16.56-.6.52a2.46,2.46,0,0,1-1.9-1.3c-.22-.36-.38-.76-.6-1.22A6.52,6.52,0,0,0,1,12.2c.43,1.55,2,3.2,3,3.37a3.25,3.25,0,0,1-.47-2.33,2.38,2.38,0,0,1,.69-1.52c.32-.29.58-.2.7.21a6.19,6.19,0,0,0,.23.6.54.54,0,0,0,.09-.32A4,4,0,0,1,6.76,9.28a.53.53,0,0,1,.43-.11.45.45,0,0,1,.21.35,2.72,2.72,0,0,0,.5,1.27c.18.27.36.52.53.79A3.65,3.65,0,0,1,8.6,15.65ZM4.36,12.76A10.17,10.17,0,0,0,4.25,14,2.17,2.17,0,0,0,6,16.1a2.09,2.09,0,0,0,2.3-1.54,2.76,2.76,0,0,0-.26-2.16c-.4-.73-.87-1.42-1.32-2.15l-.24.34A4.32,4.32,0,0,0,6,13c0,.42-.22.61-.6.45A7.27,7.27,0,0,1,4.36,12.76Z"/></svg>