<svg xmlns="http://www.w3.org/2000/svg" viewBox="0 0 15.53 15.52"><defs><style>.a{fill:#535453;}</style></defs><path class="a" d="M7.45,3.42a3.5,3.5,0,0,1,2.1-.12c.21.06.42.13.36.39S9.63,4,9.4,3.9A2.7,2.7,0,0,0,6,6.25c0,.33-.2.41-.54.3a2.2,2.2,0,1,0-.74,4.26c2.66,0,5.33,0,8,0a2.18,2.18,0,0,0,2.21-2,2.21,2.21,0,0,0-3-2.29c-.37.13-.5,0-.55-.34a4.52,4.52,0,0,1-.12-.62.51.51,0,0,1,.18-.38c.15-.09.31,0,.37.19s.1.31.13.4a8.66,8.66,0,0,1,1.46.1,2.8,2.8,0,0,1,2.11,3,2.77,2.77,0,0,1-2.8,2.5,1.67,1.67,0,0,0-1.48.66,6.79,6.79,0,0,1-.6.6c-.14.14-.29.17-.43,0a.29.29,0,0,1,0-.45,5.9,5.9,0,0,0,.73-.82h-.82a3.93,3.93,0,0,0-1.38.06c-.4.16-.68.61-1,.93l-.25.26a.28.28,0,0,1-.43,0,.29.29,0,0,1,0-.45,6.49,6.49,0,0,0,.72-.82H7.13a4.72,4.72,0,0,0-1.56.06c-.45.18-.76.68-1.12,1a1.14,1.14,0,0,1-.16.15.3.3,0,1,1-.41-.43l.81-.8A2.83,2.83,0,0,1,2.1,9.68a2.78,2.78,0,0,1,.6-3,2.88,2.88,0,0,1-.25-2.38,2.79,2.79,0,0,1,1.2-1.52A2.88,2.88,0,0,1,7.45,3.42ZM5.34,5.88A11.75,11.75,0,0,1,6,4.65a10.12,10.12,0,0,1,.89-1,2.23,2.23,0,0,0-3.07-.3,2.18,2.18,0,0,0-.55,2.84A2.85,2.85,0,0,1,5.34,5.88Z"/><path class="a" d="M10.34,15.52c-.26,0-.44-.27-.29-.44.46-.5.95-1,1.45-1.46a.42.42,0,0,1,.37.05c.06.06.09.29,0,.34-.47.5-1,1-1.45,1.46A.34.34,0,0,1,10.34,15.52Z"/><path class="a" d="M3.62,15.23a1.45,1.45,0,0,1,.2-.29c.4-.42.81-.82,1.22-1.23.15-.16.32-.22.5-.05s.08.33-.06.47c-.43.42-.84.85-1.28,1.26a.52.52,0,0,1-.37.09C3.76,15.46,3.7,15.33,3.62,15.23Z"/><path class="a" d="M8.51,13.53c.09.07.21.11.23.18a.4.4,0,0,1,0,.33c-.45.48-.91,1-1.39,1.4a.47.47,0,0,1-.4,0c-.16-.13-.11-.31,0-.45.43-.43.85-.86,1.29-1.29A1.63,1.63,0,0,1,8.51,13.53Z"/><path class="a" d="M2.72,2.42c-.05.08-.1.19-.19.23a.32.32,0,0,1-.3,0,6.46,6.46,0,0,1-.74-.74.4.4,0,0,1,0-.37.36.36,0,0,1,.34-.07c.29.26.56.55.83.83A.42.42,0,0,1,2.72,2.42Z"/><path class="a" d="M5.45.77a1.92,1.92,0,0,1,0,.48c0,.11-.17.28-.26.28a.37.37,0,0,1-.31-.24,4.61,4.61,0,0,1,0-1A.39.39,0,0,1,5.18,0c.09,0,.22.17.26.29A1.91,1.91,0,0,1,5.45.77Z"/><path class="a" d="M.78,5.45a1.92,1.92,0,0,1-.48,0C.18,5.4,0,5.28,0,5.19a.4.4,0,0,1,.23-.32,5.57,5.57,0,0,1,1.08,0c.09,0,.22.21.22.33s-.16.21-.27.24a1.92,1.92,0,0,1-.48,0Z"/><path class="a" d="M7.6,2.43a.83.83,0,0,1,.07-.21,10.46,10.46,0,0,1,.75-.74.42.42,0,0,1,.39,0,.37.37,0,0,1,0,.37,6.55,6.55,0,0,1-.75.74.31.31,0,0,1-.3,0C7.7,2.61,7.65,2.5,7.6,2.43Z"/><path class="a" d="M11.14,4.42c-.12.08-.26.23-.36.21a.45.45,0,0,1-.27-.31c0-.07.18-.25.28-.25s.23.13.35.21Z"/></svg>