<svg xmlns="http://www.w3.org/2000/svg" viewBox="0 0 60.27 68.55"><path d="M18.65,45.19c-2.34-3.66-4.58-7.24-6.9-10.76A22.09,22.09,0,1,1,52.18,22.86a22.59,22.59,0,0,1-3.74,11.67c-2.29,3.49-4.51,7-6.78,10.58a77.06,77.06,0,0,1,7.82,2A32.86,32.86,0,0,1,57,50.84c4.43,3.15,4.34,7.93,0,11.26-3.58,2.78-7.81,4.06-12.15,4.91C33.14,69.3,21.47,69.23,10,65.51a24.36,24.36,0,0,1-6.94-3.59c-4.16-3.12-4-7.81.05-11.05,3.07-2.44,6.72-3.6,10.44-4.56C15.19,45.88,16.85,45.58,18.65,45.19ZM30.11,55.63c.27-.35.41-.52.53-.71,5-7.77,10-15.53,14.88-23.32A17.42,17.42,0,0,0,48,19.8,18.16,18.16,0,0,0,34.6,4.6a18,18,0,0,0-19.13,7,18.23,18.23,0,0,0-.58,20.26L29.22,54.29C29.47,54.69,29.75,55.08,30.11,55.63Zm0,8.87c6.81-.12,13.64-.66,20.11-3.26a21.29,21.29,0,0,0,5.07-3.1,2,2,0,0,0,0-3.35,16.15,16.15,0,0,0-3.7-2.55,38.58,38.58,0,0,0-11.42-3.12,1.33,1.33,0,0,0-1.6.73c-2.1,3.36-4.24,6.69-6.38,10C30.87,62,29.38,62,28,59.85c-2.13-3.33-4.24-6.69-6.42-10a1.7,1.7,0,0,0-1.3-.71c-2.75.5-5.51,1-8.21,1.75a15.91,15.91,0,0,0-6.83,3.5c-1.56,1.46-1.62,2.86.07,4.16A19.76,19.76,0,0,0,10,61.25C16.45,63.8,23.23,64.37,30.15,64.5Z"/><path d="M40.15,22.36a10,10,0,1,1-9.87-10.17A10,10,0,0,1,40.15,22.36ZM30.08,16.23a6,6,0,1,0,6,5.86A5.94,5.94,0,0,0,30.08,16.23Z"/></svg>