<svg xmlns="http://www.w3.org/2000/svg" viewBox="0 0 17.01 14.73"><defs><style>.a{fill:#535453;}</style></defs><path class="a" d="M5.31,2.29V1.07A1,1,0,0,1,6.35,0h4.31a1,1,0,0,1,1,1.05c0,.4,0,.8,0,1.22l.39,0c.9,0,1.81,0,2.72,0A2.17,2.17,0,0,1,17,4.52c0,2.66,0,5.31,0,8a2.27,2.27,0,0,1-2.55,2.24H2.64a3.79,3.79,0,0,1-.89-.09A2.16,2.16,0,0,1,0,12.5c0-2.67,0-5.33,0-8A2.14,2.14,0,0,1,2.15,2.32c.91,0,1.82,0,2.72,0ZM8.51,14h6.21a1.46,1.46,0,0,0,1.53-1.19,3.59,3.59,0,0,0,.05-.73c0-2.39,0-4.78,0-7.17a4,4,0,0,0,0-.49,1.43,1.43,0,0,0-1.21-1.38A4,4,0,0,0,14.38,3H2.3A1.52,1.52,0,0,0,.76,4.2,3.89,3.89,0,0,0,.71,5v7.1c0,.19,0,.38,0,.57a1.41,1.41,0,0,0,1.09,1.3,2.89,2.89,0,0,0,.72.08ZM11,2.27V1.12A.37.37,0,0,0,10.6.69H6.52c-.44,0-.52.1-.53.54C6,1.46,6,1.7,6,2s.1.34.36.34c1.44,0,2.88,0,4.31,0Z"/><path class="a" d="M10.05,6.86c.44,0,.85,0,1.26,0s.7.18.7.69,0,1.15,0,1.73-.19.68-.68.68H10c0,.46,0,.89,0,1.32s-.17.62-.62.62H7.59c-.46,0-.62-.17-.62-.65S7,10.42,7,10H5.65C5.2,10,5,9.77,5,9.31,5,8.7,5,8.1,5,7.49a.57.57,0,0,1,.64-.64H7C7,6.4,7,6,7,5.56s.17-.65.66-.65H9.45c.41,0,.59.19.6.59ZM5.73,9.26H7.15c.41,0,.5.1.5.51v1.42H9.36V9.85c0-.52.08-.59.6-.59h1.32V7.56h-1c-.92,0-.92,0-.92-.9v-1H7.65V7c0,.5-.08.57-.58.58H5.73Z"/></svg>