<svg xmlns="http://www.w3.org/2000/svg" viewBox="0 0 61.73 86.99"><path d="M0,43.5C0,32.23,0,21,0,9.69,0,4.69,2.86,1.11,7.5.15a10.55,10.55,0,0,1,2-.14C20,0,30.37,0,40.78.06a4.66,4.66,0,0,1,2.94,1.23Q52.17,9.52,60.42,18a4.78,4.78,0,0,1,1.25,2.95q.11,28.2,0,56.41C61.7,83.2,57.83,87,52,87Q30.85,87,9.7,87C3.88,87,0,83.17,0,77.31,0,66,0,54.77,0,43.5ZM40,3.67H10c-4.3,0-6.3,2-6.3,6.35q0,33.45,0,66.91c0,4.34,2,6.38,6.28,6.38q20.9,0,41.78,0c4.31,0,6.32-2,6.32-6.34V21.75H49.71c-6,0-9.71-3.69-9.74-9.72C40,9.32,40,6.62,40,3.67ZM54.54,18l-11-11v4.75a12.37,12.37,0,0,0,.05,1.36A5.3,5.3,0,0,0,48.33,18C50.52,18.13,52.73,18,54.54,18Z"/><path d="M34.63,24.5a20.93,20.93,0,0,1,15.45,9.38,19.15,19.15,0,0,1,3.37,12.7C52.37,57.73,44.91,65.17,33.8,66.1a19.58,19.58,0,0,1-14.71-5,21,21,0,0,1-7.21-13.82l-1.25-.11c-1.9-.12-2.51-.79-2.44-2.68A24.6,24.6,0,0,1,31.84,20.83C34,20.74,34.39,21.27,34.63,24.5Zm-19,22.67C16.31,56.1,24.58,63,33.8,62.51a17.29,17.29,0,0,0,16.09-18c-.29-8.24-7.83-16.21-15.35-16.07v1.83q0,7,0,13.92c0,2.46-.55,3-3,3H15.65ZM30.78,24.61c-10.28,1.11-18.65,9.57-18.7,18.81h18.7Z"/></svg>