<svg xmlns="http://www.w3.org/2000/svg" viewBox="0 0 67.48 85.33"><defs><style>.a{fill:#0e0f0f;}</style></defs><path class="a" d="M0,44.94V13.18C0,7.7,3,4.65,8.5,4.64c2.42,0,4.84.05,7.26,0a3.11,3.11,0,0,0,1.83-.75A13.74,13.74,0,0,1,27.44,0C31.73,0,36,0,40.3,0a13.65,13.65,0,0,1,9.46,3.71A3.82,3.82,0,0,0,52,4.6c2.41.11,4.83,0,7.25,0,5.09,0,8.23,3.15,8.23,8.2q0,32.13,0,64.27c0,5.1-3.1,8.22-8.15,8.22H8.05c-4.87,0-8-3.15-8-8Q0,61.12,0,44.94ZM14,9.69H8.67c-3,0-3.62.66-3.62,3.64Q5,45,5.05,76.7c0,3,.64,3.59,3.66,3.59H58.76c3.07,0,3.67-.61,3.67-3.74V13.49c0-.5,0-1,0-1.51a2.26,2.26,0,0,0-2.23-2.25c-2.2-.1-4.41,0-6.7,0,.15,1,.33,1.82.39,2.67.21,2.78-.64,3.67-3.41,3.68H16.58c-2.12,0-3-.95-3-3.06C13.64,11.93,13.83,10.89,14,9.69Zm5.16,1.18H48.35a7.72,7.72,0,0,0-6.91-5.73q-7.69-.21-15.4,0A7.74,7.74,0,0,0,19.13,10.87Z"/><path class="a" d="M27.32,32.67c-2.32,2.35-4.65,4.72-7,7.06a2.38,2.38,0,0,1-3,.53,2.28,2.28,0,0,1-1.24-2.66,3,3,0,0,1,.79-1.41q4.22-4.32,8.51-8.59c1.45-1.44,2.72-1.41,4.19,0q3.5,3.46,7,7l0,0,5.31-5.37A9.87,9.87,0,0,1,40,26.53a2.15,2.15,0,0,1,2.22-2.6c2.17-.07,4.34-.06,6.51,0a2.36,2.36,0,0,1,2.4,2.54c0,1.87,0,3.73,0,5.6s-.62,2.85-2,3.08c-1.54.25-2.46-.44-3.18-2.6-2.09,2.12-4.08,4.16-6.08,6.2-.39.4-.77.8-1.18,1.18-1.43,1.35-2.67,1.34-4.08,0C32.24,37.52,29.84,35.15,27.32,32.67Z"/><path class="a" d="M42.22,51.75h9.36c1.87,0,3.13,1,3.13,2.53s-1.2,2.52-3,2.53q-9.57,0-19.16,0c-1.87,0-2.9-1-2.89-2.55s1.05-2.5,2.91-2.51Z"/><path class="a" d="M42.21,71.11c-3.23,0-6.45,0-9.68,0-1.89,0-2.89-.89-2.88-2.5s1-2.43,2.8-2.43q9.67,0,19.36,0c1.74,0,2.86,1,2.9,2.42s-1.21,2.51-3,2.52C48.56,71.12,45.39,71.11,42.21,71.11Z"/><path class="a" d="M18,67.9c1-1.12,2-2.26,3.07-3.33,1.35-1.38,2.89-1.51,4-.41s1,2.57-.43,4c-1.55,1.57-3.11,3.14-4.69,4.69-1.42,1.39-2.65,1.39-4.06,0-.73-.69-1.44-1.41-2.14-2.13-1.19-1.22-1.32-2.69-.34-3.74s2.5-1,3.84.19Z"/><path class="a" d="M18,53.49c1.14-1.22,2.18-2.38,3.28-3.47,1.23-1.24,2.66-1.3,3.72-.24s1,2.49-.21,3.74c-1.65,1.69-3.31,3.38-5,5-1.35,1.32-2.59,1.31-4,0-.73-.69-1.43-1.41-2.12-2.14-1.19-1.26-1.33-2.71-.38-3.76s2.37-1.13,3.84.12Z"/></svg>