<svg xmlns="http://www.w3.org/2000/svg" viewBox="0 0 235.8 239.31"><defs><style>.a{fill:#535453;}</style></defs><path class="a" d="M55.61,51.36C59,35.22,67.08,22.32,80,12.7A63.51,63.51,0,0,1,174.22,34a15.93,15.93,0,0,0,6.85,6.45q24.13,11.3,48.63,21.88c4.32,1.88,6.1,4.81,6.1,9.23q0,79.47-.05,159c0,7.58-5.1,10.75-12.1,7.65-20.81-9.23-41.53-18.66-62.38-27.78a10.63,10.63,0,0,0-7.37-.26q-35.52,13.8-70.85,28.11a11.51,11.51,0,0,1-9.94-.21q-32.88-15-66-29.5C1.91,206.21,0,202.88,0,197.35Q.17,119.12.09,40.9c0-9,4.64-12,12.9-8.38C25.46,38,37.87,43.62,50.32,49.17,52,49.9,53.65,50.55,55.61,51.36Zm-40.1-1.29c-.17,1.46-.34,2.25-.34,3q0,69.5-.11,139c0,2.94,1.28,4,3.62,5,16,7.07,31.85,14.27,47.78,21.39,1.25.56,2.61.87,4.14,1.38.12-1.32.23-2,.23-2.64,0-33.33,0-66.66-.08-100a13.77,13.77,0,0,0-2-6.46C61.51,98.29,56.13,85.2,54.59,70.67A7,7,0,0,0,51.21,66c-7.91-3.87-16-7.35-24-10.92C23.42,53.42,19.64,51.84,15.51,50.07Zm166.65,7.42c-.38.77-.66,1.06-.64,1.34.94,19.31-5.16,36.63-14.81,53a12.61,12.61,0,0,0-1.52,6.11c-.1,24.49,0,49-.15,73.47,0,3.15,1,4.66,3.87,5.91,15.83,6.93,31.55,14.09,47.32,21.14,1.28.57,2.66.92,4,1.38a7,7,0,0,0,.45-1.46c0-47,.12-94,0-140.93,0-1.49-2-3.59-3.65-4.34-9.92-4.68-20-9-30-13.51C185.39,58.87,183.76,58.18,182.16,57.49ZM117.88,144.9c17.87-15.78,33.22-32.71,42.51-54.29,6.91-16,9-32.44,1-48.71-11-22.26-36.65-32.32-60.09-24-22.47,8-35.9,32.44-30.82,56.23C76.8,103.91,96.05,125,117.88,144.9ZM86,220.83c21-8.32,41.36-16.32,61.62-24.57,1.24-.5,2.35-3,2.36-4.57.17-18,.11-35.95.1-53.92a11.49,11.49,0,0,0-.25-1.87c-8.84,8-17.52,15.95-26.27,23.81-3.65,3.28-7.51,3.33-11.15,0q-11.73-10.8-23.29-21.8c-.86-.82-1.09-2.3-1.6-3.48L86,135.8Z"/><path class="a" d="M117.64,35.74a28.11,28.11,0,0,1,28.28,28.08c-.08,14.78-13,27.61-27.84,27.64-15.19,0-28.13-12.92-28-28C90.29,48.21,102.63,35.76,117.64,35.74Zm.51,15a12.83,12.83,0,1,0,12.68,12.86A13.07,13.07,0,0,0,118.15,50.78Z"/></svg>