<svg xmlns="http://www.w3.org/2000/svg" viewBox="0 0 82.58 80.78"><path d="M73.56,60.94c-4-1.31-5-2.73-5-6.77V41c0-4,1-5.48,4.77-6.81C73.17,20.28,60.92,4.6,42.29,4A32.21,32.21,0,0,0,9.15,34.17c.26.1.55.22.85.31a5.4,5.4,0,0,1,4,5.38q0,7.57,0,15.14c0,4-3,6.46-7,5.73A8.32,8.32,0,0,1,.1,53C0,49.38,0,45.75.09,42.14c.09-2.9,1.64-5,4-6.66a2.46,2.46,0,0,0,1-1.59A36.4,36.4,0,0,1,36.75.32C56.28-2.37,75,12.13,77.22,31.69a5.6,5.6,0,0,1,.1.81,3.85,3.85,0,0,0,2,3.69,7.28,7.28,0,0,1,3.2,6.19c0,3.45.07,6.91,0,10.36a7.73,7.73,0,0,1-3.85,6.69,2.25,2.25,0,0,0-1.17,2.25,29.46,29.46,0,0,1-.32,5.72,11.65,11.65,0,0,1-11,9.27c-1.75.09-3.51,0-5.26.09a2.61,2.61,0,0,0-1.78,1,6.18,6.18,0,0,1-5.17,3c-2,.06-4.06.08-6.09,0-3.62-.16-6-2.65-6-6a6,6,0,0,1,6.17-5.93c1.87,0,3.73,0,5.6,0a6.19,6.19,0,0,1,5.58,3.16,2,2,0,0,0,1.37.81c1.81.08,3.62.08,5.43,0a7.88,7.88,0,0,0,7.5-7.7C73.59,63.69,73.56,62.37,73.56,60.94ZM10.06,47.79c0-2.58,0-5.15,0-7.73,0-1.43-.78-1.94-2.13-1.78a4.29,4.29,0,0,0-3.86,4c-.11,3.5-.1,7,0,10.51a4.32,4.32,0,0,0,3.58,4c1.62.3,2.39-.3,2.41-2C10.08,52.5,10.06,50.14,10.06,47.79Zm62.47-.28c0,2.47,0,4.93,0,7.4,0,1.57.75,2.15,2.3,1.91a4.27,4.27,0,0,0,3.67-3.88c.11-3.61.11-7.23,0-10.83a4.2,4.2,0,0,0-3.57-3.78c-1.65-.31-2.37.26-2.39,2C72.51,42.69,72.53,45.1,72.53,47.51ZM50.89,72.72v0c-1,0-2.09-.08-3.12,0a1.87,1.87,0,0,0-1.89,2.06,1.81,1.81,0,0,0,1.87,1.9c2.07.09,4.16.09,6.24,0a1.88,1.88,0,0,0,2-2,2,2,0,0,0-2.13-2C52.86,72.68,51.87,72.72,50.89,72.72Z"/><path d="M41.33,19.26c4.16,0,8.32,0,12.49,0a8.2,8.2,0,0,1,8.6,8.57q.06,8.29,0,16.6A8.22,8.22,0,0,1,54,53c-3.12,0-6.25.06-9.37,0a3.36,3.36,0,0,0-2.72,1.16c-1.93,2-4,3.94-5.92,5.93a4.06,4.06,0,0,1-4.77,1.13,4,4,0,0,1-2.49-4.06V56.8c0-1.09.35-2.44-.16-3.21s-1.86-.72-2.84-1.07A8.11,8.11,0,0,1,20.2,45c-.07-5.92-.09-11.84,0-17.75a8.17,8.17,0,0,1,8.14-8h13Zm-8.68,38,.45.22c2.34-2.38,4.61-4.84,7-7.1a5.16,5.16,0,0,1,3-1.27c3.56-.15,7.12,0,10.69-.07a4.28,4.28,0,0,0,4.62-4.62q0-8.3,0-16.61A4.23,4.23,0,0,0,54,23.23q-12.66,0-25.33,0a4.21,4.21,0,0,0-4.48,4.41c0,5.65-.1,11.3.06,16.94A5,5,0,0,0,25.8,48a7.23,7.23,0,0,0,3.8,1c2.44.17,3,.63,3,3C32.66,53.76,32.65,55.5,32.65,57.24Z"/><path d="M41.24,39.37a2.93,2.93,0,1,1,3-2.88A3,3,0,0,1,41.24,39.37Z"/><path d="M31.64,33.51a2.93,2.93,0,1,1-2.85,3A3,3,0,0,1,31.64,33.51Z"/><path d="M50.84,39.37a2.93,2.93,0,0,1,.09-5.86,2.93,2.93,0,0,1-.09,5.86Z"/></svg>