<svg xmlns="http://www.w3.org/2000/svg" viewBox="0 0 62.55 62.75"><defs><style>.a{fill:#121921;}</style></defs><path class="a" d="M21.15,30.06c-1-1.08-2-2-2.9-3.09A16.65,16.65,0,0,1,34.65.34a16.67,16.67,0,0,1-3.31,33,27,27,0,0,0-26.2,20.5c-.68,2.74.27,4,3.06,4,7.76,0,15.51,0,23.27,0a4.14,4.14,0,0,1,2.24.7,2.09,2.09,0,0,1,.63,2.55,2.25,2.25,0,0,1-2.11,1.6c-1.1.06-2.21,0-3.31,0H7.86C2.4,62.73-1,58.45.28,53.15,3,42.1,9.77,34.51,20.39,30.37ZM43.05,16.5A11.74,11.74,0,1,0,31.74,28.43,11.74,11.74,0,0,0,43.05,16.5Z"/><path class="a" d="M51,38.23c2.93,0,5.86,0,8.8,0,1.85,0,2.73.83,2.72,2.51s-.92,2.38-2.72,2.39H42.23c-1.75,0-2.85-1-2.81-2.51s1.1-2.39,2.8-2.39C45.16,38.22,48.09,38.23,51,38.23Z"/><path class="a" d="M51,48h8.8c1.86,0,2.74.83,2.73,2.5s-.91,2.4-2.71,2.4H42.24c-1.76,0-2.85-1-2.82-2.5S40.52,48,42.21,48Z"/><path class="a" d="M51.17,57.83h8.68c1.79,0,2.69.82,2.7,2.41s-.88,2.49-2.74,2.49q-8.81,0-17.6,0c-1.69,0-2.77-.95-2.79-2.4s1.06-2.49,2.82-2.5Z"/></svg>