<svg xmlns="http://www.w3.org/2000/svg" viewBox="0 0 76.49 80.52"><defs><style>.a{fill:#0e0f0f;}</style></defs><path class="a" d="M74.87,27.67c-2.1-1.2-2.2-2.68-2.19-5.21,0-1.32.15-1.63,1-2.07a4.77,4.77,0,0,0,2.23-6.58A36,36,0,0,0,73.67,10C72.43,8.11,69.93,6.85,68,8.05s-3.07.52-4.9-.49l-.43-.24c-1.15-.62-1.45-1-1.41-2.08A4.86,4.86,0,0,0,60,1.67,5.38,5.38,0,0,0,56.11.07l-.94,0a12,12,0,0,0-2.86.09A8.12,8.12,0,0,0,49,1.56c-1.25,1-1.79,2.51-1.61,4.57,0,.42,0,.54-.55.78a16.63,16.63,0,0,0-3.31,1.91c-.37.28-.49.28-.94,0-1.86-1.07-3.35-1.39-4.68-1s-2.45,1.41-3.51,3.3c-.4.71-.49.74-1.26.5a18.87,18.87,0,0,0-21.45,7.7,18.65,18.65,0,0,0,1.82,22.55,28.06,28.06,0,0,0,3,2.73l.32.27-.18.07C6.8,49,1.31,56.2.25,66.38A71.64,71.64,0,0,0,0,74.25c0,1,0,2,0,3a3.36,3.36,0,0,0,.75,2.5,3.43,3.43,0,0,0,2.52.79H51.61c2.26,0,3.22-1,3.24-3.17,0-.73,0-1.46,0-2.2,0-2.23.06-4.54-.06-6.81-.57-11-6-18.82-16.18-23.25l-.38-.16.11-.09a28,28,0,0,0,2.77-2.46,29.9,29.9,0,0,0,2.35-3l.51-.7.17.11A9.67,9.67,0,0,0,46.38,40c.83.26,1,.56,1,1.65a5,5,0,0,0,5,5.36,31.69,31.69,0,0,0,4.46,0c2.28-.19,4.54-1.81,4.38-4.18-.14-2.05.79-2.8,2.78-3.62a2.81,2.81,0,0,0,.87-.55c.51-.52.89-.64,1.87,0,2.8,1.68,5.62.93,7.37-2l.19-.31c.51-.85,1-1.72,1.52-2.62C76.86,31.6,76.83,28.8,74.87,27.67Zm-6,6.35c-2.34-1.88-4.53-1.77-6.69.31a9.31,9.31,0,0,1-3,1.57l-.68.26a2.83,2.83,0,0,0-2,2.91,2.11,2.11,0,0,1,0,.23c-.06.35-.09.78-.12,1.2a9.24,9.24,0,0,1-.13,1.25,11,11,0,0,1-3.37.15l-.24,0a1,1,0,0,1-.2-.31c.52-3.22-.78-5.17-4.2-6.3-2.29-.75-2.29-.75-2.08-3.58l0-.14c0-.72.06-1.43,0-2.13a10.34,10.34,0,0,0,1,1.12,10,10,0,0,0,7.05,2.9h0a9.88,9.88,0,0,0,9.87-10,10,10,0,0,0-10-9.88h0a9.72,9.72,0,0,0-6.85,2.9,10.3,10.3,0,0,0-2.77,5.06,19.67,19.67,0,0,0-5.89-7.11l-.31-.23a5.62,5.62,0,0,1,.77-1.43,8.77,8.77,0,0,1,2,.94c2.17,1.22,2.59,1.2,4.47-.14l.27-.2A22.09,22.09,0,0,1,50.09,11a3.26,3.26,0,0,0,2.3-3.27c0-.43,0-.8,0-1.14a8.24,8.24,0,0,1,0-1.43,8.8,8.8,0,0,1,1.6,0h1.06a9,9,0,0,1,1.23,0,7.09,7.09,0,0,1,.06,1.21v.47c0,.4,0,.79,0,1.19a3,3,0,0,0,2,2.88,47,47,0,0,1,5.21,2.95,3.06,3.06,0,0,0,3.57.2c.49-.27.9-.51,1.25-.72.52-.32,1.06-.64,1.16-.67a7.89,7.89,0,0,1,1.11,1.65l.55.93c.35.57.29.78.28.8s-.19.22-.56.35c-2.8,1-3.82,2.95-3.1,6a9.67,9.67,0,0,1-.12,3.45l-.08.51a2.83,2.83,0,0,0,1.57,3.3c.28.14.55.3.82.46s.68.39,1,.56.45.28.47.36,0,.33-.24.69L71,32c-.37.61-.76,1.24-1.09,1.9-.15.29-.27.39-.31.4s-.15,0-.52-.2A1.23,1.23,0,0,0,68.89,34Zm-18.15-7a5.13,5.13,0,0,1,0-7.09,4.79,4.79,0,0,1,3.44-1.38h0a4.9,4.9,0,0,1,5,5,4.89,4.89,0,0,1-5,4.9A4.63,4.63,0,0,1,50.74,27.07Zm-45,36.12A20.32,20.32,0,0,1,25.35,48.31h1.2a33.65,33.65,0,0,1,6.9.44,20.39,20.39,0,0,1,16.33,19.7c.06,1.73,0,3.44,0,5.25,0,.57,0,1.14,0,1.71H5v-.14c0-.73,0-1.45,0-2.17V71.31A28.44,28.44,0,0,1,5.77,63.19ZM27.21,43.24h0A13.83,13.83,0,0,1,13.51,29.4a13.91,13.91,0,0,1,14-13.66h0a13.47,13.47,0,0,1,9.66,4.13,13.8,13.8,0,0,1,4,9.83,14.36,14.36,0,0,1-4.37,9.91A13.19,13.19,0,0,1,27.21,43.24Z"/></svg>