<svg xmlns="http://www.w3.org/2000/svg" viewBox="0 0 63.96 63.96"><defs><style>.a{fill:#b0b0b0;}</style></defs><path class="a" d="M31.84,0A32,32,0,1,1,0,32.24,32.09,32.09,0,0,1,31.84,0ZM59,32.12A27,27,0,1,0,32,59,27.11,27.11,0,0,0,59,32.12Z"/><path class="a" d="M35.53,28.63H47.94a3.57,3.57,0,0,1,3.33,1.57c1.47,2.34-.15,5.06-3.12,5.11-3.66.06-7.33,0-11,0H35.32c0,4.12,0,8.08,0,12a8,8,0,0,1-.23,2.14,3.25,3.25,0,0,1-6.22,0,7.71,7.71,0,0,1-.22-2c0-4,0-7.94,0-12.16H26.92c-3.66,0-7.33,0-11,0-2.14,0-3.54-1.15-3.77-2.93-.26-2.1,1.3-3.72,3.72-3.75,3.61,0,7.22,0,10.84,0h1.91V26.89c0-3.61,0-7.23,0-10.84,0-2.38,1.28-3.86,3.28-3.89s3.39,1.46,3.41,3.92c0,4,0,8.05,0,12.07A2.09,2.09,0,0,0,35.53,28.63Z"/></svg>