<svg xmlns="http://www.w3.org/2000/svg" viewBox="0 0 767.89 224.67"><defs><style>.a,.b{fill:#fff;}.b{font-size:26.65px;font-family:NexaBold, Nexa Bold;letter-spacing:0.24em;}.c{letter-spacing:0.27em;}.d{letter-spacing:0.24em;}.e{letter-spacing:0.2em;}.f{letter-spacing:0.24em;}.g{letter-spacing:0.26em;}.h{letter-spacing:0.25em;}</style></defs><path class="a" d="M625.05,0c1.09,2.26,3.11,4.51,3.13,6.77.23,24.08.05,48.17.21,72.25,0,4.85-1.78,6.67-6.55,6.64-18-.15-36,.69-53.92-.32C547.3,84.18,528.24,78,514.5,61.21c-9.21-11.25-8.9-26.31.7-37.33C527.55,9.71,544.05,3.7,562.1,1c1.65-.25,3.27-.69,4.9-1ZM616,8.37c-17.48,0-34.61-.85-51.61.26A55.81,55.81,0,0,0,528.06,25c-10.81,10.78-10.68,25.33.09,36.16a51,51,0,0,0,29.94,15c12.87,1.67,26,1.65,39,2.17,6.22.25,12.44,0,18.9,0Z"/><path class="a" d="M748.27,0c1.05,2.28,3,4.55,3,6.86.29,13.73,0,27.48.23,41.23.09,5.06-2.37,6.66-6.76,6.66q-53.44,0-106.9,0c-5.5,0-6.67-1.46-6.68-7.11,0-13.57-.14-27.15.14-40.72,0-2.32,1.9-4.59,2.91-6.89ZM739,46.8V8.18H643.61V46.8Z"/><path class="a" d="M476.9,50.61h-237V4.19h237Z"/><path class="a" d="M.05,166.32V119.55H202.24v46.77Z"/><path class="a" d="M202.24,50.61H.23V4.26h202Z"/><path class="a" d="M202.3,62.17v46H0v-46Z"/><path class="a" d="M320.78,166.29V62.16h74.88V166.29Z"/><path class="a" d="M665.5,170.31c-9,0-18,.07-27,0-6.44-.07-7.36-1.07-7.36-7.35q0-35.62,0-71.25c0-5.56,1.28-7,6.79-7,17.13-.06,34.28-.47,51.39.13,16.53.58,32,5.18,45.67,15,9.81,7.07,16.78,15.77,16.39,28.7a29.67,29.67,0,0,1-9,20.42c-13.55,13.8-30.7,19.51-49.42,20.9-9.11.68-18.31.12-27.46.12Zm-22-6.71c18.77-.73,37.21-.86,55.53-2.37,11.64-1,22.18-6,30.93-14.09,13.08-12,12.55-28.81-1.18-40.09-8.84-7.26-19-12.54-30.27-13.29-17.89-1.19-35.89-.89-53.84-1.19-.42,0-.85.45-1.17.64Z"/><path class="a" d="M568.56,170.32q-25.93,0-51.88,0c-8,0-8.74-.78-8.74-8.6,0-13.05.19-26.11-.1-39.16-.1-5,2.1-6.76,6.53-7,1.35-.06,2.71-.06,4.06-.06q49.85,0,99.69,0c1.85,0,3.71.17,5.57.34,3.24.29,4.69,2,4.67,5.36-.1,14.41-.15,28.82,0,43.22,0,4.74-2.6,5.8-6.42,5.82-11.69,0-23.39,0-35.09,0ZM616,123.61H520.4v39H616Z"/><text class="b" transform="translate(31.91 216.46) scale(1.44 1)"><tspan xml:space="preserve">M  RGING  T  </tspan><tspan class="c" x="237.55" y="0">C</tspan><tspan class="d" x="262.36" y="0">H SO</tspan><tspan class="e" x="351.36" y="0">L</tspan><tspan class="f" x="372.25" y="0">UT</tspan><tspan class="g" x="421.23" y="0">I</tspan><tspan x="435" y="0">O</tspan><tspan class="h" x="462.31" y="0">N</tspan><tspan x="488" y="0">S</tspan></text><rect class="a" x="77.37" y="203.81" width="16.47" height="3.95"/><rect class="a" x="1.82" y="196.68" width="21.08" height="3.95"/><rect class="a" x="1.82" y="211.94" width="21.08" height="3.95"/><rect class="a" x="1.82" y="204.58" width="16.47" height="3.95"/><rect class="a" x="77.37" y="196.68" width="21.08" height="3.95"/><rect class="a" x="77.37" y="211.94" width="21.08" height="3.95"/><rect class="a" x="340.03" y="196.68" width="21.08" height="3.95"/><rect class="a" x="340.03" y="211.94" width="21.08" height="3.95"/><rect class="a" x="340.03" y="204.58" width="16.47" height="3.95"/></svg>