<svg xmlns="http://www.w3.org/2000/svg" viewBox="0 0 233.2 255.9"><defs><style>.a{fill:#767676;}</style></defs><path class="a" d="M174.61,110.78c13.78,3.33,25.9,9.3,35.79,19.2,21.23,21.28,27.95,46.85,18.81,75.17S199.69,250.69,170,255,116.6,248,99,223.88c-1.89-2.61-3.66-3.67-6.86-3.65-20.34.15-40.68-.41-61,.22C13.87,221-.11,208.48,0,189.25c.31-52.66.05-105.32.14-158C.17,11.53,11.92.07,31.69.07c26.67,0,53.33.06,80-.07a11.51,11.51,0,0,1,9.22,3.85C137.59,21.57,154.48,39.08,171,56.91a14.45,14.45,0,0,1,3.42,8.77C174.79,80.5,174.61,95.33,174.61,110.78Zm-65-99.92h-5.85q-35.73,0-71.48,0c-14.9,0-21.54,6.7-21.54,21.71q0,77.73,0,155.47c0,14.8,6.94,21.82,21.63,21.85q26.74,0,53.49,0c1.58,0,3.16-.18,5.38-.32-5.45-14.54-5.92-29-3.29-44.12h-43c-3.77,0-6.92-1.25-6.79-5.48.11-3.86,3-5.07,6.66-5.05q21.25.12,42.49,0c1.56,0,4-.06,4.54-1,3.11-4.95,5.76-10.17,8.81-15.73H47.38c-1.67,0-3.74.52-4.91-.26-1.82-1.23-4-3.27-4.2-5.15-.14-1.46,2.31-3.59,4.07-4.68,1.23-.77,3.24-.37,4.9-.37,17.5,0,35-.25,52.49.11,7.08.14,13.45-.55,18.75-5.78,1.38-1.36,3.33-2.16,5.06-3.15,12.27-7.06,25.63-9.82,39.87-9.79V68c-9.34,0-18.33-.19-27.3,0-17.31.45-27.5-12.09-26.65-26.7C110,31.37,109.57,21.39,109.57,10.86Zm50.24,234.4c34.62-.14,62.7-28.26,62.55-62.62a63.08,63.08,0,0,0-63.22-62.59c-34.27.21-62.7,29-62.32,63A62.73,62.73,0,0,0,159.81,245.26ZM120.43,19.12c0,9.83-.22,18.14.08,26.43.2,5.55,4.38,10.74,9.7,11.13,8.32.61,16.71.16,26.1.16Z"/><path class="a" d="M70.43,101c8.49,0,17,.05,25.48,0,3.67,0,6.43,1.3,6.55,5.18s-2.86,5.39-6.37,5.4q-25.74.09-51.47,0c-3.55,0-6.57-1.38-6.56-5.27,0-4.14,3-5.4,6.88-5.35C53.44,101.08,61.93,101,70.43,101Z"/><path class="a" d="M164.89,162.25q0,26.17,0,52.35c0,1.83.44,4-.4,5.39-1.06,1.7-3.25,3.77-4.91,3.74s-3.64-2.22-4.83-3.91c-.73-1-.29-2.91-.29-4.41q0-24.22,0-48.47v-5.86c-1.8,1.64-2.89,2.52-3.85,3.53-6,6.29-11.87,12.62-17.82,18.91-2.35,2.49-5.13,3.42-7.91,1s-2.5-5.38-.13-7.94Q140,160,155.44,143.7c2.65-2.79,5.79-2.55,8.35.15q15.3,16.14,30.37,32.47c2.29,2.48,2.73,5.5.09,8s-5.5,1.67-7.84-.82q-10.24-10.86-20.43-21.8Z"/></svg>