<svg xmlns="http://www.w3.org/2000/svg" viewBox="0 0 97.15 233.46"><defs><style>.a{fill:#767676;}</style></defs><path class="a" d="M0,110.71q0-36.49,0-73A41.37,41.37,0,0,1,9.71,11.05C22.86-5.21,47.89-3.18,60.21,14.89c5.44,8,7.6,17,7.58,26.45q-.21,71-.58,142c0,8.69-5.54,15.49-14.06,16.82-15.29,2.37-25.8-4.47-26.15-19.41-.13-5.66,0-11.32,0-17v-91a45,45,0,0,1,.08-4.5c.36-3.51,2.38-5.42,5.9-5.47s5.55,1.95,6.08,5.35a29.34,29.34,0,0,1,.08,4.5q0,48.75,0,97.5a51,51,0,0,0,1.26,11.36c.75,3.2,2.8,5.59,6.7,5.56s5.89-2.15,6.85-5.43a26.65,26.65,0,0,0,1.15-7.35c.11-46.5.23-93,.12-139.51,0-12.51-7.89-21.16-18.89-21.77-12.68-.7-21.3,6.21-23.29,19a83.29,83.29,0,0,0-.94,12.92q-.11,69.51,0,139c0,22.79,18.13,38.24,40.72,34.71,20.8-3.25,31.89-16.25,31.94-37.88.08-38.33,0-76.67,0-115,0-1.67,0-3.34,0-5,.11-4,2.29-6.4,6.18-6.34,3.62.06,5.66,2.5,6,6.13a34,34,0,0,1,0,3.5c0,39.83.11,79.67-.13,119.5a68,68,0,0,1-2.75,18.65C89,219.9,76.64,230,58.53,232.75,25.39,237.77.14,215.8.09,182.21c0-12-.06-24-.07-36Q0,128.46,0,110.71Z"/></svg>