<svg xmlns="http://www.w3.org/2000/svg" viewBox="0 0 140.19 126.67"><path d="M19.31,126.67V101.09c-1.72-.3-3.25-.48-4.73-.83A19.09,19.09,0,0,1,.05,82Q-.06,51.08,0,20.14C0,8.25,8.27.05,20.27,0Q57.94,0,95.6,0c8,0,16,0,23.94,0,12.42,0,20.63,8.26,20.64,20.69q0,29.78,0,59.56c0,12.39-8.24,20.6-20.71,20.62-19.08,0-38.15,0-57.23,0a6.69,6.69,0,0,0-3.57.72c-12,8.28-23.91,16.67-35.85,25Zm8.1-13.5c1.34-.87,2.15-1.37,2.93-1.92,8.14-5.65,16.23-11.37,24.45-16.9a9.62,9.62,0,0,1,5.05-1.61c19.65-.1,39.29-.06,58.94-.07,8.87,0,13.2-4.38,13.2-13.31Q132,50,132,20.7c0-7.78-4.52-12.44-12.28-12.45q-49.6-.08-99.22,0c-7.84,0-12.26,4.58-12.26,12.38q0,29.78,0,59.53c0,8,4.41,12.4,12.44,12.51,2.2,0,4.4,0,6.76,0Z"/><path d="M37.51,37.13V29.37h64.94v7.76Z"/><path d="M102.55,46.88v7.77H37.61V46.88Z"/><path d="M37.51,72.17V64.41h64.94v7.76Z"/></svg>