<svg xmlns="http://www.w3.org/2000/svg" viewBox="0 0 256.22 256.07"><defs><style>.a{fill:#535453;}</style></defs><path class="a" d="M165.63,180.08c-50.72,38.7-112.46,23.69-143.3-15.54-32.92-41.9-29-100.28,8.79-136.1s96.05-38,134.9-5.23c40.88,34.46,50.31,95.23,14.44,141.7,1.12,1.21,2.27,2.55,3.51,3.8Q217,201.78,250.1,234.85a33.4,33.4,0,0,1,4.29,4.86,10.51,10.51,0,0,1-14.67,14.43,36.57,36.57,0,0,1-4.85-4.3q-32.75-32.68-65.45-65.42C168.13,183.13,167,181.67,165.63,180.08Zm15.67-78.9c-.11-44.15-36.52-80.47-80.13-79.95-44.13.53-79.69,36.16-79.86,80s36,80,80.16,79.94A79.63,79.63,0,0,0,181.3,101.18Z"/></svg>