<svg xmlns="http://www.w3.org/2000/svg" viewBox="0 0 161.46 163.83"><path d="M126.8,153.06v5.05c0,4.89-.85,5.71-5.85,5.71H19.9c-5.19,0-10.38,0-15.57,0-2.41,0-4.25-1.08-4.22-3.5.14-11.73-.77-23.66,1-35.16C5,100.25,19.82,83.63,43.46,74.88l1.82-.68c-14.25-8.67-21.88-21-21-37.62.58-11,5.37-20.13,13.75-27.27A39.36,39.36,0,0,1,93.52,14C106.92,29.73,107.28,59.23,82.08,74c4.09,1.9,8.17,3.88,12.34,5.65A3.39,3.39,0,0,0,97,79c25-16.65,57.34-3.66,63.62,25.58C165.33,126.75,150.63,148.1,126.8,153.06ZM6.91,156.67h113l-.15-3c-33.32-.63-53.79-40-30-68.57-.68-.39-1.32-.81-2-1.15-31-15.08-68.87,1.9-78.49,35C5.67,131.33,7.65,143.88,6.91,156.67ZM63.53,6.89A32.35,32.35,0,1,0,95.74,39.47,32.26,32.26,0,0,0,63.53,6.89ZM86.34,112.55a34.06,34.06,0,1,0,34.16-34A34.2,34.2,0,0,0,86.34,112.55Z"/><path d="M136.28,118.47c.95,2.89,1.93,5.74,2.82,8.63,1.1,3.58.24,6.5-2.36,8.4s-5.59,1.86-8.69-.3c-2.48-1.74-4.91-3.56-7.61-5.52-2.42,1.75-4.85,3.52-7.29,5.26-3.33,2.35-6.23,2.55-8.94.65s-3.59-5-2.38-8.89c.86-2.79,2.93-6,2.2-8.26s-4.25-3.71-6.57-5.47c-3.42-2.58-4.54-5.28-3.46-8.53s3.5-4.67,7.84-4.75c2.91-.06,6.51.74,8.51-.67s2.07-5,3-7.72c1.39-4.07,3.61-6,7-6.07s5.72,2,7.19,6.18c1,2.74,1.31,6.41,3.27,7.86s5.45.4,8.29.43c4.27,0,6.73,1.56,7.76,4.85s-.1,6-3.55,8.52L136.65,118A3.59,3.59,0,0,0,136.28,118.47Zm-34.6-12.06-.22.63c2.74,2.12,5.43,4.3,8.23,6.33,2.12,1.53,2.77,3.29,1.84,5.81-1.17,3.16-2.1,6.4-3.14,9.61a47,47,0,0,0,8.73-5.3c2.31-1.74,4.32-1.76,6.6.08,2.57,2.08,5.35,3.91,8.69,6.31-1.14-3.86-2-6.84-2.89-9.82-1.28-4.33-1.16-4.72,2.45-7.32l8-5.76c-4.34-.2-7.75-.49-11.17-.49-2.67,0-4.13-1.12-4.85-3.67-.93-3.3-2.1-6.53-3.17-9.8a49.64,49.64,0,0,0-3.85,9.68c-.77,2.67-2.25,3.88-5.08,3.75C108.45,106.3,105.06,106.41,101.68,106.41Z"/></svg>