<svg xmlns="http://www.w3.org/2000/svg" viewBox="0 0 239.99 223.99"><path d="M119.71,224q-39.24,0-78.48,0C17.35,224,0,206.6,0,182.69Q0,112,0,41.23C0,17.34,17.37,0,41.3,0H198.75C222.64,0,240,17.37,240,41.29q0,70.72,0,141.46C240,206.63,222.6,224,198.69,224Q159.2,224,119.71,224Zm.66-208c-26.65,0-53.3-.05-79.95,0C27,16.05,16.1,26.23,16.06,39.33q-.24,72.72,0,145.42c0,9.69,6.58,18.37,15.68,21.73,8.59,3.18,10.25,2.39,13.13-6.22.21-.63.35-1.28.57-1.9,8.3-23.68,28.9-38.33,54-38.35q21.24,0,42.47,0a54.59,54.59,0,0,1,31.38,9.9c11.91,8.18,19.28,19.6,22.84,33.44,1.16,4.5,3.66,5.18,7.64,4.44,12.1-2.25,20.27-12,20.28-24.79q.06-70.71,0-141.42C224,26.08,213.87,16,198.32,16Q159.35,15.95,120.37,16Zm60,191.84c-3.9-18-19.23-31.3-36.82-31.72q-23.49-.56-47,0c-17.8.38-34.13,14.64-36.87,31.73Z"/><path d="M120.2,48A48,48,0,1,1,72,95.66C72.08,69.38,93.71,48,120.2,48ZM152,96.14A32,32,0,1,0,119.73,128,32.12,32.12,0,0,0,152,96.14Z"/></svg>