<svg xmlns="http://www.w3.org/2000/svg" viewBox="0 0 255.93 220.32"><defs><style>.a{fill:#fff;}</style></defs><path class="a" d="M127.83,220.29c-34.81,0-69.62.07-104.44,0C9.48,220.21-1,209.35.08,196a26.67,26.67,0,0,1,3.68-11.21Q55.62,98.26,107.84,12C117.56-4.06,138.3-4,148,12.1q52.26,86.27,104.14,172.74c10,16.65-.94,35.37-20.4,35.42C197.13,220.37,162.48,220.29,127.83,220.29Zm.11-16.74c33.81,0,67.62.08,101.43-.13,3,0,7.29-1.14,8.5-3.2s.12-6.45-1.39-9Q185.93,106.91,135,22.76c-4.84-8-9.41-8-14.27.06q-50.65,84-101.31,168c-1.82,3-4.5,6.48-1.65,9.49,1.92,2,5.74,3.09,8.72,3.11C60.32,203.63,94.13,203.55,127.94,203.55Z"/><path class="a" d="M137,109.05c0,10.49.1,21,0,31.48-.07,4.92-3.53,7.64-9.12,7.67s-8.73-2.52-8.92-7.73c-.72-20-1.47-40-2.05-59.94-.27-9.53,7.91-14.63,16.69-10.63,3.94,1.79,5.59,4.88,5.55,9.18-.1,10,0,20,0,30Z"/><path class="a" d="M128.2,182.59a11.87,11.87,0,0,1-12-11.53,11.83,11.83,0,1,1,23.66-.32A12,12,0,0,1,128.2,182.59Z"/></svg>