<svg xmlns="http://www.w3.org/2000/svg" viewBox="0 0 116.03 115.99"><path d="M74.64,33.21H59.21c-6.18,0-9.49-3.3-9.5-9.41V8.37H8.38v99.42h2.46c8.73,0,17.46,0,26.19,0a3.88,3.88,0,0,1,4.12,2.84,3.77,3.77,0,0,1-1.53,4.57,5.14,5.14,0,0,1-2.65.74c-9.6,0-19.19.09-28.78,0-4.9,0-8.14-3.42-8.16-8.45C0,94.67,0,81.85,0,69Q0,39.32,0,9.58C0,3.08,3,.05,9.48,0,23.8,0,38.11.08,52.42,0a7,7,0,0,1,5.42,2.22C65.52,10,73.32,17.65,80.94,25.49a6.91,6.91,0,0,1,1.74,4.33c.17,7.78.09,15.57.08,23.35,0,3-1.48,4.74-4,4.79s-4.13-1.79-4.14-4.87C74.63,46.57,74.64,40.06,74.64,33.21ZM58.17,14.59v10H68Z"/><path d="M41.35,66.27c-6.67,0-13.35,0-20,0-3,0-4.67-1.49-4.7-4S18.21,58,21.19,58Q41.44,58,61.7,58c2.92,0,4.62,1.75,4.53,4.29-.09,2.37-1.88,3.94-4.62,4C54.86,66.28,48.1,66.27,41.35,66.27Z"/><path d="M37.14,82.79H21.34c-3.06,0-4.67-1.39-4.71-4s1.55-4.13,4.56-4.13q16,0,32.07,0c2.89,0,4.7,1.63,4.67,4.11s-1.79,4-4.75,4Z"/><path d="M30.88,49.74c-3.22,0-6.44,0-9.67,0-2.78,0-4.5-1.56-4.58-4-.08-2.57,1.6-4.37,4.43-4.41,6.68-.07,13.36-.08,20,0a4.1,4.1,0,0,1,4.38,4.24c0,2.42-1.75,4.07-4.46,4.12C37.64,49.78,34.26,49.74,30.88,49.74Z"/><path d="M115.57,59.08c-2.58-9.74-14.56-12.64-22-5.25Q75,72.28,56.59,90.88a12,12,0,0,0-2.76,4.79C52.39,100.3,51.24,105,50,109.73s1.22,7.12,5.82,6c4.25-1.08,8.55-2,12.72-3.32a15.48,15.48,0,0,0,6.13-3.18C87.19,96.9,99.53,84.45,111.93,72.05a12.86,12.86,0,0,0,4.1-9.48A27.09,27.09,0,0,0,115.57,59.08ZM59.82,105.84c1.3-3.72.49-8.17,4.42-10.74l6.31,6.51C68,105.41,63.57,104.67,59.82,105.84ZM76.47,95.36l-5.94-6.27L93.41,66.31l5.93,6.18Zm29.16-28.91-6.25-6.51c1.1-1.78,2.9-2.13,4.94-1.8a3.89,3.89,0,0,1,3.3,3.23A4.48,4.48,0,0,1,105.63,66.45Z"/></svg>