<svg xmlns="http://www.w3.org/2000/svg" viewBox="0 0 27.25 28.28"><path d="M15.15,28.28H6c-1.15,0-1.53-.43-1.34-1.54.75-4.3,3.29-7,7.33-8.54,5.07-2,12.51,1.32,13.6,8.6.15,1-.3,1.48-1.3,1.48Z"/><path d="M15.11,5.39a5.29,5.29,0,0,1,5.29,5.33,5.26,5.26,0,0,1-10.52-.13A5.2,5.2,0,0,1,15.11,5.39Z"/><path d="M8.38,12.88a7.6,7.6,0,0,0,2.76,3.63l-.76.33a12.2,12.2,0,0,0-6.39,6,.69.69,0,0,1-.73.45c-.66,0-1.32,0-2,0-1,0-1.4-.44-1.25-1.44a10.68,10.68,0,0,1,3.21-6.28A10.13,10.13,0,0,1,7.9,13C8.05,12.93,8.2,12.91,8.38,12.88Z"/><path d="M14,3.57A7.27,7.27,0,0,0,8.1,11.84C6.65,11.49,5.15,9.38,5,7.61A5.29,5.29,0,0,1,8.56,2.17C10.49,1.51,13,2.14,14,3.57Z"/><path d="M24.38,2.88h1.51a1.25,1.25,0,0,1,1.35,1.2A1.22,1.22,0,0,1,26,5.38c-.41,0-.82,0-1.23,0a.5.5,0,0,0-.33.33c0,.4,0,.81,0,1.22A1.24,1.24,0,1,1,21.9,7c0-.49,0-1,0-1.61-.64,0-1.23,0-1.82,0a1.09,1.09,0,0,1-1-.83,1.09,1.09,0,0,1,.34-1.26,2.07,2.07,0,0,1,.95-.36,12.87,12.87,0,0,1,1.53,0V1.39a1.25,1.25,0,1,1,2.48,0Z"/></svg>