<svg xmlns="http://www.w3.org/2000/svg" viewBox="0 0 122.37 122.48"><path d="M41.51,58.53C32.5,51.06,27.92,41.62,28.75,30A31.05,31.05,0,0,1,39.35,8.48a32.4,32.4,0,0,1,44.74,1c12,11.81,14.44,34.68-3.14,49.11,2,.8,3.82,1.52,5.67,2.33,3.4,1.5,4.7,4,3.56,6.75s-4,3.54-7.54,2a52.36,52.36,0,0,0-30.8-3.7c-20.69,3.6-38.19,20.45-42.22,40.85-.66,3.34,1.61,6.09,5.21,6.13,5.57.06,11.15,0,16.73,0q20.57,0,41.13,0c3.41,0,5.5,2,5.37,5-.12,2.79-2.13,4.53-5.35,4.54-8.69,0-17.38,0-26.07,0q-15.66,0-31.32,0c-10.69,0-17.42-8.62-14.73-19Q9,71.16,40.22,59.09C40.58,59,40.92,58.79,41.51,58.53Zm19.7-49a23,23,0,1,0,22.91,23A23.07,23.07,0,0,0,61.21,9.56Z"/><path d="M104.36,104.54c0,4.8.11,9.17,0,13.54a4.5,4.5,0,0,1-4,4.36,4.73,4.73,0,0,1-5-2.88,10.42,10.42,0,0,1-.41-3.06c0-3.1,0-6.21,0-9.32,0-.78-.08-1.55-.14-2.64H83.66c-4.43,0-6.64-1.55-6.71-4.68S79.15,95,83.69,95H94.87V90.87c0-2.71,0-5.43,0-8.13.06-3.57,1.84-5.68,4.73-5.7s4.76,2.06,4.82,5.6c.06,3.11,0,6.22,0,9.33v3c3.11,0,6,0,8.93,0a44.74,44.74,0,0,1,4.78.13,4.58,4.58,0,0,1,4.21,4.66,4.49,4.49,0,0,1-4.24,4.63c-3.57.21-7.16.12-10.75.15Z"/></svg>