<svg xmlns="http://www.w3.org/2000/svg" viewBox="0 0 131.54 131.17"><path d="M74.54,85.11c-2.68-1.64-5.51-3-8.14-4.49,1.72-2.48,3.8-4.84,5.1-7.56s1.87-6,2.87-9a5.09,5.09,0,0,1,1.49-2c12.59-11.41,31.61-12.82,46.41-3.48,3.69,2.33,6.47,2.12,8.31-.65s1-5.65-2.83-8c-2.66-1.64-5.47-3.06-8.37-4.67,11.74-11.91,9.9-28.41.6-37.71a26.55,26.55,0,0,0-35.3-1.69c-9.57,7.86-14.6,25.49-1.38,39.4L72.6,51.16C65,34.76,47,31.35,34.75,38.82a25.42,25.42,0,0,0-12,16.56c-2.2,9.7.76,18,7.63,25.13-1,.45-1.78.79-2.55,1.15C14.71,87.66,5.45,97.23.81,111c-3.22,9.57,3.56,20.12,12.91,20.16,15.5.07,31,0,46.52,0a4.71,4.71,0,0,0,4.91-4.24,5,5,0,0,0-3.89-5.53,17.73,17.73,0,0,0-3.57-.27c-13,0-26-.27-39.06.09-7.72.22-10.12-3.32-6.77-10.57C21.82,89.1,48.9,81,69,93.83c3,1.94,6.63,2,8.39-.68S78.22,87.36,74.54,85.11Zm26.81-74.89A15.87,15.87,0,1,1,85.56,26.3,15.82,15.82,0,0,1,101.35,10.22Zm-53.23,67a15.92,15.92,0,1,1,16-15.95A16.07,16.07,0,0,1,48.12,77.19Z"/><path d="M125.27,101.87c-4.26,0-8.52,0-13,0,0-1.29,0-2.29,0-3.3,0-3.67.11-7.36-.1-11A5,5,0,0,0,105.19,83c-2.47,1-3.27,3.07-3.26,5.58,0,4.34,0,8.68,0,13.3-4.54,0-8.8,0-13.06,0-3.79,0-6.11,1.88-6.19,5s2.31,5.26,6.18,5.28c4.26,0,8.52,0,12.91,0,.06,1,.14,1.75.15,2.5,0,4-.07,8,.15,12,.17,3,2.13,4.49,5.15,4.46a4.58,4.58,0,0,0,4.89-4.48,28.43,28.43,0,0,0,.11-3.33c0-3.65,0-7.3,0-11.2,4.57,0,8.83,0,13.09,0,3.76,0,6.1-1.94,6.17-5S129.17,101.88,125.27,101.87Z"/></svg>