<svg xmlns="http://www.w3.org/2000/svg" viewBox="0 0 142.96 140.14"><path d="M132.67,72.44c-10.11-10.37-25.42-13.09-39-6.92a3.35,3.35,0,0,1-1.39.31C89,64,85.78,62.14,82.41,60.16L80.48,59l.31-.44c6.82-9.52,9.62-19.69,8.33-30.21C87.53,15.4,81,6.72,69.7,2.58c-13.09-4.8-25-2.87-34.55,5.59-9.81,8.73-12.82,20.8-9,35.9a42.82,42.82,0,0,0,7.6,15.22c-22.46,8.83-35.34,31-33.64,58,.2,3.29,1.56,5.43,4.25,6.71,1.24.59,2.41,1.31,3.65,2.06.89.54,1.81,1.09,2.76,1.6,14.54,7.83,28.67,11.88,43.19,12.38q1.52.06,3,.06c13.33,0,26.51-3.07,40.18-9.34a8.56,8.56,0,0,1,3.37-.33c1.37,0,2.81.18,4.19.32a33.87,33.87,0,0,0,8.42.11c13.87-2.17,23.5-10.23,27.83-23.34S142.43,82.44,132.67,72.44ZM80,33.38c-.4,10.79-5,19.72-13.6,26.56-6.11,4.84-12.29,5-18.36.31-8.62-6.57-13.58-15.52-14-25.19,0-11.78,4.35-19.88,12.71-23.43C56,7.75,67.21,9.52,73.57,15.86,78.12,20.41,80.3,26.3,80,33.38ZM40.65,67a2.44,2.44,0,0,1,1.47.58C52.28,75,61.75,75,71.94,67.54c1-.73,1.54-.83,2.41-.42,2.75,1.3,5.48,2.53,8.37,3.82l1.65.74a35.2,35.2,0,0,0,3.5,53.1l-3.47,1.06c-4.26,1.32-8.28,2.56-12.38,3.4-20.58,4.2-40.74,0-61.66-12.68a2.29,2.29,0,0,1-.86-1.13c-1-18,6.42-40.2,30.05-48.25A3.38,3.38,0,0,1,40.65,67ZM133.5,96.8a24.8,24.8,0,0,1-7.38,17.65,25.1,25.1,0,0,1-17.84,7.41h0a25.07,25.07,0,1,1,.1-50.14h.13A25.17,25.17,0,0,1,133.5,96.8Z"/><path d="M119.37,84.72c-3.66,3.65-7.25,7.29-11.05,11.15l-3.65,3.71L103,97.84c-2-2.08-3.87-4-5.8-6a5.34,5.34,0,0,0-3.82-1.8,4.5,4.5,0,0,0-3.21,1.48c-2,2.06-1.84,4.68.44,7,3.64,3.71,7,7.11,10.4,10.39a5.37,5.37,0,0,0,3.7,1.82,5,5,0,0,0,3.49-1.68c5.49-5.41,11.85-11.7,17.91-18A5.82,5.82,0,0,0,127.3,86,4.12,4.12,0,0,0,124.36,83,5.34,5.34,0,0,0,119.37,84.72Z"/></svg>