<svg xmlns="http://www.w3.org/2000/svg" viewBox="0 0 111.1 111.12"><path d="M.39,25.34c0-4.89-.52-9.86.12-14.66C1.36,4.37,6.69.17,13,.08q12.48-.15,25,0A13.13,13.13,0,0,1,51,13.22c.16,8.23.18,16.47,0,24.71A13.16,13.16,0,0,1,37.87,51q-12.34.26-24.71,0C5.58,50.86.1,45,0,37.43c0-4,0-8.06,0-12.09Zm9,.16c0,4,0,8.06,0,12.1,0,2.7,1.32,4,4,4q12,.06,23.94,0c2.83,0,4.15-1.35,4.16-4.21q0-11.83,0-23.68c0-2.93-1.26-4.24-4.08-4.25q-12-.06-23.94,0c-2.89,0-4.1,1.26-4.13,4.18C9.42,17.6,9.44,21.55,9.44,25.5Z"/><path d="M25.49,110.77c-4.89,0-9.86.53-14.66-.13C4.24,109.75.1,104.37.05,97.76Q-.06,85.67,0,73.58A13.22,13.22,0,0,1,13.29,60.12q12.21-.21,24.44,0A13.22,13.22,0,0,1,51,73.33c.16,8.15.14,16.3,0,24.45-.13,7.7-5.92,13.24-13.68,13.3-3.94,0-7.88,0-11.83,0Zm-.14-9.1c4.12,0,8.24,0,12.37,0,2.44,0,3.84-1.29,3.86-3.66q.09-12.36,0-24.73a3.46,3.46,0,0,0-3.81-3.74q-12.23-.07-24.46,0c-2.54,0-3.84,1.37-3.85,3.94q-.06,12.11,0,24.21c0,2.72,1.29,3.95,4,4C17.46,101.71,21.4,101.67,25.35,101.67Z"/><path d="M85.58.05c4,0,8.06,0,12.09,0A13.16,13.16,0,0,1,111,13.35q.12,12.09,0,24.18A13.2,13.2,0,0,1,97.83,51q-12.22.23-24.45,0a13.28,13.28,0,0,1-13.3-13.46c-.1-8-.08-15.94,0-23.92A13.3,13.3,0,0,1,73.75.06C77.69,0,81.63.05,85.58.05Zm16.07,25.66c0-4.12,0-8.25,0-12.37,0-2.48-1.27-3.83-3.65-3.85q-12.36-.08-24.73,0a3.41,3.41,0,0,0-3.75,3.76q-.09,12.24,0,24.47c0,2.52,1.4,3.88,3.94,3.89q12.11.07,24.21,0c2.69,0,4-1.34,4-4.07C101.68,33.6,101.65,29.65,101.65,25.71Z"/><path d="M111.06,85.59c0,3.94,0,7.88,0,11.83-.07,7.91-5.68,13.6-13.55,13.66s-15.94,0-23.92,0a13.22,13.22,0,0,1-13.5-13.21q-.21-12.21,0-24.44A13.28,13.28,0,0,1,73.54,60.11q12.09-.16,24.18,0c7.7.12,13.27,5.9,13.34,13.65C111.09,77.7,111.06,81.65,111.06,85.59Zm-9.41.12c0-3.86,0-7.71,0-11.57,0-3.41-1.18-4.62-4.51-4.63q-11.58,0-23.16,0c-3.19,0-4.48,1.27-4.49,4.41q0,11.72,0,23.42c0,3,1.26,4.32,4.28,4.33q11.83,0,23.68,0c2.93,0,4.16-1.23,4.19-4.12C101.68,93.61,101.65,89.66,101.65,85.71Z"/></svg>