<svg xmlns="http://www.w3.org/2000/svg" xmlns:xlink="http://www.w3.org/1999/xlink" viewBox="0 0 3951.39 2477.52"><defs><style>.a{fill:none;}.b{fill:#b4cef9;}.c{opacity:0.89;}.d{clip-path:url(#a);}.e,.f{fill:#fff;}.e{opacity:0.12;}.f{opacity:0.2;}</style><clipPath id="a" transform="translate(318.82 180.28)"><polygon class="a" points="3247.43 0.98 3247.57 1870.23 3.86 1884.4 3.86 1310.29 5.55 0 3247.43 0.98"/></clipPath></defs><rect class="b" x="318.82" y="183.25" width="3237.29" height="1889.6"/><g class="c"><g class="d"><path class="e" d="M971.9,1418.53c0-55.7-10.49-108.22-31.65-153.72C891,1159,813.4,1105.59,757,1079.47c-96.73-44.77-189-54.85-259.78-28.39-75.55,28.23-102.25,86.69-130.52,148.58-25.77,56.39-52.41,114.71-118.66,151.67-59.7,33.31-118,15.09-179.79-4.19C7,1328-56.28,1308.26-126.16,1337.37c-74.2,30.91-134.63,102.67-140.56,166.92-4.31,46.84,18,103.3,64.5,163.32C-156.35,1726.8-91.26,1784-14,1833.13c208,132.15,441.89,170,625.8,101.15,133.39-49.91,246.18-157.59,309.46-295.44C954.88,1565.59,971.9,1489.49,971.9,1418.53Z" transform="translate(318.82 180.28)"/><path class="e" d="M2533.53,427.3c0-55.69-10.48-108.22-31.64-153.72C2452.65,167.72,2375,114.36,2318.59,88.24c-96.74-44.77-189-54.85-259.79-28.39-75.54,28.24-102.25,86.69-130.52,148.58-25.76,56.4-52.4,114.71-118.66,151.68-59.69,33.3-118,15.08-179.78-4.2-61.2-19.11-124.48-38.87-194.36-9.76-74.2,30.9-134.63,102.66-140.57,166.91-4.3,46.84,18,103.3,64.51,163.32,45.87,59.19,110.95,116.43,188.21,165.53,207.95,132.15,441.9,170,625.8,101.14,133.39-49.91,246.18-157.59,309.46-295.44C2516.51,574.37,2533.53,498.26,2533.53,427.3Z" transform="translate(318.82 180.28)"/><path class="e" d="M3632.58,904.75c0-55.7-10.48-108.22-31.65-153.72-49.23-105.87-126.85-159.23-183.3-185.35-96.73-44.76-189-54.85-259.78-28.39-75.54,28.24-102.25,86.7-130.52,148.59-25.77,56.39-52.41,114.7-118.66,151.67-59.7,33.3-118,15.09-179.78-4.2-61.2-19.11-124.49-38.87-194.37-9.76C2460.32,854.5,2399.89,926.25,2394,990.5c-4.31,46.85,18,103.31,64.5,163.33,45.87,59.19,111,116.42,188.22,165.52,208,132.15,441.89,170,625.8,101.15,133.39-49.91,246.18-157.6,309.46-295.44C3615.56,1051.81,3632.58,975.7,3632.58,904.75Z" transform="translate(318.82 180.28)"/><path class="e" d="M920.32,201.63c0-55.7-10.48-108.22-31.64-153.72C839.44-57.95,761.82-111.31,705.38-137.43c-96.74-44.77-189-54.85-259.79-28.39C370.05-137.59,343.35-79.13,315.07-17.24c-25.76,56.39-52.4,114.71-118.66,151.67-59.69,33.31-118,15.09-179.78-4.19-61.2-19.11-124.48-38.88-194.36-9.77-74.2,30.91-134.63,102.67-140.56,166.92-4.31,46.84,18,103.3,64.5,163.32,45.87,59.19,111,116.43,188.22,165.52,207.94,132.15,441.89,170,625.8,101.15,133.38-49.91,246.18-157.59,309.45-295.44C903.31,348.69,920.32,272.59,920.32,201.63Z" transform="translate(318.82 180.28)"/><path class="f" d="M900.72,1315.84c-4.52,0-9-.16-13.35-.47-73.78-5.29-156.15-59-191.6-125-33.49-62.37-10.88-118.54,11-172.85,21.69-53.87,42.18-104.74,5-156.41-41.54-57.74-107.37-81.07-171-103.63C470,732.36,403.11,708.67,370.64,641.3c-30.35-63-18.87-144.89,32.32-230.68,29.86-50,90.83-118.83,211.74-162.44h0c118.07-42.59,277.55-36.34,426.61,16.73,157.14,55.94,279.91,155.7,336.84,273.71,42,87.08,50,184,23.84,288.09-22.73,90.27-70.78,182-139,265.19C1151.8,1227.64,1008.26,1315.83,900.72,1315.84ZM790.2,222.36c-63.24,0-122.88,9.23-174.55,27.87-120.21,43.35-180.8,111.71-210.46,161.42-50.83,85.2-62.28,166.44-32.24,228.79,32.07,66.52,98.44,90,168.72,114.94,64,22.69,130.25,46.15,172.23,104.5,37.81,52.57,17.13,103.94-4.77,158.33C687.43,1072.1,665,1127.83,698,1189.37c35.1,65.35,116.58,118.57,189.54,123.79,53.2,3.81,117.3-15.83,185.46-56.8,67.2-40.4,132.19-97.72,188-165.76,150-183.13,193-389.15,114.85-551.12C1319.17,422,1196.89,322.68,1040.37,267,957.19,237.35,870.77,222.36,790.2,222.36Z" transform="translate(318.82 180.28)"/><path class="f" d="M1883.47,1937q-5.94,2.87-12,5.24c-67.58,26.59-169.16,14.31-236.27-28.57-63.4-40.52-74.23-99.34-84.69-156.23-10.37-56.42-20.17-109.7-81-139.28-67.93-33.06-138.4-25.65-206.54-18.48-75.75,8-147.3,15.48-212.54-29.86-61-42.37-95.61-119.07-97.54-216-1.12-56.52,14.8-142.65,97-232.07h0c80.3-87.32,223.57-149.34,383.24-165.89,168.33-17.45,330.44,18.07,444.77,97.46,84.36,58.58,144.29,140.19,178.11,242.55,29.34,88.79,37.25,189.54,22.86,291.38C2055.52,1753.42,1977.77,1891.5,1883.47,1937Zm-693.65-912.14c-55.46,26.77-102.73,60.1-137.86,98.31-81.76,88.9-97.59,174.49-96.48,230.64,1.92,96.22,36.22,172.32,96.59,214.27,64.42,44.77,135.46,37.3,210.68,29.4,68.54-7.21,139.41-14.66,208.06,18.74,61.85,30.1,71.75,83.9,82.22,140.86,10.39,56.45,21.12,114.82,83.69,154.8,66.44,42.45,166.94,54.63,233.76,28.33,48.74-19.17,94.23-63.53,131.64-128.3,36.89-63.87,62.61-141.64,74.37-224.91,31.65-224.11-43.13-422.95-200-531.91-113.8-79-275.24-114.38-442.92-97C1344.44,967.35,1260.47,990.79,1189.82,1024.89Z" transform="translate(318.82 180.28)"/><path class="f" d="M3074.31,2278c-4,1.91-7.94,3.65-12,5.23-67.58,26.6-169.15,14.32-236.26-28.56-63.41-40.52-74.23-99.34-84.69-156.24-10.37-56.41-20.18-109.7-81-139.27-67.94-33.06-138.4-25.65-206.55-18.49-75.74,8-147.29,15.49-212.53-29.85-61-42.37-95.62-119.07-97.54-216-1.13-56.52,14.8-142.65,97-232.07h0c80.3-87.32,223.56-149.34,383.24-165.89,168.33-17.45,330.44,18.07,444.76,97.46,84.37,58.58,144.29,140.19,178.12,242.55,29.34,88.78,37.24,189.54,22.86,291.37C3246.36,2094.4,3168.61,2232.48,3074.31,2278Zm-693.66-912.14c-55.46,26.77-102.72,60.1-137.86,98.31-81.75,88.9-97.58,174.49-96.47,230.64,1.92,96.22,36.21,172.32,96.58,214.27,64.43,44.77,135.47,37.3,210.69,29.4,68.54-7.21,139.41-14.66,208.06,18.74,61.85,30.1,71.75,83.9,82.22,140.86,10.38,56.45,21.12,114.82,83.69,154.8,66.44,42.45,166.93,54.63,233.76,28.33,48.74-19.17,94.23-63.53,131.64-128.3,36.89-63.87,62.61-141.64,74.37-224.91,31.65-224.11-43.13-422.95-200-531.91-113.81-79-275.24-114.38-442.92-97C2535.27,1308.33,2451.31,1331.77,2380.65,1365.87Z" transform="translate(318.82 180.28)"/><path class="f" d="M3148.26,817c-4,1.91-8,3.65-12,5.23-67.58,26.6-169.15,14.32-236.26-28.56-63.41-40.52-74.23-99.34-84.69-156.24-10.38-56.41-20.18-109.69-81-139.27-67.94-33.06-138.41-25.65-206.55-18.49-75.75,8-147.29,15.49-212.53-29.85-61-42.37-95.62-119.07-97.55-216-1.12-56.52,14.81-142.65,97-232.07h0c80.3-87.32,223.56-149.34,383.24-165.89,168.33-17.45,330.44,18.07,444.76,97.46,84.36,58.58,144.29,140.19,178.12,242.55,29.34,88.79,37.24,189.54,22.86,291.38C3320.31,633.36,3242.56,771.44,3148.26,817ZM2454.6-95.17c-55.46,26.77-102.72,60.1-137.86,98.31C2235,92,2219.15,177.63,2220.27,233.78c1.91,96.22,36.21,172.32,96.58,214.27,64.42,44.77,135.47,37.3,210.68,29.4,68.54-7.21,139.42-14.66,208.07,18.74,61.85,30.1,71.74,83.9,82.22,140.86,10.38,56.45,21.12,114.82,83.69,154.8,66.43,42.45,166.93,54.63,233.76,28.33,48.74-19.17,94.22-63.53,131.64-128.3,36.89-63.87,62.6-141.64,74.36-224.91,31.65-224.11-43.12-422.95-200-531.91-113.81-79-275.25-114.38-442.92-97C2609.22-152.71,2525.26-129.27,2454.6-95.17Z" transform="translate(318.82 180.28)"/></g></g></svg>