<svg xmlns="http://www.w3.org/2000/svg" viewBox="0 0 118.84 118.82"><path d="M16.9,8.37c.51-3.49-1.2-8,4.35-8.33,3-.17,3.72,1.39,4.22,8.13H42.34c0-1.2-.06-2.45,0-3.7C42.51,1.71,44.26,0,46.74,0s4.12,1.76,4.2,4.6c0,1.12,0,2.25,0,3.57h17c0-1.27-.06-2.6,0-3.93A4.1,4.1,0,0,1,72,0a4.21,4.21,0,0,1,4.46,3.86,37.63,37.63,0,0,1,0,4.39h17c0-1.17,0-2.34,0-3.51C93.53,1.65,95,0,97.7,0s4.08,1.74,4.11,4.84V8.37h7.49c6.18,0,9.53,3.34,9.53,9.56q0,45.71,0,91.41c0,6.3-3.19,9.47-9.53,9.47H9.42c-6.18,0-9.41-3.2-9.41-9.35Q0,63.64,0,17.81C0,11.75,3.4,8.39,9.42,8.37Zm93.45,34.16H8.58v67.75H110.35ZM51.13,17c-.66,2.2-1.65,3.89-4.07,4.05S43.33,20,42.49,17.9A1.87,1.87,0,0,0,41,17.06c-5.15-.06-10.3,0-15.47,0-.58,2.35-1.72,4-4.21,4.06-2.74.1-3.92-1.71-4.58-3.89H8.59V33.85H110.3V17.12H102c-.54,2.23-1.64,3.79-4,4-2.85.2-4.09-1.67-4.78-4.06-5.15,0-10.15-.06-15.14.07-.67,0-1.31,1-2,1.45-1.25.87-2.51,2.34-3.79,2.38s-2.66-1.3-3.87-2.2c-.43-.31-.51-1.1-.76-1.7H51.13Z"/><path d="M42.9,73.71a11.29,11.29,0,0,1,2.53-1.38A4.06,4.06,0,0,1,50.1,74a3.72,3.72,0,0,1-.17,4.91c-3,3.18-6,6.28-9.21,9.23-1.72,1.59-3.9,1.39-5.68-.3q-4.28-4.1-8.37-8.38a4.1,4.1,0,0,1-.11-6c1.64-1.68,4.06-1.68,6.07,0,.36.29.69.6,1.24,1.08.94-8.2,4.5-14.6,11.07-19.21C60.15,44.6,81.61,53.8,84.36,72.17,86.51,86.6,77.46,99.25,63,101.61a24.29,24.29,0,0,1-15-2.34c-2.73-1.38-3.77-3.75-2.65-6.1s3.6-3,6.37-1.67C59.3,95,67.16,93.43,72.47,87.24a16.7,16.7,0,0,0,1.75-19A17,17,0,0,0,42.82,73,2.92,2.92,0,0,0,42.9,73.71Z"/></svg>