<svg xmlns="http://www.w3.org/2000/svg" viewBox="0 0 256.06 208.39"><defs><style>.a{fill:#6c6d71;}</style></defs><path class="a" d="M256,64.6c0-18.09-11.87-30-30.06-30.15-9.32-.09-18.65,0-28,0-1.59,0-3.18-.17-5-.28,0-3.66.11-6.82,0-10-.54-13.45-11-24-24.49-24q-40.49-.25-81,0C74,.23,63.61,10.84,63.12,24.33c-.11,3.13,0,6.27,0,10.13-11.53,0-22.34-.09-33.15,0C11.83,34.65,0,46.59,0,64.74q0,56.73,0,113.45c0,18.29,11.7,30.15,29.87,30.17q98.21.06,196.42,0c17.9,0,29.7-11.9,29.72-29.8Q256.09,121.58,256,64.6ZM127.7,184a62.47,62.47,0,1,1,62.76-62.47C190.35,156.13,162,184.34,127.7,184Z"/><path class="a" d="M128.13,80.21a41.29,41.29,0,1,0,41.09,41.5A41.2,41.2,0,0,0,128.13,80.21Z"/></svg>