<svg xmlns="http://www.w3.org/2000/svg" viewBox="0 0 38.5 32.34"><defs><style>.a{fill:#ed1945;}</style></defs><path class="a" d="M4.63,10.39a13.51,13.51,0,0,0,3.56,5.18c2.38,2,5,1.77,7-.67a17,17,0,0,0,2.89-6.43c.08-.28.13-.57.19-.84C15.9,6.39,15,4.81,15.53,2.85A3.85,3.85,0,0,1,23,3c.43,2-.47,3.53-2.76,4.65a17.68,17.68,0,0,0,2.53,6.48A8.92,8.92,0,0,0,24.56,16a3.88,3.88,0,0,0,4.55.34,10.49,10.49,0,0,0,4.15-4.69c.22-.4.39-.82.52-1.09a11.42,11.42,0,0,1-1.29-2.13,3,3,0,0,1,2-3.72,3.08,3.08,0,0,1,3.82,2,3,3,0,0,1-1.92,3.79,1,1,0,0,0-.82,1q-1.34,7.11-2.74,14.21a.74.74,0,0,1-.53.43,13.71,13.71,0,0,1-1.57,0q-12.14,0-24.25,0c-.6,0-.86-.11-1-.77-.85-4.68-1.77-9.35-2.67-14a.87.87,0,0,0-.72-.82A3,3,0,0,1,0,7.59,3.06,3.06,0,0,1,2.4,4.71a3,3,0,0,1,3.36,1.5,3,3,0,0,1-.57,3.7Z"/><path class="a" d="M19.3,27.73c4.07,0,8.13,0,12.2,0a2.26,2.26,0,0,1,2.22,3.09,2.18,2.18,0,0,1-1.82,1.46,7.37,7.37,0,0,1-.82.05H7.45a4.2,4.2,0,0,1-1.28-.16,2.28,2.28,0,0,1,.73-4.44c4.14,0,8.27,0,12.4,0Z"/></svg>