<svg xmlns="http://www.w3.org/2000/svg" xmlns:xlink="http://www.w3.org/1999/xlink" viewBox="0 0 7337.5 3619.73"><defs><style>.a,.ev,.fg,.fh,.n{fill:none;}.b{isolation:isolate;}.c{clip-path:url(#a);}.d{fill:url(#b);}.e{fill:#153f49;}.f,.g{mix-blend-mode:multiply;}.f,.fj,.g{opacity:0.3;}.f{fill:url(#c);}.g{fill:url(#d);}.h{opacity:0.28;}.i{clip-path:url(#e);}.j{fill:#ecf7fe;}.k{fill:#cde2f5;}.l{fill:url(#f);}.m{fill:#bad3ee;}.n{stroke:#bad3ee;}.ev,.n{stroke-linecap:round;stroke-linejoin:round;}.o{fill:url(#g);}.p{fill:url(#h);}.q{fill:url(#i);}.r{fill:url(#j);}.s{fill:url(#k);}.t{fill:url(#l);}.u{fill:url(#m);}.v{fill:url(#n);}.w{fill:url(#o);}.x{fill:url(#p);}.y{fill:url(#q);}.z{fill:url(#r);}.aa{fill:url(#s);}.ab{fill:url(#t);}.ac{fill:url(#u);}.ad{fill:url(#v);}.ae{fill:url(#w);}.af{fill:url(#x);}.ag{fill:url(#y);}.ah{fill:url(#z);}.ai{fill:url(#aa);}.aj{fill:url(#ab);}.ak{fill:url(#ac);}.al{fill:url(#ad);}.am{fill:url(#ae);}.an{fill:url(#af);}.ao{fill:url(#ag);}.ap{fill:url(#ah);}.aq{fill:url(#ai);}.ar{fill:url(#aj);}.as{fill:url(#ak);}.at{fill:url(#al);}.au{fill:url(#am);}.av{fill:url(#an);}.aw{fill:url(#ao);}.ax{fill:url(#ap);}.ay{fill:url(#aq);}.az{fill:url(#ar);}.ba{fill:url(#as);}.bb{fill:url(#at);}.bc{fill:url(#au);}.bd{fill:url(#av);}.be{fill:url(#aw);}.bf{fill:url(#ax);}.bg{fill:url(#ay);}.bh{fill:url(#az);}.bi{fill:url(#ba);}.bj{fill:url(#bb);}.bk{fill:url(#bc);}.bl{fill:url(#bd);}.bm{fill:url(#be);}.bn{fill:url(#bf);}.bo{fill:url(#bg);}.bp{fill:url(#bh);}.bq{fill:url(#bi);}.br{fill:url(#bj);}.bs{fill:url(#bk);}.bt{fill:url(#bl);}.bu{fill:url(#bm);}.bv{fill:url(#bn);}.bw{fill:url(#bo);}.bx{fill:url(#bp);}.by{fill:url(#bq);}.bz{fill:url(#br);}.ca{fill:url(#bs);}.cb{fill:url(#bt);}.cc{fill:url(#bu);}.cd{fill:url(#bv);}.ce{fill:url(#bw);}.cf{fill:url(#bx);}.cg{fill:url(#by);}.ch{fill:url(#bz);}.ci{fill:url(#ca);}.cj{fill:url(#cb);}.ck{fill:url(#cc);}.cl{fill:url(#cd);}.cm{fill:url(#ce);}.cn{fill:url(#cf);}.co{fill:url(#cg);}.cp{fill:url(#ch);}.cq{fill:url(#ci);}.cr{fill:url(#cj);}.cs{fill:url(#ck);}.ct{fill:url(#cl);}.cu{fill:url(#cm);}.cv{fill:url(#cn);}.cw{fill:url(#co);}.cx{fill:url(#cp);}.cy{fill:url(#cq);}.cz{fill:url(#cr);}.da{fill:url(#cs);}.db{fill:url(#ct);}.dc{fill:url(#cu);}.dd{fill:url(#cv);}.de{fill:url(#cw);}.df{fill:url(#cx);}.dg{fill:url(#cy);}.dh{fill:url(#cz);}.di{fill:url(#da);}.dj{fill:url(#db);}.dk{fill:url(#dc);}.dl{fill:url(#dd);}.dm{fill:url(#de);}.dn{fill:url(#df);}.do{fill:url(#dg);}.dp{fill:url(#dh);}.dq{fill:url(#di);}.dr{fill:url(#dj);}.ds{fill:url(#dk);}.dt{fill:url(#dl);}.du{fill:url(#dm);}.dv{fill:url(#dn);}.dw{fill:url(#do);}.dx{fill:url(#dp);}.dy{fill:url(#dq);}.dz{fill:url(#dr);}.ea{fill:url(#ds);}.eb{fill:url(#dt);}.ec{fill:url(#du);}.ed{fill:url(#dv);}.ee{fill:url(#dw);}.ef{fill:url(#dx);}.eg{fill:url(#dy);}.eh{fill:url(#dz);}.ei{fill:url(#ea);}.ej{fill:url(#eb);}.ek{fill:url(#ec);}.el{fill:url(#ed);}.em{fill:url(#ee);}.en{fill:url(#ef);}.eo{fill:url(#eg);}.ep{fill:url(#eh);}.eq{fill:url(#ei);}.er{fill:url(#ej);}.es{fill:#394a9f;}.et{fill:#5364ae;}.eu{fill:#2a2f4a;}.ev{stroke:#fff;stroke-width:1.45px;}.ew{fill:#f8b989;}.ex{fill:#3d3d3d;}.ey,.fi{fill:#fff;}.ez{fill:#868889;}.fa{fill:#010101;}.fb{fill:#d2d2d2;}.fc{fill:#f9d9cd;}.fd{fill:#93c94a;}.fe{fill:#13363a;}.ff{fill:#174951;}.fg{stroke:#4a5386;}.fg,.fh{stroke-miterlimit:10;}.fh{stroke:#2a2f4a;stroke-width:1.02px;}.fi{font-size:118.02px;font-family:SegoeUI-Bold, Segoe UI;font-weight:700;}.fj{mix-blend-mode:screen;fill:url(#ek);}.fk{fill:url(#el);}</style><clipPath id="a" transform="translate(4112.07 -1)"><rect class="a" width="1442.57" height="1778.14"/></clipPath><linearGradient id="b" x1="4105.5" y1="883.14" x2="7332.5" y2="883.14" gradientUnits="userSpaceOnUse"><stop offset="0" stop-color="#86d3e4"/><stop offset="0" stop-color="#fff"/><stop offset="1" stop-color="#86d3e4"/></linearGradient><linearGradient id="c" x1="-4.57" y1="718.44" x2="3210.43" y2="718.44" gradientUnits="userSpaceOnUse"><stop offset="0" stop-color="#2a3b8f"/><stop offset="1" stop-color="#28a8e0"/></linearGradient><linearGradient id="d" x1="1246.57" y1="901.14" x2="3215.43" y2="901.14" xlink:href="#c"/><clipPath id="e" transform="translate(4112.07 -1)"><rect class="a" x="80.71" y="-415.55" width="1332.4" height="2787.21"/></clipPath><linearGradient id="f" x1="4373.66" y1="185.46" x2="4755.41" y2="1863.44" gradientUnits="userSpaceOnUse"><stop offset="0.13" stop-color="#bad3ee" stop-opacity="0.3"/><stop offset="0.15" stop-color="#bed6ef" stop-opacity="0.28"/><stop offset="0.29" stop-color="#dbe8f6" stop-opacity="0.16"/><stop offset="0.42" stop-color="#eff5fb" stop-opacity="0.07"/><stop offset="0.56" stop-color="#fbfcfe" stop-opacity="0.02"/><stop offset="0.68" stop-color="#fff" stop-opacity="0"/></linearGradient><linearGradient id="g" x1="4672.31" y1="607.19" x2="3266.02" y2="1261.18" gradientUnits="userSpaceOnUse"><stop offset="0" stop-color="#8ab6e1"/><stop offset="0.41" stop-color="#6294ce"/><stop offset="0.75" stop-color="#4d89c8"/><stop offset="0.84" stop-color="#4c7ec0"/><stop offset="1" stop-color="#4963aa"/></linearGradient><linearGradient id="h" x1="8687.64" y1="-1303.85" x2="3340.71" y2="1182.72" xlink:href="#g"/><linearGradient id="i" x1="8780.02" y1="-1259.37" x2="3433.09" y2="1227.2" xlink:href="#g"/><linearGradient id="j" x1="5305.89" y1="375.19" x2="3289.12" y2="1313.08" xlink:href="#g"/><linearGradient id="k" x1="8590.06" y1="-1213.67" x2="3243.16" y2="1272.88" xlink:href="#g"/><linearGradient id="l" x1="8682.44" y1="-1133.49" x2="3335.54" y2="1353.06" xlink:href="#g"/><linearGradient id="m" x1="6994.01" y1="-404.12" x2="3220.49" y2="1350.73" xlink:href="#g"/><linearGradient id="n" x1="8465.11" y1="-1201.18" x2="3118.18" y2="1285.39" xlink:href="#g"/><linearGradient id="o" x1="8557.46" y1="-1018.28" x2="3210.56" y2="1468.28" xlink:href="#g"/><linearGradient id="p" x1="6366.87" y1="-16.67" x2="3262.75" y2="1426.89" xlink:href="#g"/><linearGradient id="q" x1="8449.01" y1="-1078.32" x2="3102.09" y2="1408.25" xlink:href="#g"/><linearGradient id="r" x1="8541.39" y1="-934.56" x2="3194.47" y2="1552" xlink:href="#g"/><linearGradient id="s" x1="5346.87" y1="380.52" x2="3330.08" y2="1318.41" xlink:href="#g"/><linearGradient id="t" x1="8371.26" y1="-1087.53" x2="3024.33" y2="1399.03" xlink:href="#g"/><linearGradient id="u" x1="8463.61" y1="-1007.35" x2="3116.72" y2="1479.21" xlink:href="#g"/><linearGradient id="v" x1="6160.32" y1="61.13" x2="3214.38" y2="1431.13" xlink:href="#g"/><linearGradient id="w" x1="8238.8" y1="-994.19" x2="2891.91" y2="1492.36" xlink:href="#g"/><linearGradient id="x" x1="8331.21" y1="-859.7" x2="2984.28" y2="1626.87" xlink:href="#g"/><linearGradient id="y" x1="6741.83" y1="-305.69" x2="3070.47" y2="1401.66" xlink:href="#g"/><linearGradient id="z" x1="8120.62" y1="-1056.84" x2="2773.72" y2="1429.72" xlink:href="#g"/><linearGradient id="aa" x1="8213.02" y1="-879.93" x2="2866.1" y2="1606.64" xlink:href="#g"/><linearGradient id="ab" x1="7348.4" y1="-598.31" x2="2907.33" y2="1466.99" xlink:href="#g"/><linearGradient id="ac" x1="8049.3" y1="-1056.71" x2="2702.41" y2="1429.85" xlink:href="#g"/><linearGradient id="ad" x1="8141.71" y1="-834.79" x2="2794.78" y2="1651.77" xlink:href="#g"/><linearGradient id="ae" x1="5005.86" y1="477.27" x2="3416.54" y2="1216.37" xlink:href="#g"/><linearGradient id="af" x1="7924.94" y1="-929.31" x2="2578.05" y2="1557.24" xlink:href="#g"/><linearGradient id="ag" x1="8017.35" y1="-874.14" x2="2670.42" y2="1612.43" xlink:href="#g"/><linearGradient id="ah" x1="5644.01" y1="212.49" x2="3250.14" y2="1325.74" xlink:href="#g"/><linearGradient id="ai" x1="7850.66" y1="-886.3" x2="2503.73" y2="1600.27" xlink:href="#g"/><linearGradient id="aj" x1="7943.04" y1="-784.08" x2="2596.11" y2="1702.49" xlink:href="#g"/><linearGradient id="ak" x1="7321.4" y1="-642.37" x2="2638.22" y2="1535.53" xlink:href="#g"/><linearGradient id="al" x1="7762.39" y1="-986.97" x2="2415.49" y2="1499.58" xlink:href="#g"/><linearGradient id="am" x1="7854.79" y1="-750.9" x2="2507.86" y2="1735.67" xlink:href="#g"/><linearGradient id="an" x1="6470.24" y1="-105.96" x2="2985.64" y2="1514.54" xlink:href="#g"/><linearGradient id="ao" x1="7771" y1="-815.35" x2="2424.08" y2="1671.21" xlink:href="#g"/><linearGradient id="ap" x1="7863.36" y1="-649.34" x2="2516.47" y2="1837.21" xlink:href="#g"/><linearGradient id="aq" x1="5374.66" y1="379.87" x2="3390.9" y2="1302.41" xlink:href="#g"/><linearGradient id="ar" x1="7631.76" y1="-730.39" x2="2284.86" y2="1756.16" xlink:href="#g"/><linearGradient id="as" x1="7724.14" y1="-652.14" x2="2377.24" y2="1834.41" xlink:href="#g"/><linearGradient id="at" x1="5376.43" y1="341.03" x2="3375.86" y2="1271.39" xlink:href="#g"/><linearGradient id="au" x1="7495.18" y1="-705.38" x2="2148.25" y2="1781.19" xlink:href="#g"/><linearGradient id="av" x1="7587.56" y1="-626.15" x2="2240.63" y2="1860.42" xlink:href="#g"/><linearGradient id="aw" x1="6355.57" y1="-178.74" x2="2733.81" y2="1505.55" xlink:href="#g"/><linearGradient id="ax" x1="7360.8" y1="-754.7" x2="2013.87" y2="1731.86" xlink:href="#g"/><linearGradient id="ay" x1="7453.16" y1="-580.68" x2="2106.26" y2="1905.88" xlink:href="#g"/><linearGradient id="az" x1="5821.52" y1="33.75" x2="3050.98" y2="1322.18" xlink:href="#g"/><linearGradient id="ba" x1="7269.86" y1="-723.4" x2="1922.97" y2="1763.15" xlink:href="#g"/><linearGradient id="bb" x1="7362.26" y1="-599.16" x2="2015.33" y2="1887.41" xlink:href="#g"/><linearGradient id="bc" x1="5217.33" y1="389.41" x2="3572.72" y2="1154.23" xlink:href="#g"/><linearGradient id="bd" x1="7280.23" y1="-620.63" x2="1933.31" y2="1865.94" xlink:href="#g"/><linearGradient id="be" x1="7372.59" y1="-562.2" x2="2025.7" y2="1924.35" xlink:href="#g"/><linearGradient id="bf" x1="5294.52" y1="452.06" x2="3594.23" y2="1242.78" xlink:href="#g"/><linearGradient id="bg" x1="7281.47" y1="-524.27" x2="1934.55" y2="1962.29" xlink:href="#g"/><linearGradient id="bh" x1="7373.85" y1="-462.6" x2="2026.93" y2="2023.96" xlink:href="#g"/><linearGradient id="bi" x1="5371.16" y1="373.14" x2="3536.27" y2="1226.44" xlink:href="#g"/><linearGradient id="bj" x1="7159.59" y1="-514.82" x2="1812.69" y2="1971.74" xlink:href="#g"/><linearGradient id="bk" x1="7251.98" y1="-445.28" x2="1905.06" y2="2041.28" xlink:href="#g"/><linearGradient id="bl" x1="6499.27" y1="-106.45" x2="2512.39" y2="1747.63" xlink:href="#g"/><linearGradient id="bm" x1="7142.34" y1="-524.68" x2="1795.42" y2="1961.89" xlink:href="#g"/><linearGradient id="bn" x1="7234.72" y1="-329.31" x2="1887.8" y2="2157.26" xlink:href="#g"/><linearGradient id="bo" x1="5327.09" y1="435.31" x2="3679.16" y2="1201.67" xlink:href="#g"/><linearGradient id="bp" x1="7036.77" y1="-410.56" x2="1689.88" y2="2075.99" xlink:href="#g"/><linearGradient id="bq" x1="7129.15" y1="-351.95" x2="1782.26" y2="2134.6" xlink:href="#g"/><linearGradient id="br" x1="7246.86" y1="-223.32" x2="1587.3" y2="2408.63" xlink:href="#g"/><linearGradient id="bs" x1="7055.06" y1="-302.19" x2="1708.13" y2="2184.37" xlink:href="#g"/><linearGradient id="bt" x1="7147.42" y1="-9.01" x2="1800.53" y2="2477.54" xlink:href="#g"/><linearGradient id="bu" x1="5467.26" y1="609.58" x2="3739.39" y2="1413.12" xlink:href="#g"/><linearGradient id="bv" x1="7076.22" y1="-191.78" x2="1729.29" y2="2294.78" xlink:href="#g"/><linearGradient id="bw" x1="7168.58" y1="-128.49" x2="1821.69" y2="2358.06" xlink:href="#g"/><linearGradient id="bx" x1="6362.93" y1="178.82" x2="2602.33" y2="1927.67" xlink:href="#g"/><linearGradient id="by" x1="7000.02" y1="-230.01" x2="1653.09" y2="2256.56" xlink:href="#g"/><linearGradient id="bz" x1="7092.38" y1="-47.86" x2="1745.49" y2="2438.69" xlink:href="#g"/><linearGradient id="ca" x1="6072.8" y1="260.81" x2="2850.63" y2="1759.27" xlink:href="#g"/><linearGradient id="cb" x1="6859.83" y1="-202.01" x2="1512.9" y2="2284.56" xlink:href="#g"/><linearGradient id="cc" x1="6952.21" y1="-51.35" x2="1605.28" y2="2435.22" xlink:href="#g"/><linearGradient id="cd" x1="5490.35" y1="472.05" x2="3754.06" y2="1279.5" xlink:href="#g"/><linearGradient id="ce" x1="6723.1" y1="-154.61" x2="1376.18" y2="2331.96" xlink:href="#g"/><linearGradient id="cf" x1="6815.47" y1="-90.83" x2="1468.58" y2="2395.72" xlink:href="#g"/><linearGradient id="cg" x1="6341.19" y1="127.41" x2="2002.23" y2="2145.23" xlink:href="#g"/><linearGradient id="ch" x1="6620.17" y1="-131.78" x2="1273.27" y2="2354.77" xlink:href="#g"/><linearGradient id="ci" x1="6712.56" y1="84.17" x2="1365.63" y2="2570.73" xlink:href="#g"/><linearGradient id="cj" x1="6868.79" y1="-166.97" x2="919.34" y2="2599.79" xlink:href="#g"/><linearGradient id="ck" x1="6634.1" y1="-234.37" x2="1287.2" y2="2252.18" xlink:href="#g"/><linearGradient id="cl" x1="6726.49" y1="75.74" x2="1379.56" y2="2562.31" xlink:href="#g"/><linearGradient id="cm" x1="6108.38" y1="336.89" x2="2632.75" y2="1953.22" xlink:href="#g"/><linearGradient id="cn" x1="6619.47" y1="-5.01" x2="1272.54" y2="2481.56" xlink:href="#g"/><linearGradient id="co" x1="6711.85" y1="160.47" x2="1364.92" y2="2647.04" xlink:href="#g"/><linearGradient id="cp" x1="5599.25" y1="565.47" x2="3836.98" y2="1385" xlink:href="#g"/><linearGradient id="cq" x1="6487.8" y1="98.12" x2="1140.87" y2="2584.69" xlink:href="#g"/><linearGradient id="cr" x1="6580.18" y1="163.42" x2="1233.25" y2="2649.98" xlink:href="#g"/><linearGradient id="cs" x1="5558.68" y1="591.34" x2="3978.92" y2="1326" xlink:href="#g"/><linearGradient id="ct" x1="6350.12" y1="174.49" x2="1003.2" y2="2661.06" xlink:href="#g"/><linearGradient id="cu" x1="6442.5" y1="229.11" x2="1095.58" y2="2715.68" xlink:href="#g"/><linearGradient id="cv" x1="5994.44" y1="264.86" x2="2117.34" y2="2067.89" xlink:href="#g"/><linearGradient id="cw" x1="6222.16" y1="43" x2="875.23" y2="2529.57" xlink:href="#g"/><linearGradient id="cx" x1="6314.54" y1="231.95" x2="967.61" y2="2718.52" xlink:href="#g"/><linearGradient id="cy" x1="5851.36" y1="476.65" x2="2871.68" y2="1862.34" xlink:href="#g"/><linearGradient id="cz" x1="6213.01" y1="218.75" x2="866.11" y2="2705.3" xlink:href="#g"/><linearGradient id="da" x1="6305.39" y1="355.22" x2="958.47" y2="2841.79" xlink:href="#g"/><linearGradient id="db" x1="6081.7" y1="452.87" x2="1592.37" y2="2540.62" xlink:href="#g"/><linearGradient id="dc" x1="6164.95" y1="280.3" x2="818.03" y2="2766.87" xlink:href="#g"/><linearGradient id="dd" x1="6257.34" y1="505.05" x2="910.41" y2="2991.61" xlink:href="#g"/><linearGradient id="de" x1="5670.82" y1="635" x2="4101.45" y2="1364.83" xlink:href="#g"/><linearGradient id="df" x1="6107.51" y1="383.43" x2="760.58" y2="2870" xlink:href="#g"/><linearGradient id="dg" x1="6199.88" y1="437.45" x2="852.99" y2="2924" xlink:href="#g"/><linearGradient id="dh" x1="5851.08" y1="426.31" x2="2329.69" y2="2063.92" xlink:href="#g"/><linearGradient id="di" x1="5968.07" y1="266.35" x2="621.15" y2="2752.91" xlink:href="#g"/><linearGradient id="dj" x1="6060.45" y1="434.5" x2="713.55" y2="2921.05" xlink:href="#g"/><linearGradient id="dk" x1="5698.94" y1="557.28" x2="4146.93" y2="1279.03" xlink:href="#g"/><linearGradient id="dl" x1="5888.78" y1="421.01" x2="541.86" y2="2907.57" xlink:href="#g"/><linearGradient id="dm" x1="5981.16" y1="474.01" x2="634.27" y2="2960.56" xlink:href="#g"/><linearGradient id="dn" x1="5818.15" y1="601.99" x2="1345.18" y2="2682.12" xlink:href="#g"/><linearGradient id="do" x1="5801.19" y1="476.5" x2="454.27" y2="2963.06" xlink:href="#g"/><linearGradient id="dp" x1="5893.58" y1="700.29" x2="546.65" y2="3186.85" xlink:href="#g"/><linearGradient id="dq" x1="5730.88" y1="518.66" x2="3826.23" y2="1404.41" xlink:href="#g"/><linearGradient id="dr" x1="5677.96" y1="484.98" x2="331.03" y2="2971.55" xlink:href="#g"/><linearGradient id="ds" x1="5770.34" y1="558.6" x2="423.41" y2="3045.17" xlink:href="#g"/><linearGradient id="dt" x1="5755.63" y1="487.42" x2="4286.75" y2="1170.51" xlink:href="#g"/><linearGradient id="du" x1="5590.44" y1="518.68" x2="243.52" y2="3005.25" xlink:href="#g"/><linearGradient id="dv" x1="5682.82" y1="566.82" x2="335.9" y2="3053.39" xlink:href="#g"/><linearGradient id="dw" x1="5608.14" y1="480.31" x2="1813.48" y2="2245" xlink:href="#g"/><linearGradient id="dx" x1="5456.14" y1="437.45" x2="109.25" y2="2924" xlink:href="#g"/><linearGradient id="dy" x1="5548.52" y1="621.58" x2="201.6" y2="3108.15" xlink:href="#g"/><linearGradient id="dz" x1="5749.76" y1="397.67" x2="3957.57" y2="1231.12" xlink:href="#g"/><linearGradient id="ea" x1="5340.32" y1="533.08" x2="-6.61" y2="3019.64" xlink:href="#g"/><linearGradient id="eb" x1="5432.7" y1="600.12" x2="85.77" y2="3086.69" xlink:href="#g"/><linearGradient id="ec" x1="3387.88" y1="1654.33" x2="3387.88" y2="1788.93" gradientUnits="userSpaceOnUse"><stop offset="0.01" stop-color="#fff" stop-opacity="0"/><stop offset="0.07" stop-color="#f7fafd" stop-opacity="0.1"/><stop offset="0.24" stop-color="#e4eef8" stop-opacity="0.31"/><stop offset="0.41" stop-color="#d5e4f5" stop-opacity="0.48"/><stop offset="0.58" stop-color="#c9ddf2" stop-opacity="0.62"/><stop offset="0.73" stop-color="#c1d7f0" stop-opacity="0.72"/><stop offset="0.88" stop-color="#bcd4ee" stop-opacity="0.78"/><stop offset="1" stop-color="#bad3ee" stop-opacity="0.8"/></linearGradient><linearGradient id="ed" x1="3718.61" y1="1492.32" x2="3718.61" y2="1795.24" xlink:href="#ec"/><linearGradient id="ee" x1="4049.35" y1="1344.56" x2="4049.35" y2="1800.99" xlink:href="#ec"/><linearGradient id="ef" x1="4380.08" y1="1459.93" x2="4380.08" y2="1796.5" xlink:href="#ec"/><linearGradient id="eg" x1="4710.81" y1="1654.33" x2="4710.81" y2="1788.93" xlink:href="#ec"/><linearGradient id="eh" x1="5041.54" y1="1237.78" x2="5041.54" y2="1805.15" xlink:href="#ec"/><linearGradient id="ei" x1="5372.28" y1="1422.29" x2="5372.28" y2="1797.97" xlink:href="#ec"/><linearGradient id="ej" x1="5734.6" y1="965.29" x2="5734.6" y2="1815.77" xlink:href="#ec"/><linearGradient id="ek" x1="-4112.07" y1="2908.29" x2="-897.07" y2="2908.29" xlink:href="#c"/><linearGradient id="el" x1="4077.36" y1="1597.79" x2="5708.93" y2="1597.79" gradientUnits="userSpaceOnUse"><stop offset="0" stop-color="#3f97a5"/><stop offset="1" stop-color="#153f49"/></linearGradient></defs><g class="b"><g class="c"><rect class="d" x="4105.5" y="3.29" width="3227" height="1759.71"/><rect class="e" x="4103.5" width="3234" height="1777"/><path class="f" d="M3210.43,6V465.67C1320.52,28,353.88,954.37-4.57,1430.89V6Z" transform="translate(4112.07 -1)"/><path class="g" d="M3215.43,21.29V1781H1246.57C1422.17,474.2,3215.43,21.29,3215.43,21.29Z" transform="translate(4112.07 -1)"/><g class="h"><g class="i"><rect class="j" x="3210.36" y="907.21" width="25.04" height="48.32"/><rect class="j" x="3221.03" y="848.14" width="3.7" height="59.06"/><rect class="j" x="3221.03" y="955.53" width="3.7" height="59.06"/><rect class="j" x="3276.46" y="912.11" width="25.04" height="124.77"/><rect class="j" x="3287.13" y="853.05" width="3.7" height="59.06"/><rect class="j" x="3287.13" y="1036.88" width="3.7" height="59.06"/><rect class="j" x="3346.67" y="897.61" width="25.04" height="36.19"/><rect class="j" x="3357.34" y="838.55" width="3.7" height="59.06"/><rect class="j" x="3357.34" y="933.8" width="3.7" height="59.06"/><rect class="j" x="3408.65" y="948.78" width="25.04" height="162.83"/><rect class="j" x="3419.32" y="889.71" width="3.7" height="59.06"/><rect class="j" x="3419.32" y="1111.61" width="3.7" height="59.06"/><rect class="j" x="3474.75" y="1014.59" width="25.04" height="60.95"/><rect class="j" x="3485.42" y="955.53" width="3.7" height="59.06"/><rect class="j" x="3485.42" y="1075.55" width="3.7" height="59.06"/><rect class="j" x="3544.03" y="941.36" width="25.04" height="115.69"/><rect class="j" x="3554.7" y="882.3" width="3.7" height="59.06"/><rect class="j" x="3554.7" y="1057.05" width="3.7" height="59.06"/><rect class="j" x="3606.95" y="760.59" width="25.04" height="145.18"/><rect class="j" x="3617.62" y="701.53" width="3.7" height="59.06"/><rect class="j" x="3617.62" y="905.78" width="3.7" height="59.06"/><rect class="j" x="3673.04" y="811.46" width="25.04" height="36.08"/><rect class="j" x="3683.71" y="752.4" width="3.7" height="59.06"/><rect class="j" x="3683.71" y="847.54" width="3.7" height="59.06"/><rect class="j" x="3739.14" y="752.4" width="25.04" height="145.56"/><rect class="j" x="3749.81" y="693.33" width="3.7" height="59.06"/><rect class="j" x="3749.81" y="897.96" width="3.7" height="59.06"/><rect class="j" x="3805.24" y="734.2" width="25.04" height="134.22"/><rect class="j" x="3815.91" y="675.14" width="3.7" height="59.06"/><rect class="j" x="3815.91" y="868.43" width="3.7" height="59.06"/><rect class="j" x="3871.34" y="659.81" width="25.04" height="37.27"/><rect class="j" x="3882.01" y="600.74" width="3.7" height="59.06"/><rect class="j" x="3882.01" y="697.08" width="3.7" height="59.06"/><rect class="j" x="3937.44" y="849.89" width="25.04" height="86.12"/><rect class="j" x="3948.11" y="790.83" width="3.7" height="59.06"/><rect class="j" x="3948.11" y="936.01" width="3.7" height="59.06"/><rect class="j" x="4003.53" y="818.31" width="25.04" height="34.73"/><rect class="j" x="4014.2" y="759.25" width="3.7" height="59.06"/><rect class="j" x="4014.2" y="853.05" width="3.7" height="59.06"/><rect class="j" x="4069.63" y="1074.83" width="25.04" height="128.59"/><rect class="j" x="4080.3" y="1015.77" width="3.7" height="59.06"/><rect class="j" x="4080.3" y="1203.43" width="3.7" height="59.06"/><rect class="j" x="4135.73" y="1059.72" width="25.04" height="28.61"/><rect class="j" x="4146.4" y="1000.66" width="3.7" height="59.06"/><rect class="j" x="4146.4" y="1088.34" width="3.7" height="59.06"/><rect class="j" x="4201.83" y="989.64" width="25.04" height="44.38"/><rect class="j" x="4212.5" y="930.58" width="3.7" height="59.06"/><rect class="j" x="4212.5" y="1034.03" width="3.7" height="59.06"/><rect class="j" x="4267.93" y="1048.6" width="25.04" height="44.49"/><rect class="j" x="4278.59" y="989.53" width="3.7" height="59.06"/><rect class="j" x="4278.59" y="1093.09" width="3.7" height="59.06"/><rect class="j" x="4333.64" y="1058.24" width="25.04" height="128.59"/><rect class="j" x="4344.31" y="999.18" width="3.7" height="59.06"/><rect class="j" x="4344.31" y="1186.84" width="3.7" height="59.06"/><rect class="j" x="4400.12" y="1176.42" width="25.04" height="56.59"/><rect class="j" x="4410.79" y="1117.36" width="3.7" height="59.06"/><rect class="j" x="4410.79" y="1233.02" width="3.7" height="59.06"/><rect class="j" x="4466.22" y="1246.38" width="25.04" height="48.53"/><rect class="j" x="4476.89" y="1187.32" width="3.7" height="59.06"/><rect class="j" x="4476.89" y="1294.91" width="3.7" height="59.06"/><rect class="j" x="4532.32" y="1170.22" width="25.04" height="214.11"/><rect class="j" x="4542.99" y="1111.16" width="3.7" height="59.06"/><rect class="j" x="4542.99" y="1384.34" width="3.7" height="59.06"/><rect class="j" x="4599.76" y="1328.48" width="25.04" height="86.12"/><rect class="j" x="4610.43" y="1269.42" width="3.7" height="59.06"/><rect class="j" x="4610.43" y="1414.6" width="3.7" height="59.06"/><rect class="j" x="4664.51" y="1210.12" width="25.04" height="127.28"/><rect class="j" x="4675.18" y="1151.05" width="3.7" height="59.06"/><rect class="j" x="4675.18" y="1337.4" width="3.7" height="59.06"/><rect class="j" x="4730.61" y="1163.9" width="25.04" height="163.09"/><rect class="j" x="4741.28" y="1104.83" width="3.7" height="59.06"/><rect class="j" x="4741.28" y="1326.99" width="3.7" height="59.06"/><rect class="j" x="4797.06" y="1139.68" width="25.04" height="45.94"/><rect class="j" x="4807.73" y="1080.62" width="3.7" height="59.06"/><rect class="j" x="4807.73" y="1185.62" width="3.7" height="59.06"/><rect class="j" x="4862.81" y="1127.4" width="25.04" height="141.59"/><rect class="j" x="4873.48" y="1068.34" width="3.7" height="59.06"/><rect class="j" x="4873.48" y="1268.99" width="3.7" height="59.06"/><rect class="j" x="4928.9" y="1017.65" width="25.04" height="137.84"/><rect class="j" x="4939.57" y="958.59" width="3.7" height="59.06"/><rect class="j" x="4939.57" y="1155.5" width="3.7" height="59.06"/><rect class="j" x="4995" y="1114.22" width="25.04" height="48.03"/><rect class="j" x="5005.67" y="1055.16" width="3.7" height="59.06"/><rect class="j" x="5005.67" y="1162.25" width="3.7" height="59.06"/><rect class="j" x="5061.1" y="1160.1" width="25.04" height="40.98"/><rect class="j" x="5071.77" y="1101.03" width="3.7" height="59.06"/><rect class="j" x="5071.77" y="1201.08" width="3.7" height="59.06"/><rect class="j" x="5127.2" y="1006.09" width="25.04" height="205.46"/><rect class="j" x="5137.87" y="947.03" width="3.7" height="59.06"/><rect class="j" x="5137.87" y="1211.55" width="3.7" height="59.06"/><rect class="j" x="5195.24" y="1109.32" width="25.04" height="36.13"/><rect class="j" x="5205.91" y="1050.26" width="3.7" height="59.06"/><rect class="j" x="5205.91" y="1145.45" width="3.7" height="59.06"/><rect class="j" x="5259.58" y="1057.01" width="25.04" height="36.16"/><rect class="j" x="5270.25" y="997.95" width="3.7" height="59.06"/><rect class="j" x="5270.25" y="1093.17" width="3.7" height="59.06"/><rect class="j" x="5325.49" y="919.25" width="25.04" height="219.88"/><rect class="j" x="5336.16" y="860.19" width="3.7" height="59.06"/><rect class="j" x="5336.16" y="1139.14" width="3.7" height="59.06"/><rect class="j" x="5391.59" y="1020.41" width="25.04" height="58.25"/><rect class="j" x="5402.26" y="961.34" width="3.7" height="59.06"/><rect class="j" x="5402.26" y="1078.66" width="3.7" height="59.06"/><rect class="j" x="5457.69" y="1093.69" width="25.04" height="66.11"/><rect class="j" x="5468.36" y="1034.63" width="3.7" height="59.06"/><rect class="j" x="5468.36" y="1159.8" width="3.7" height="59.06"/><rect class="j" x="5523.9" y="1070.82" width="25.04" height="192.03"/><rect class="j" x="5534.57" y="1011.76" width="3.7" height="59.06"/><rect class="j" x="5534.57" y="1262.85" width="3.7" height="59.06"/><rect class="j" x="5589.88" y="940.87" width="25.04" height="47.24"/><rect class="j" x="5600.55" y="881.8" width="3.7" height="59.06"/><rect class="j" x="5600.55" y="988.1" width="3.7" height="59.06"/><rect class="j" x="5655.98" y="894.3" width="25.04" height="94.95"/><rect class="j" x="5666.65" y="835.23" width="3.7" height="59.06"/><rect class="j" x="5666.65" y="989.25" width="3.7" height="59.06"/><rect class="j" x="5722.08" y="842" width="25.04" height="44.56"/><rect class="j" x="5732.75" y="782.94" width="3.7" height="59.06"/><rect class="j" x="5732.75" y="886.56" width="3.7" height="59.06"/><rect class="j" x="5788.18" y="858.03" width="25.04" height="49.52"/><rect class="j" x="5798.85" y="798.96" width="3.7" height="59.06"/><rect class="j" x="5798.85" y="907.54" width="3.7" height="59.06"/><rect class="j" x="5854.27" y="680.45" width="25.04" height="178.7"/><rect class="j" x="5864.94" y="621.39" width="3.7" height="59.06"/><rect class="j" x="5864.94" y="859.15" width="3.7" height="59.06"/><rect class="j" x="5920.37" y="773.04" width="25.04" height="171.46"/><rect class="j" x="5931.04" y="713.98" width="3.7" height="59.06"/><rect class="j" x="5931.04" y="944.5" width="3.7" height="59.06"/><path class="k" d="M1853.87,1187.6H1850v-3.7h3.84Zm-15-.11c-3.71-.06-7.42-.13-11.14-.23l.09-3.7c3.71.09,7.41.17,11.11.22Zm-22.27-.57c-3.69-.13-7.4-.29-11.11-.46l.17-3.7c3.7.17,7.39.33,11.08.46Zm-22.22-1q-5.54-.32-11.09-.69l.24-3.7c3.7.25,7.38.48,11.06.69Zm-22.19-1.5c-3.68-.29-7.38-.59-11.08-.91l.32-3.69q5.54.48,11,.91Zm-22.16-1.93q-5.52-.54-11.06-1.13l.39-3.68q5.53.58,11,1.12Zm-22.11-2.37q-5.51-.63-11-1.33l.46-3.67q5.51.69,11,1.32Zm-22.06-2.77q-5.51-.74-11-1.53l.53-3.66c3.66.53,7.33,1,11,1.53Zm-22-3.15q-5.49-.84-11-1.73l.58-3.65q5.49.88,11,1.72Zm-22-3.54q-5.46-.93-11-1.91l.65-3.64c3.64.65,7.29,1.28,10.92,1.9Zm-21.89-3.9c-3.63-.68-7.28-1.37-10.92-2.08l.71-3.64c3.64.71,7.26,1.4,10.89,2.08Zm-21.82-4.26q-5.45-1.1-10.89-2.25l.76-3.62q5.45,1.14,10.86,2.24Zm-21.76-4.59q-5.42-1.17-10.85-2.41l.82-3.61q5.41,1.22,10.82,2.41Zm-21.69-4.91q-5.4-1.26-10.81-2.57l.87-3.6q5.4,1.31,10.79,2.57Zm-21.6-5.22q-5.39-1.34-10.78-2.72l.92-3.59q5.38,1.39,10.75,2.72Zm-21.55-5.52q-5.35-1.41-10.73-2.87l1-3.57q5.36,1.46,10.71,2.86Zm-21.45-5.81q-5.34-1.48-10.7-3l1-3.55,10.68,3Zm-21.38-6.08q-5.33-1.55-10.66-3.14l1.05-3.55q5.32,1.59,10.64,3.14Zm-21.31-6.35-10.62-3.27,1.1-3.53q5.31,1.65,10.6,3.26Zm-21.22-6.59q-5.3-1.68-10.59-3.4l1.14-3.52q5.28,1.71,10.57,3.39Zm-21.15-6.85q-5.26-1.74-10.55-3.52l1.18-3.5c3.51,1.17,7,2.35,10.52,3.5Zm-21.08-7.09q-5.25-1.79-10.5-3.62l1.21-3.5,10.49,3.63Zm-21-7.3q-5.23-1.86-10.47-3.74l1.25-3.48q5.24,1.88,10.45,3.73Zm-20.91-7.52q-5.22-1.91-10.43-3.85l1.28-3.47,10.42,3.84Zm-20.84-7.74q-5.19-2-10.39-3.94l1.32-3.45,10.37,3.93Zm-20.77-7.93-10.35-4,1.35-3.45q5.17,2,10.34,4Zm-20.68-8.12-10.32-4.14,1.39-3.43c3.43,1.39,6.87,2.76,10.29,4.13Zm-20.62-8.31-10.27-4.23,1.41-3.42,10.26,4.22Zm-20.54-8.49-10.24-4.31,1.45-3.41q5.12,2.16,10.22,4.3Zm-20.46-8.67q-5.1-2.17-10.21-4.39l1.48-3.4q5.08,2.2,10.19,4.39Zm-20.39-8.83-10.18-4.47,1.5-3.38q5.09,2.25,10.16,4.46Zm-20.33-9-10.14-4.55,1.53-3.38,10.12,4.55Zm-20.26-9.14-10.1-4.63,1.55-3.36q5,2.33,10.09,4.62Zm-20.18-9.3L1147,998.43l1.57-3.36,10.06,4.7Zm-20.12-9.43c-3.34-1.57-6.69-3.17-10-4.76l1.6-3.34,10,4.76Zm-20.06-9.57-10-4.83,1.62-3.33,10,4.83Zm-20-9.7q-5-2.43-10-4.9l1.64-3.32,10,4.89Zm-19.93-9.83-9.94-5,1.66-3.31,9.93,5Zm-19.86-10-9.91-5,1.68-3.29,9.9,5Zm-19.8-10.08-9.88-5.08,1.7-3.29,9.87,5.08Zm-19.74-10.19-9.86-5.14,1.72-3.28,9.84,5.14Zm-19.69-10.3-9.82-5.2,1.73-3.27,9.81,5.19Zm-19.63-10.42-9.79-5.25,1.75-3.26,9.78,5.24Zm-19.58-10.52-9.76-5.29,1.77-3.26,9.75,5.3Zm-19.51-10.61-9.74-5.35,1.79-3.24,9.73,5.34Zm-19.47-10.72-9.71-5.39,1.8-3.24,9.71,5.39ZM900.24,871l-9.68-5.44,1.81-3.22,9.68,5.43Zm-19.35-10.9-9.67-5.48,1.83-3.22,9.66,5.48Zm-19.31-11-9.64-5.52,1.84-3.21,9.63,5.52ZM842.32,838l-9.61-5.57,1.85-3.2,9.61,5.56ZM823.1,826.86l-9.59-5.61,1.88-3.19,9.58,5.6Zm-19.16-11.24L794.37,810l1.89-3.18,9.55,5.64Zm-19.12-11.31-9.54-5.69,1.9-3.18,9.53,5.69Zm-19.07-11.4-9.53-5.72,1.91-3.17,9.52,5.72Zm-19-11.46-9.5-5.76,1.93-3.16,9.49,5.75Zm-19-11.53-9.48-5.79,1.94-3.16,9.47,5.79Zm-19-11.6-9.45-5.83,1.94-3.15,9.45,5.82Zm-18.9-11.67-9.44-5.86,1.95-3.14,9.44,5.85ZM671,734.91,661.59,729l2-3.14,9.41,5.89Zm-18.82-11.79-9.4-5.92,2-3.13,9.4,5.92ZM633.4,711.27,624,705.32l2-3.13,9.38,5.95Zm-18.75-11.91-9.37-6,2-3.12,9.35,6Zm-18.71-12-9.35-6,2-3.11,9.34,6Zm-18.68-12-9.33-6,2-3.11,9.33,6Zm-18.65-12.07-9.31-6.06,2-3.1,9.3,6ZM540,651.16l-9.3-6.09,2-3.09,9.29,6.08ZM521.42,639l-9.28-6.11,2-3.09,9.27,6.11Zm-18.55-12.22-9.26-6.09,2-3.09,9.27,6.09Zm-18.55-12.18L475,608.51l2-3.1,9.29,6.08Zm-18.59-12.13-9.3-6.05,2-3.11,9.32,6.06Zm-18.62-12.08-9.33-6,2-3.12,9.33,6Zm-18.67-12-9.34-6,2-3.12,9.35,6Zm-18.7-12-9.36-6,2-3.12,9.37,6ZM391,554.49l-9.4-5.92,2-3.14,9.39,5.93Zm-18.8-11.82-9.41-5.88,1.95-3.14,9.43,5.88Zm-18.84-11.74-9.44-5.83,1.94-3.15,9.45,5.84Zm-18.9-11.64L325,513.5l1.93-3.16,9.48,5.79Zm-18.95-11.55L306,502l1.91-3.17,9.5,5.74Zm-19-11.45L287,490.6l1.89-3.18,9.54,5.69ZM277.41,485l-9.57-5.63,1.87-3.19,9.58,5.63Zm-19.15-11.22-9.6-5.56,1.85-3.21,9.61,5.57ZM239,462.64q-4.82-2.77-9.64-5.5l1.83-3.22q4.83,2.74,9.65,5.51Zm-19.29-11-9.68-5.43,1.8-3.23,9.69,5.43Zm-19.38-10.82-9.72-5.35,1.78-3.24q4.86,2.66,9.73,5.35ZM180.9,430.2q-4.89-2.65-9.77-5.27l1.76-3.26,9.77,5.28Zm-19.55-10.5-9.81-5.18,1.72-3.28q4.91,2.58,9.82,5.2ZM141.7,409.38q-4.92-2.56-9.85-5.09l1.69-3.3q4.94,2.53,9.87,5.11ZM122,399.24c-3.3-1.68-6.61-3.34-9.9-5l1.66-3.31,9.92,5Zm-19.84-9.95q-5-2.46-9.95-4.9l1.63-3.32q5,2.43,10,4.9ZM82.2,379.55q-5-2.42-10-4.79l1.59-3.34q5,2.38,10,4.8Zm-20-9.52-10.06-4.68L53.66,362q5,2.33,10.08,4.69ZM42,360.73q-5.06-2.3-10.11-4.56l1.51-3.38,10.13,4.57Zm-20.24-9.05q-5.09-2.24-10.17-4.44l1.47-3.4q5.08,2.21,10.18,4.45ZM1.41,342.87q-5.1-2.17-10.22-4.3l1.43-3.42q5.11,2.14,10.24,4.32ZM-19,334.33l-10.28-4.17,1.38-3.43,10.3,4.17Zm-20.59-8.26q-5.16-2-10.33-4l1.33-3.45q5.18,2,10.36,4Zm-20.69-8q-5.19-2-10.39-3.88l1.28-3.47q5.2,1.92,10.42,3.88Zm-20.81-7.68q-5.22-1.89-10.44-3.73l1.23-3.49q5.23,1.85,10.47,3.74ZM-102,303q-5.25-1.82-10.5-3.57l1.18-3.51q5.25,1.77,10.52,3.58Zm-21-7.06q-5.25-1.71-10.51-3.38l1.12-3.53q5.28,1.68,10.54,3.39Zm-21-6.69q-5.28-1.64-10.57-3.22l1.07-3.55q5.3,1.59,10.59,3.23Zm-21.17-6.36q-5.31-1.55-10.63-3.06l1-3.56,10.66,3.06Zm-756.52-2-.84-3.61q5.45-1.26,10.84-2.48l.81,3.61Q-916.39,279.65-921.82,280.91Zm735.23-4q-5.34-1.47-10.69-2.88l.95-3.58q5.37,1.43,10.72,2.89Zm-713.59-.9-.8-3.62,10.86-2.37.78,3.62Zm21.69-4.69-.76-3.62q5.44-1.15,10.87-2.27l.75,3.62Q-873,270.18-878.49,271.32Zm670.5-.08q-5.37-1.38-10.74-2.7l.88-3.59c3.6.88,7.19,1.79,10.77,2.7Zm-648.77-4.4-.72-3.63,10.9-2.16.71,3.64Q-851.3,265.74-856.76,266.84Zm627.25-.91q-5.38-1.28-10.79-2.51l.82-3.61c3.62.82,7.23,1.67,10.83,2.52ZM-835,262.59l-.69-3.63q5.48-1.05,10.93-2l.67,3.64Zm583.85-1.6q-5.42-1.19-10.84-2.33l.76-3.62q5.44,1.14,10.88,2.34Zm-562-2.41-.65-3.65,10.95-1.92.63,3.65Q-807.67,257.59-813.16,258.58Zm540.32-2.15q-5.45-1.1-10.9-2.15l.7-3.63q5.48,1,10.93,2.15ZM-791.3,254.8l-.6-3.65,11-1.8.59,3.65Zm496.64-2.56q-5.46-1-10.94-2l.63-3.65q5.49,1,11,2Zm-474.73-1-.57-3.65q5.51-.85,11-1.67l.55,3.66Q-763.9,250.42-769.39,251.27Zm452.83-2.84q-5.49-.9-11-1.75L-327,243q5.52.85,11,1.76ZM-747.45,248l-.52-3.67q5.52-.78,11-1.54l.5,3.67Q-741.93,247.22-747.45,248Zm408.89-3q-5.47-.8-11-1.55l.5-3.67q5.52.77,11,1.56Zm-386.91,0-.47-3.67q5.52-.72,11-1.39l.45,3.67Q-719.95,244.29-725.47,245Zm22-2.72-.43-3.68q5.53-.65,11-1.25l.4,3.68Q-697.92,241.63-703.45,242.28Zm342.93-.28q-5.49-.7-11-1.36l.44-3.68q5.52.67,11,1.37Zm-320.88-2.16-.38-3.68,11.06-1.11.36,3.69Q-675.86,239.27-681.4,239.84Zm298.86-.47q-5.49-.6-11-1.17l.37-3.68q5.55.57,11.06,1.17Zm-276.78-1.67-.33-3.68q5.55-.51,11.07-1l.31,3.69C-651.94,237.05-655.63,237.37-659.32,237.7Zm254.73-.57q-5.51-.51-11-1l.31-3.69q5.55.47,11.07,1Zm-232.62-1.26-.29-3.69c3.71-.29,7.41-.55,11.09-.81l.26,3.7Q-631.67,235.45-637.21,235.87Zm210.52-.59c-3.67-.28-7.36-.54-11.05-.79l.24-3.69c3.71.25,7.4.51,11.09.79Zm-188.4-.93-.22-3.7c3.71-.22,7.4-.44,11.1-.64l.19,3.7Q-609.54,234-615.09,234.35Zm166.28-.55q-5.52-.31-11.07-.59l.19-3.7q5.56.27,11.1.6Zm-144.13-.65-.17-3.7L-582,229l.14,3.7Q-587.39,232.88-592.94,233.15Zm122-.45q-5.54-.22-11.08-.4l.12-3.7q5.57.18,11.11.41Zm-99.83-.42-.11-3.7c3.71-.11,7.41-.22,11.11-.31l.09,3.71C-563.38,232.06-567.07,232.16-570.78,232.28Zm77.67-.3c-3.69-.09-7.38-.16-11.09-.22l.06-3.71c3.72.06,7.42.14,11.12.23Zm-55.47-.22,0-3.71c3.72-.06,7.44-.1,11.14-.13l0,3.7C-541.16,231.65-544.86,231.7-548.58,231.76Zm33.3-.14q-5.52,0-11.06,0l0-3.71.33,0c3.41,0,7.1,0,10.79,0Z" transform="translate(4112.07 -1)"/><path class="k" d="M-465.79,1431.61q-3.81,0-7.54-.18l.18-3.7c3.62.17,7.3.23,10.95.13l.1,3.7C-463.33,1431.59-464.56,1431.61-465.79,1431.61Zm14.84-.8-.4-3.68c3.6-.38,7.22-.92,10.74-1.6l.7,3.64C-443.53,1429.86-447.25,1430.42-450.95,1430.81Zm-33.56-.31c-3.71-.45-7.44-1-11.07-1.73l.7-3.64c3.55.69,7.19,1.26,10.81,1.69Zm55.49-3.89-1-3.57c3.48-1,7-2.09,10.38-3.34l1.27,3.48C-421.87,1424.46-425.45,1425.61-429,1426.61Zm-77.47-.36c-3.59-1-7.19-2.07-10.69-3.28l1.2-3.5c3.43,1.18,7,2.26,10.46,3.21Zm-21.15-7.27c-3.41-1.44-6.83-3-10.18-4.67l1.64-3.32c3.28,1.63,6.64,3.17,10,4.57Zm119.62,0-1.53-3.37c3.28-1.49,6.57-3.13,9.77-4.88l1.78,3.25C-401.29,1415.72-404.66,1417.4-408,1418.93Zm-139.68-9.88c-3.17-1.82-6.39-3.77-9.55-5.81l2-3.11c3.11,2,6.27,3.92,9.39,5.7Zm159.34-.79-2-3.13c3-1.92,6.09-4,9.07-6.15l2.17,3C-382.15,1404.18-385.26,1406.29-388.36,1408.26ZM-566.49,1397q-4.51-3.24-8.93-6.72l2.29-2.91q4.35,3.43,8.8,6.62Zm196.27-1.77-2.33-2.88c2.77-2.23,5.58-4.63,8.37-7.13l2.47,2.76C-364.54,1390.47-367.41,1392.91-370.22,1395.18Zm-213.83-12q-4.22-3.6-8.34-7.42l2.5-2.72c2.73,2.51,5.47,5,8.25,7.32Zm230.49-2.86-2.59-2.65q3.88-3.81,7.71-7.87l2.69,2.54Q-349.62,1376.41-353.56,1380.28ZM-600.47,1368q-3.94-3.9-7.82-8l2.68-2.56q3.84,4,7.74,7.88Zm262.22-4-2.79-2.44q3.6-4.11,7.12-8.44l2.87,2.34Q-334.62,1359.86-338.25,1364Zm-277.63-12.15q-3.71-4.11-7.37-8.37l2.81-2.41q3.63,4.22,7.31,8.3Zm291.75-5.14-2.94-2.26q3.33-4.34,6.61-8.86l3,2.17Q-320.78,1342.34-324.13,1346.73ZM-630.42,1335q-3.52-4.28-7-8.68l2.9-2.29q3.45,4.37,7,8.62Zm319.39-6.29-3.05-2.1q3.1-4.52,6.16-9.19l3.1,2Q-307.91,1324.11-311,1328.67Zm-333.21-11.19q-3.36-4.41-6.67-8.93l3-2.19q3.3,4.48,6.64,8.88Zm345.43-7.46-3.14-2q2.91-4.65,5.79-9.44l3.17,1.9C-294.91,1303.72-296.86,1306.89-298.81,1310Zm-358.64-10.49c-2.15-3-4.29-6-6.41-9.09l3-2.12q3.18,4.58,6.39,9.06Zm370.11-8.62-3.2-1.85q2.75-4.77,5.46-9.64l3.23,1.8C-283.67,1284.48-285.49,1287.72-287.34,1290.91Zm-382.84-9.65q-3.12-4.59-6.2-9.23l3.08-2.06q3.07,4.63,6.19,9.21Zm393.68-9.81-3.26-1.76q2.61-4.85,5.18-9.8l3.29,1.71Q-273.88,1266.58-276.5,1271.45Zm-406-8.72q-3-4.65-6-9.33l3.11-2q3,4.68,6,9.32Zm416.29-11-3.3-1.67q2.47-4.92,4.94-9.93l3.32,1.63Q-263.72,1246.76-266.22,1251.69ZM-694.55,1244q-3-4.69-5.94-9.4l3.13-2q3,4.71,5.93,9.39Zm438.15-12.32-3.34-1.6q2.39-5,4.73-10l3.36,1.56Q-254,1226.71-256.4,1231.71Zm-450-6.54-5.88-9.45,3.14-2,5.88,9.45ZM-247,1211.53l-3.37-1.53q2.3-5,4.56-10.12l3.38,1.51Q-244.7,1206.5-247,1211.53Zm-471.15-5.26-5.84-9.43,3.15-1.94,5.83,9.43Zm480.21-15.06-3.39-1.48q2.2-5.07,4.4-10.19l3.41,1.46Q-235.71,1186.13-237.93,1191.21Zm-491.9-3.81-5.86-9.44,3.14-2,5.87,9.44Zm500.66-16.64-3.41-1.44q2.15-5.1,4.28-10.24l3.42,1.41C-226.31,1163.93-227.73,1167.36-229.17,1170.76Zm-512.41-2.22q-3-4.72-5.93-9.39l3.13-2q3,4.66,5.93,9.4Zm1431.34-12.35c-2.37,0-4.74,0-7.08-.11l.1-3.7c3.64.12,7.36.14,11,.07l.07,3.7C692.5,1156.18,691.13,1156.19,689.76,1156.19Zm15.25-.56-.28-3.69c3.66-.28,7.33-.65,10.89-1.12l.48,3.67C712.47,1155,708.73,1155.35,705,1155.63Zm-33.5-.14c-3.74-.29-7.48-.68-11.12-1.15l.47-3.67c3.58.46,7.26.84,10.94,1.13Zm55.61-2.78-.7-3.64c3.59-.68,7.19-1.48,10.69-2.37l.91,3.59C734.45,1151.19,730.78,1152,727.12,1152.71Zm-77.78-.08c-3.63-.66-7.31-1.43-10.93-2.28l.85-3.6c3.56.84,7.17,1.59,10.74,2.24Zm-870-2.42-3.43-1.4c1.39-3.41,2.78-6.85,4.17-10.29l3.43,1.38Q-218.56,1145.07-220.65,1150.21Zm-532.83-.42q-3-4.69-6-9.32l3.09-2q3,4.63,6.06,9.34Zm1381.1-2.3c-3.58-1-7.15-2.2-10.63-3.42l1.23-3.5c3.42,1.2,6.93,2.34,10.44,3.37Zm121.12-.26-1.12-3.53c3.46-1.09,6.94-2.31,10.34-3.61l1.32,3.45C755.82,1144.87,752.27,1146.11,748.74,1147.23Zm-142.18-7.15c-3.43-1.41-6.86-2.94-10.2-4.52l1.59-3.35c3.28,1.56,6.65,3.06,10,4.45Zm163-.84-1.53-3.38c3.32-1.5,6.64-3.11,9.86-4.79l1.71,3.29C776.35,1136.07,773,1137.71,769.59,1139.24Zm-1535.23-8q-3.09-4.64-6.21-9.19l3.06-2.09q3.12,4.56,6.23,9.23Zm1352-.71c-3.23-1.74-6.49-3.6-9.69-5.53l1.91-3.17c3.15,1.9,6.36,3.73,9.54,5.44Zm-798.75-.93-3.44-1.37q2-5.15,4.07-10.33l3.45,1.36Zm1001.76-.64-1.89-3.19c3.13-1.84,6.26-3.81,9.3-5.83l2.05,3.08C795.76,1125.05,792.58,1127.05,789.4,1128.93Zm-222.11-10c-3.07-2.06-6.15-4.22-9.15-6.43l2.2-3q4.44,3.27,9,6.34Zm240.72-2.4-2.2-3c2.91-2.14,5.84-4.4,8.71-6.72l2.32,2.87C813.94,1112.11,811,1114.41,808,1116.58Zm-1586.17-3.68c-2.14-3-4.29-6.06-6.44-9l3-2.18q3.24,4.47,6.47,9.07Zm573.92-4-3.46-1.34q2-5.16,4-10.36l3.46,1.32Zm753.53-3.12c-2.88-2.33-5.73-4.71-8.55-7.17l2.43-2.79q4.17,3.63,8.44,7.07Zm276.07-3.21-2.45-2.77q4.11-3.63,8.1-7.46l2.56,2.66Q829.52,1098.86,825.36,1102.53ZM-791.18,1095c-2.24-3-4.5-5.91-6.75-8.78l2.91-2.29q3.4,4.35,6.79,8.84Zm1323.64-3.88q-4.05-3.8-8-7.78l2.62-2.61q3.9,3.93,7.91,7.69Zm-728.74-3-3.46-1.31,3.93-10.39,3.47,1.31Zm1037.76-1-2.66-2.57q3.81-3.93,7.53-8.06l2.74,2.48Q845.34,1083.1,841.48,1087.08Zm-1646.35-9.53q-3.55-4.32-7.14-8.44l2.79-2.43q3.62,4.15,7.21,8.51Zm1321.61-2.29c-2.52-2.7-5-5.47-7.47-8.28l2.78-2.43q3.66,4.17,7.4,8.19Zm339.7-4.74-2.83-2.39q3.54-4.19,7-8.54l2.9,2.29Q860,1066.29,856.44,1070.52Zm-1044.87-3.22-3.47-1.31,3.87-10.35,3.47,1.28Zm-631-6.41q-3.79-4.1-7.65-8l2.62-2.62q3.9,3.92,7.75,8.06ZM502,1058.49q-3.54-4.27-7-8.68l2.91-2.29q3.42,4.37,6.93,8.6Zm368.29-5.43-3-2.22c2.19-2.93,4.37-5.9,6.51-8.93l3,2.14C874.73,1047.1,872.53,1050.11,870.32,1053.06Zm-1051-6.53-3.47-1.28,3.84-10.41,3.47,1.28Zm-654.3-1.24c-2.77-2.55-5.56-5-8.27-7.26l2.36-2.84c2.77,2.3,5.6,4.78,8.42,7.37ZM488.26,1041c-2.21-3-4.4-6-6.57-9l3-2.15q3.23,4.51,6.52,8.93Zm395-6.08-3.06-2.06q3.06-4.56,6.08-9.25l3.12,2Q886.35,1030.3,883.24,1034.88Zm-1735.15-3.65c-3-2.21-6-4.32-9-6.24l2-3.11c3.06,2,6.16,4.11,9.21,6.38Zm678.89-5.54-3.47-1.28,3.83-10.44,3.48,1.27Zm648.33-2.87q-3.13-4.58-6.2-9.26l3.09-2q3.06,4.65,6.16,9.2Zm-1345.64-3.42c-3.26-1.76-6.55-3.38-9.8-4.8l1.48-3.39c3.34,1.46,6.74,3.13,10.08,4.94Zm1765.64-3.26-3.15-1.94q2.88-4.68,5.7-9.48l3.19,1.87Q898.21,1011.42,895.31,1016.14Zm-1785.61-5.42a105.67,105.67,0,0,0-10.47-2.86l.79-3.62a111.16,111.16,0,0,1,10.84,3Zm-21.13-4.59a100,100,0,0,0-10.81-.59v-3.7a105,105,0,0,1,11.21.61Zm746.08-1.35-3.48-1.28L-165,993l3.47,1.27Zm628.43-.58q-3-4.69-5.87-9.46l3.16-1.93q2.89,4.74,5.84,9.41Zm443.54-7.26-3.23-1.82c1.81-3.19,3.59-6.43,5.37-9.69l3.25,1.76Q909.34,992.13,906.62,996.94ZM451.48,985.18q-2.82-4.77-5.59-9.63l3.21-1.83q2.76,4.81,5.57,9.58Zm-609.18-1.32-3.48-1.27,3.82-10.44,3.48,1.28Zm1075-6.49L914,975.65q2.55-4.87,5.07-9.86l3.3,1.67Q919.81,972.46,917.25,977.37ZM440.42,965.86q-2.7-4.86-5.36-9.76l3.26-1.76q2.64,4.89,5.33,9.72ZM-150.06,963l-3.47-1.27,3.83-10.43,3.48,1.27Zm1077.35-5.5L924,955.87q2.41-5,4.79-10l3.35,1.58Q929.72,952.51,927.29,957.49Zm-497.48-11.2q-2.6-4.9-5.15-9.86l3.28-1.7q2.56,4.93,5.15,9.83Zm-572.19-4.15-3.47-1.28,3.86-10.42,3.47,1.28Zm1079.19-4.78-3.36-1.54q2.29-5,4.56-10.11l3.39,1.5Q939.12,932.33,936.81,937.36ZM419.58,926.53q-2.5-5-5-9.95l3.31-1.64c1.65,3.31,3.32,6.62,5,9.92Zm-554.22-5.22-3.47-1.29,3.9-10.41,3.46,1.3ZM945.87,917l-3.4-1.47c1.46-3.38,2.92-6.77,4.36-10.2l3.41,1.43Q948.08,911.94,945.87,917ZM409.66,906.61q-2.45-5-4.87-10l3.33-1.61c1.62,3.33,3.24,6.67,4.86,10Zm-536.48-6.09-3.47-1.31,4-10.39,3.46,1.32Zm1081.34-4-3.42-1.41q2.1-5.11,4.18-10.28l3.43,1.38Q956.64,891.39,954.52,896.52ZM400,886.59q-2.4-5-4.77-10.05l3.34-1.58c1.59,3.35,3.17,6.69,4.77,10Zm-518.87-6.82-3.45-1.33,4-10.37,3.45,1.35Zm1081.71-3.9-3.45-1.35c1.35-3.44,2.68-6.88,4-10.35l3.46,1.32Q964.85,870.71,962.82,875.87Zm-572.36-9.42-4.72-10.09,3.36-1.56,4.71,10.08Zm-501.28-7.37-3.44-1.36q2.06-5.19,4.11-10.33l3.43,1.37C-108.09,852.19-109.45,855.62-110.82,859.08Zm1081.61-4-3.47-1.31q1.95-5.17,3.88-10.4l3.47,1.28Q972.75,849.91,970.79,855.1Zm-589.74-8.82-4.66-10.08,3.36-1.55,4.66,10.07Zm-483.62-7.82-3.43-1.39q2.1-5.18,4.21-10.29l3.42,1.41Q-100.47,833.29-102.57,838.46Zm1081.06-4.23L975,833q1.88-5.21,3.75-10.45l3.48,1.24Q980.39,829,978.49,834.23Zm-606.76-8.08-4.67-10.09,3.36-1.55,4.67,10.08Zm-465.84-8.22-3.42-1.43q2.16-5.14,4.33-10.25l3.4,1.45Q-92,812.79-94.11,817.93ZM986,813.28l-3.49-1.23q1.83-5.22,3.65-10.49l3.5,1.21C988.39,806.28,987.18,809.78,986,813.28ZM362.38,806l-4.7-10.07,3.35-1.57,4.7,10.08Zm-447.79-8.48-3.4-1.48q2.24-5.12,4.47-10.18l3.38,1.49Q-83.19,792.4-85.41,797.51Zm1078.62-5.26-3.51-1.19q1.78-5.25,3.56-10.52l3.51,1.17Q995,787,993.21,792.25Zm-640.27-6.38q-2.37-5-4.76-10l3.34-1.59q2.39,5,4.77,10Zm-429.36-8.66-3.38-1.52q2.31-5.1,4.64-10.12l3.35,1.56C-73.35,770.46-74.89,773.83-76.42,777.21Zm1076.7-6L996.77,770q1.74-5.26,3.47-10.54l3.52,1.14Q1002,765.9,1000.28,771.17Zm-656.92-5.33c-1.61-3.35-3.24-6.67-4.86-10l3.32-1.64q2.44,5,4.88,10Zm-410.45-8.76-3.35-1.58q2.4-5.07,4.83-10l3.32,1.63Q-64.7,752-67.09,757.08Zm1074.3-7-3.52-1.14,3.4-10.53,3.52,1.13Zm-673.64-4.12q-2.51-5-5-9.91l3.29-1.68q2.52,4.92,5,9.93Zm-390.94-8.78-3.31-1.65q2.52-5,5-9.93l3.29,1.7Q-54.87,732.15-57.37,737.14ZM1014,729l-3.53-1.13,3.35-10.57,3.53,1.11Zm-690.53-2.79q-2.58-4.95-5.2-9.81l3.26-1.75q2.63,4.88,5.22,9.84Zm-370.65-8.71-3.26-1.74q2.64-5,5.31-9.79l3.24,1.79Q-44.56,712.52-47.19,717.45Zm1892.34-1.79q-5.65-.18-11.16-.59l.28-3.69q5.42.4,11,.58ZM1822.87,714c-3.7-.44-7.42-1-11-1.6l.61-3.65c3.59.61,7.24,1.14,10.88,1.58Zm-22-3.73c-3.67-.81-7.31-1.71-10.83-2.68l1-3.57c3.46,1,7,1.84,10.65,2.64Zm-780.18-2.48-3.53-1.11,3.31-10.61,3.54,1.1ZM313,706.62q-2.7-4.89-5.44-9.67l3.21-1.84c1.84,3.21,3.65,6.44,5.47,9.71Zm1466.39-2.29c-3.51-1.16-7-2.44-10.51-3.79l1.36-3.45c3.4,1.33,6.87,2.59,10.31,3.73ZM-36.47,698.05l-3.21-1.84q2.79-4.87,5.62-9.62l3.18,1.9Q-33.68,693.2-36.47,698.05Zm1795-1.87c-3.35-1.53-6.73-3.18-10-4.9l1.72-3.29c3.24,1.7,6.56,3.32,9.85,4.82ZM302,687.38q-2.85-4.82-5.74-9.49l3.15-1.94q2.91,4.71,5.77,9.54Zm725.36-.86-3.53-1.1,3.3-10.65,3.53,1.09Zm711.47-.68c-3.17-1.87-6.36-3.86-9.47-5.93l2-3.08c3.06,2,6.19,4,9.31,5.83ZM-25.12,679l-3.14-1.95q3-4.79,6-9.4l3.1,2Q-22.17,674.3-25.12,679Zm1745.28-5.52c-3-2.17-5.91-4.48-8.82-6.84l2.33-2.88c2.87,2.34,5.79,4.6,8.69,6.74Zm-1429.85-5q-3-4.68-6.1-9.23l3.06-2.08q3.11,4.59,6.15,9.31Zm743.58-3.27-3.53-1.09,3.27-10.62,3.53,1.09ZM-13,660.49l-3.06-2.09q3.18-4.65,6.41-9.13l3,2.17Q-9.88,655.88-13,660.49Zm1715.89-1.07c-2.77-2.48-5.51-5-8.19-7.63l2.58-2.66q4,3.87,8.08,7.53Zm-1425-9.22q-3.24-4.53-6.54-8.9l2.95-2.24q3.33,4.41,6.61,9ZM1040.44,644l-3.54-1.09,3.26-10.62,3.54,1.08Zm646.38-.17q-3.83-4-7.52-8.25l2.78-2.44q3.66,4.15,7.43,8.14ZM-.11,642.56-3,640.32q3.42-4.49,6.91-8.76l2.87,2.33Q3.28,638.14-.11,642.56Zm264.66-10q-3.51-4.33-7.08-8.46l2.79-2.43c2.42,2.78,4.8,5.64,7.17,8.57Zm1407.53-5.51q-3.51-4.29-6.92-8.75l2.94-2.25q3.38,4.41,6.85,8.66ZM13.82,625.45,11,623q3.72-4.26,7.48-8.28l2.7,2.53Q17.49,621.24,13.82,625.45ZM1047,622.77l-3.54-1.09,3.27-10.62,3.54,1.09Zm-796.89-6.83c-2.54-2.71-5.14-5.36-7.71-7.87l2.58-2.65c2.62,2.55,5.25,5.24,7.83,8ZM28.91,609.4l-2.59-2.64c2.7-2.64,5.44-5.21,8.15-7.63l2.47,2.76C34.27,604.28,31.57,606.81,28.91,609.4Zm1629.6,0q-3.24-4.5-6.38-9.14l3.06-2.07q3.12,4.59,6.32,9.06Zm-605-7.84-3.54-1.09,3.29-10.62,3.53,1.1Zm-819.22-.95c-2.78-2.46-5.61-4.83-8.42-7l2.29-2.91c2.87,2.26,5.75,4.68,8.59,7.18Zm-189-5.79L43,591.91c2.95-2.38,5.94-4.65,8.9-6.76l2.15,3C51.14,590.23,48.21,592.46,45.31,594.79ZM1646,590.92q-3-4.67-5.91-9.45l3.16-1.93q2.9,4.76,5.87,9.38ZM217.08,587c-3-2.11-6.12-4.12-9.19-6l1.91-3.17c3.14,1.89,6.3,3.94,9.39,6.09Zm-154-4.91-2-3.14c3.19-2,6.44-3.87,9.67-5.59l1.74,3.27C69.43,578.3,66.25,580.14,63.13,582.08Zm997-1.77-3.54-1.1,3.32-10.61,3.54,1.11Zm-861.78-4.6c-3.26-1.66-6.59-3.2-9.9-4.58l1.42-3.42c3.4,1.42,6.82,3,10.16,4.71Zm1436.05-3.81q-2.79-4.8-5.5-9.69l3.24-1.8q2.69,4.86,5.46,9.63Zm-1552,0-1.5-3.38c3.44-1.52,6.93-2.9,10.4-4.11l1.22,3.5C89.14,569,85.73,570.38,82.39,571.85Zm95.82-4.52c-3.45-1.13-7-2.13-10.48-3l.86-3.6c3.61.86,7.23,1.89,10.77,3Zm-75.29-2.64-.93-3.58c3.61-.93,7.3-1.72,11-2.35l.62,3.65C110,563,106.43,563.78,102.92,564.69Zm54.13-2.45c-3.57-.55-7.21-1-10.83-1.25l.29-3.69c3.71.28,7.44.72,11.1,1.28ZM124.4,561l-.31-3.69c3.71-.31,7.49-.47,11.24-.47v3.7C131.68,560.58,128,560.74,124.4,561Zm942.36-1.93-3.53-1.11,3.35-10.6,3.53,1.12Zm556.8-6.69c-1.74-3.26-3.46-6.56-5.16-9.87l3.29-1.69q2.54,4.95,5.13,9.82ZM1073.5,537.94l-3.53-1.13,3.41-10.58,3.52,1.14Zm539.88-5.33q-2.46-5-4.87-10l3.34-1.59q2.4,5,4.85,10Zm-533-15.79-3.52-1.16q1.74-5.29,3.49-10.56l3.51,1.17Q1082.09,511.54,1080.35,516.82Zm523.41-4.29q-2.34-5-4.65-10.12l3.37-1.53q2.31,5.07,4.63,10.09Zm-516.42-16.79-3.5-1.18L1087.4,484l3.51,1.19Zm507.22-3.48c-1.5-3.39-3-6.79-4.47-10.19l3.4-1.48q2.22,5.1,4.46,10.17Zm-500-17.54-3.5-1.21q1.83-5.28,3.67-10.5l3.49,1.23Q1096.34,469.46,1094.52,474.72Zm491.18-2.87q-2.17-5.12-4.34-10.24l3.41-1.44q2.16,5.13,4.33,10.23Zm-483.81-18.07-3.48-1.25q1.88-5.26,3.79-10.46l3.47,1.27Q1103.78,448.53,1101.89,453.78Zm475.16-2.46L1572.79,441l3.42-1.41,4.26,10.28Zm-467.54-18.39-3.47-1.3q2-5.24,3.93-10.4l3.46,1.31Q1111.46,427.7,1109.51,432.93Zm459-2.18-4.22-10.26,3.43-1.41,4.21,10.27Zm-451.12-18.56-3.45-1.34q2-5.22,4.09-10.35l3.43,1.37Q1119.45,407,1117.43,412.19Zm442.69-1.95L1555.88,400l3.42-1.41,4.24,10.27Zm-434.45-18.65-3.43-1.41q2.13-5.18,4.28-10.27l3.41,1.44Q1127.78,386.44,1125.67,391.59Zm425.94-1.88c-1.43-3.42-2.86-6.84-4.3-10.23l3.41-1.45q2.16,5.12,4.31,10.26ZM1134.3,371.16l-3.39-1.48q2.22-5.13,4.5-10.18l3.37,1.52Q1136.53,366,1134.3,371.16Zm408.65-1.9q-2.19-5.11-4.41-10.18l3.39-1.49q2.22,5.09,4.43,10.21Zm-399.57-18.33-3.35-1.56q2.35-5.08,4.76-10.07l3.33,1.61C1146.52,344.22,1145,347.56,1143.38,350.93Zm390.67-2q-2.28-5.08-4.6-10.1l3.37-1.55c1.54,3.36,3.08,6.73,4.6,10.14ZM1153,331l-3.31-1.65q2.5-5,5-9.92l3.29,1.7C1156.33,324.33,1154.65,327.63,1153,331Zm371.76-2.17q-2.38-5-4.82-10l3.31-1.63q2.44,5,4.85,10ZM1163.2,311.3l-3.25-1.76q2.67-4.95,5.4-9.75l3.22,1.83C1166.76,304.8,1165,308,1163.2,311.3ZM1515,308.9c-1.69-3.31-3.41-6.58-5.13-9.82l3.26-1.74q2.61,4.88,5.17,9.87ZM1174.12,292l-3.18-1.89q2.86-4.83,5.8-9.51l3.14,2Q1177,287.25,1174.12,292Zm330.38-2.67q-2.73-4.86-5.54-9.59l3.19-1.88q2.82,4.75,5.57,9.66ZM1185.86,273.3l-3.09-2q3.11-4.69,6.27-9.21l3,2.12Q1188.94,268.64,1185.86,273.3Zm307.35-3c-2-3.14-4-6.24-6-9.27l3.07-2.06c2,3.06,4.08,6.19,6.07,9.36Zm-294.67-15.12-3-2.21q3.38-4.51,6.82-8.83l2.89,2.31Q1201.89,250.77,1198.54,255.22ZM1480.9,252q-3.24-4.52-6.6-8.84l2.93-2.27q3.39,4.38,6.68,9Zm-268.58-14-2.81-2.41q3.69-4.28,7.44-8.31l2.72,2.52Q1216,233.79,1212.32,238Zm255-3.43c-2.41-2.86-4.87-5.63-7.29-8.25l2.71-2.51c2.47,2.65,5,5.47,7.41,8.37Zm-240-12.64-2.6-2.65c2.71-2.65,5.45-5.22,8.15-7.62l2.46,2.77C1232.71,216.8,1230,219.32,1227.35,221.94Zm225.06-3.49c-2.66-2.59-5.38-5.1-8.07-7.45l2.43-2.79c2.74,2.4,5.51,4.95,8.22,7.59Zm-208.67-11.09-2.32-2.9c2.93-2.34,5.93-4.6,8.91-6.72l2.14,3C1249.55,202.84,1246.61,205.06,1243.74,207.36Zm192.12-3.31c-2.93-2.25-5.92-4.41-8.89-6.4l2.06-3.07c3,2,6.1,4.23,9.09,6.53Zm-174.27-9.34-1.95-3.14c3.18-2,6.44-3.85,9.69-5.58l1.74,3.27C1267.89,191,1264.7,192.79,1261.59,194.71Zm156.1-2.84c-3.16-1.81-6.42-3.53-9.67-5.09l1.61-3.34c3.33,1.61,6.66,3.36,9.9,5.22Zm-136.81-7.38-1.51-3.38c3.42-1.52,6.9-2.91,10.37-4.15l1.25,3.48C1287.61,181.65,1284.21,183,1280.88,184.49ZM1398,182.4c-3.35-1.32-6.82-2.53-10.29-3.6l1.09-3.54c3.56,1.1,7.12,2.35,10.56,3.7Zm-96.62-5.24-1-3.57c3.58-1,7.25-1.85,10.9-2.56l.71,3.63C1308.44,175.36,1304.87,176.2,1301.38,177.16Zm75.78-1.19c-3.5-.81-7.1-1.5-10.72-2.06l.57-3.66c3.7.57,7.39,1.28,11,2.11Zm-54.36-3-.44-3.68c3.69-.43,7.46-.73,11.19-.9l.16,3.7C1330.07,172.26,1326.39,172.56,1322.8,173Zm32.8-.38c-3.59-.31-7.26-.51-10.92-.6l.09-3.7c3.73.09,7.48.29,11.15.61Z" transform="translate(4112.07 -1)"/><polygon class="l" points="3189.83 566.92 3326.23 436.62 3558.4 798.13 3749.83 641.68 4160.77 1187.45 4414.49 998.96 4761.84 455.07 5071.56 220.43 5396.11 364.87 5704.58 120.07 5965.94 382.38 5965.94 1783.88 3189.83 1783.88 3189.83 566.92"/><circle class="m" cx="3326.23" cy="436.62" r="10.44"/><path class="m" d="M-785.84,458.21a20.61,20.61,0,0,1-20.59-20.59A20.61,20.61,0,0,1-785.84,417a20.62,20.62,0,0,1,20.59,20.6A20.62,20.62,0,0,1-785.84,458.21Zm0-38.08a17.51,17.51,0,0,0-17.49,17.49,17.51,17.51,0,0,0,17.49,17.48,17.5,17.5,0,0,0,17.48-17.48A17.51,17.51,0,0,0-785.84,420.13Z" transform="translate(4112.07 -1)"/><path class="m" d="M-543.23,799.13a10.43,10.43,0,0,1-10.44,10.44,10.43,10.43,0,0,1-10.44-10.44,10.44,10.44,0,0,1,10.44-10.44A10.44,10.44,0,0,1-543.23,799.13Z" transform="translate(4112.07 -1)"/><path class="m" d="M-553.67,819.72a20.61,20.61,0,0,1-20.59-20.59,20.62,20.62,0,0,1,20.59-20.59,20.62,20.62,0,0,1,20.59,20.59A20.61,20.61,0,0,1-553.67,819.72Zm0-38.07a17.5,17.5,0,0,0-17.48,17.48,17.5,17.5,0,0,0,17.48,17.48,17.5,17.5,0,0,0,17.48-17.48A17.5,17.5,0,0,0-553.67,781.65Z" transform="translate(4112.07 -1)"/><circle class="m" cx="3749.81" cy="641.68" r="10.44"/><path class="m" d="M-362.26,663.27a20.62,20.62,0,0,1-20.59-20.59,20.61,20.61,0,0,1,20.59-20.59,20.61,20.61,0,0,1,20.59,20.59A20.62,20.62,0,0,1-362.26,663.27Zm0-38.07a17.5,17.5,0,0,0-17.48,17.48,17.5,17.5,0,0,0,17.48,17.48,17.5,17.5,0,0,0,17.48-17.48A17.5,17.5,0,0,0-362.26,625.2Z" transform="translate(4112.07 -1)"/><circle class="m" cx="4160.77" cy="1187.43" r="10.44"/><path class="m" d="M48.7,1209a20.6,20.6,0,1,1,20.59-20.59A20.62,20.62,0,0,1,48.7,1209Zm0-38.08a17.49,17.49,0,1,0,17.48,17.49A17.51,17.51,0,0,0,48.7,1170.94Z" transform="translate(4112.07 -1)"/><circle class="m" cx="4414.49" cy="998.75" r="10.44"/><path class="m" d="M302.42,1020.34A20.6,20.6,0,1,1,323,999.75,20.62,20.62,0,0,1,302.42,1020.34Zm0-38.08a17.49,17.49,0,1,0,17.48,17.49A17.51,17.51,0,0,0,302.42,982.26Z" transform="translate(4112.07 -1)"/><circle class="m" cx="4761.87" cy="455.07" r="10.44"/><path class="m" d="M649.8,476.65a20.59,20.59,0,1,1,20.59-20.58A20.61,20.61,0,0,1,649.8,476.65Zm0-38.07a17.49,17.49,0,1,0,17.48,17.49A17.51,17.51,0,0,0,649.8,438.58Z" transform="translate(4112.07 -1)"/><circle class="m" cx="5071.48" cy="220.41" r="10.44"/><path class="m" d="M959.41,242A20.6,20.6,0,1,1,980,221.4,20.62,20.62,0,0,1,959.41,242Zm0-38.08a17.49,17.49,0,1,0,17.48,17.48A17.5,17.5,0,0,0,959.41,203.92Z" transform="translate(4112.07 -1)"/><path class="m" d="M1294.41,365.9A10.44,10.44,0,1,1,1284,355.46,10.43,10.43,0,0,1,1294.41,365.9Z" transform="translate(4112.07 -1)"/><path class="m" d="M1284,386.49a20.59,20.59,0,1,1,20.59-20.59A20.61,20.61,0,0,1,1284,386.49Zm0-38.07a17.49,17.49,0,1,0,17.48,17.48A17.5,17.5,0,0,0,1284,348.42Z" transform="translate(4112.07 -1)"/><circle class="m" cx="5704.66" cy="119.97" r="10.44"/><path class="m" d="M1592.59,141.56A20.59,20.59,0,1,1,1613.18,121,20.62,20.62,0,0,1,1592.59,141.56Zm0-38.08A17.49,17.49,0,1,0,1610.07,121,17.51,17.51,0,0,0,1592.59,103.48Z" transform="translate(4112.07 -1)"/><polyline class="n" points="3189.83 566.92 3326.23 436.62 3558.4 798.13 3749.83 641.68 4160.77 1187.45 4414.49 998.96 4761.84 455.07 5071.56 220.43 5396.11 364.87 5704.58 120.07 5965.94 382.38"/><rect class="o" x="3210.36" y="1267.05" width="25.04" height="28.38"/><rect class="p" x="3221.03" y="1207.99" width="3.7" height="59.06"/><rect class="q" x="3221.03" y="1295.43" width="3.7" height="59.06"/><rect class="r" x="3276.46" y="1281.11" width="25.04" height="64.07"/><rect class="s" x="3287.13" y="1222.05" width="3.7" height="59.06"/><rect class="t" x="3287.13" y="1345.19" width="3.7" height="59.06"/><rect class="u" x="3342.56" y="1204.75" width="25.04" height="166.79"/><rect class="v" x="3353.22" y="1145.69" width="3.7" height="59.06"/><rect class="w" x="3353.22" y="1371.54" width="3.7" height="59.06"/><rect class="x" x="3408.65" y="1289.39" width="25.04" height="127.65"/><rect class="y" x="3419.32" y="1230.33" width="3.7" height="59.06"/><rect class="z" x="3419.32" y="1417.04" width="3.7" height="59.06"/><rect class="aa" x="3474.75" y="1213.28" width="25.04" height="64.07"/><rect class="ab" x="3485.42" y="1154.21" width="3.7" height="59.06"/><rect class="ac" x="3485.42" y="1277.35" width="3.7" height="59.06"/><rect class="ad" x="3540.85" y="1214.28" width="25.04" height="118.4"/><rect class="ae" x="3551.52" y="1155.22" width="3.7" height="59.06"/><rect class="af" x="3551.52" y="1332.69" width="3.7" height="59.06"/><rect class="ag" x="3606.95" y="1065.94" width="25.04" height="160.82"/><rect class="ah" x="3617.62" y="1006.88" width="3.7" height="59.06"/><rect class="ai" x="3617.62" y="1226.76" width="3.7" height="59.06"/><rect class="aj" x="3673.04" y="1002.16" width="25.04" height="205.82"/><rect class="ak" x="3683.71" y="943.1" width="3.7" height="59.06"/><rect class="al" x="3683.71" y="1207.99" width="3.7" height="59.06"/><rect class="am" x="3739.14" y="1040.99" width="25.04" height="39.08"/><rect class="an" x="3749.81" y="981.93" width="3.7" height="59.06"/><rect class="ao" x="3749.81" y="1080.07" width="3.7" height="59.06"/><rect class="ap" x="3805.24" y="1018.71" width="25.04" height="86.12"/><rect class="aq" x="3815.91" y="959.65" width="3.7" height="59.06"/><rect class="ar" x="3815.91" y="1104.84" width="3.7" height="59.06"/><rect class="as" x="3871.34" y="846.26" width="25.04" height="219.98"/><rect class="at" x="3882.01" y="787.2" width="3.7" height="59.06"/><rect class="au" x="3882.01" y="1066.24" width="3.7" height="59.06"/><rect class="av" x="3937.44" y="991.14" width="25.04" height="149.9"/><rect class="aw" x="3948.11" y="932.08" width="3.7" height="59.06"/><rect class="ax" x="3948.11" y="1141.04" width="3.7" height="59.06"/><rect class="ay" x="4003.53" y="980.61" width="25.04" height="62.14"/><rect class="az" x="4014.2" y="921.55" width="3.7" height="59.06"/><rect class="ba" x="4014.2" y="1042.76" width="3.7" height="59.06"/><rect class="bb" x="4069.63" y="911.37" width="25.04" height="63.13"/><rect class="bc" x="4080.3" y="852.3" width="3.7" height="59.06"/><rect class="bd" x="4080.3" y="974.49" width="3.7" height="59.06"/><rect class="be" x="4135.73" y="768.81" width="25.04" height="157.92"/><rect class="bf" x="4146.4" y="709.75" width="3.7" height="59.06"/><rect class="bg" x="4146.4" y="926.73" width="3.7" height="59.06"/><rect class="bh" x="4201.83" y="727.09" width="25.04" height="108.15"/><rect class="bi" x="4212.5" y="668.02" width="3.7" height="59.06"/><rect class="bj" x="4212.5" y="835.23" width="3.7" height="59.06"/><rect class="bk" x="4267.93" y="803.94" width="25.04" height="42.31"/><rect class="bl" x="4278.59" y="744.88" width="3.7" height="59.06"/><rect class="bm" x="4278.59" y="846.26" width="3.7" height="59.06"/><rect class="bn" x="4334.02" y="870.13" width="25.04" height="45.57"/><rect class="bo" x="4344.69" y="811.07" width="3.7" height="59.06"/><rect class="bp" x="4344.69" y="915.7" width="3.7" height="59.06"/><rect class="bq" x="4400.12" y="792.17" width="25.04" height="53.44"/><rect class="br" x="4410.79" y="733.11" width="3.7" height="59.06"/><rect class="bs" x="4410.79" y="845.61" width="3.7" height="59.06"/><rect class="bt" x="4466.22" y="743.55" width="25.04" height="179.27"/><rect class="bu" x="4476.89" y="684.49" width="3.7" height="59.06"/><rect class="bv" x="4476.89" y="922.82" width="3.7" height="59.06"/><rect class="bw" x="4532.32" y="777.84" width="25.04" height="42.51"/><rect class="bx" x="4542.99" y="718.78" width="3.7" height="59.06"/><rect class="by" x="4542.99" y="820.35" width="3.7" height="59.06"/><rect class="bz" x="4598.41" y="863.97" width="25.04" height="277.07"/><rect class="ca" x="4609.08" y="804.91" width="3.7" height="59.06"/><rect class="cb" x="4609.08" y="1141.04" width="3.7" height="59.06"/><rect class="cc" x="4664.51" y="953.48" width="25.04" height="47.18"/><rect class="cd" x="4675.18" y="894.42" width="3.7" height="59.06"/><rect class="ce" x="4675.18" y="1000.66" width="3.7" height="59.06"/><rect class="cf" x="4730.61" y="849.08" width="25.04" height="166.03"/><rect class="cg" x="4741.28" y="790.02" width="3.7" height="59.06"/><rect class="ch" x="4741.28" y="1015.12" width="3.7" height="59.06"/><rect class="ci" x="4796.71" y="781.15" width="25.04" height="134.55"/><rect class="cj" x="4807.38" y="722.09" width="3.7" height="59.06"/><rect class="ck" x="4807.38" y="915.7" width="3.7" height="59.06"/><rect class="cl" x="4862.81" y="734.22" width="25.04" height="47.67"/><rect class="cm" x="4873.48" y="675.16" width="3.7" height="59.06"/><rect class="cn" x="4873.48" y="781.9" width="3.7" height="59.06"/><rect class="co" x="4928.9" y="678.44" width="25.04" height="199.85"/><rect class="cp" x="4939.57" y="619.38" width="3.7" height="59.06"/><rect class="cq" x="4939.57" y="878.3" width="3.7" height="59.06"/><rect class="cr" x="4995" y="551.59" width="25.04" height="294.02"/><rect class="cs" x="5005.67" y="492.53" width="3.7" height="59.06"/><rect class="ct" x="5005.67" y="845.61" width="3.7" height="59.06"/><rect class="cu" x="5060.81" y="743.55" width="25.04" height="149.37"/><rect class="cv" x="5071.48" y="684.49" width="3.7" height="59.06"/><rect class="cw" x="5071.48" y="892.93" width="3.7" height="59.06"/><rect class="cx" x="5127.2" y="754.57" width="25.04" height="49.19"/><rect class="cy" x="5137.87" y="695.51" width="3.7" height="59.06"/><rect class="cz" x="5137.87" y="803.77" width="3.7" height="59.06"/><rect class="da" x="5194.89" y="735.44" width="25.04" height="38.52"/><rect class="db" x="5205.56" y="676.37" width="3.7" height="59.06"/><rect class="dc" x="5205.56" y="773.96" width="3.7" height="59.06"/><rect class="dd" x="5259.39" y="514.44" width="25.04" height="172.85"/><rect class="de" x="5270.06" y="455.38" width="3.7" height="59.06"/><rect class="df" x="5270.06" y="687.29" width="3.7" height="59.06"/><rect class="dg" x="5325.49" y="655.2" width="25.04" height="120.37"/><rect class="dh" x="5336.16" y="596.13" width="3.7" height="59.06"/><rect class="di" x="5336.16" y="775.57" width="3.7" height="59.06"/><rect class="dj" x="5391.59" y="663.66" width="25.04" height="208.64"/><rect class="dk" x="5402.26" y="604.6" width="3.7" height="59.06"/><rect class="dl" x="5402.26" y="872.31" width="3.7" height="59.06"/><rect class="dm" x="5457.69" y="709.34" width="25.04" height="37.91"/><rect class="dn" x="5468.36" y="650.28" width="3.7" height="59.06"/><rect class="do" x="5468.36" y="747.25" width="3.7" height="59.06"/><rect class="dp" x="5523.78" y="496.67" width="25.04" height="152.05"/><rect class="dq" x="5534.45" y="437.61" width="3.7" height="59.06"/><rect class="dr" x="5534.45" y="648.72" width="3.7" height="59.06"/><rect class="ds" x="5589.88" y="583.72" width="25.04" height="36.9"/><rect class="dt" x="5600.55" y="524.66" width="3.7" height="59.06"/><rect class="du" x="5600.55" y="620.62" width="3.7" height="59.06"/><rect class="dv" x="5655.98" y="567.74" width="25.04" height="207.69"/><rect class="dw" x="5666.65" y="508.67" width="3.7" height="59.06"/><rect class="dx" x="5666.65" y="775.43" width="3.7" height="59.06"/><rect class="dy" x="5722.08" y="488.17" width="25.04" height="57.52"/><rect class="dz" x="5732.75" y="429.11" width="3.7" height="59.06"/><rect class="ea" x="5732.75" y="545.69" width="3.7" height="59.06"/><rect class="eb" x="5788.18" y="450.44" width="25.04" height="32.04"/><rect class="ec" x="5798.85" y="391.38" width="3.7" height="59.06"/><rect class="ed" x="5798.85" y="482.48" width="3.7" height="59.06"/><rect class="ee" x="5854.27" y="276.01" width="25.04" height="168.03"/><rect class="ef" x="5864.94" y="216.95" width="3.7" height="59.06"/><rect class="eg" x="5864.94" y="444.04" width="3.7" height="59.06"/><rect class="eh" x="5920.37" y="287.04" width="25.04" height="50.94"/><rect class="ei" x="5931.04" y="227.97" width="3.7" height="59.06"/><rect class="ej" x="5931.04" y="337.98" width="3.7" height="59.06"/><rect class="ek" x="3255.93" y="1651.72" width="263.91" height="132.16"/><rect class="el" x="3586.66" y="1486.44" width="263.91" height="297.44"/><rect class="em" x="3917.39" y="1335.7" width="263.91" height="448.18"/><rect class="en" x="4248.13" y="1453.39" width="263.91" height="330.49"/><rect class="eo" x="4578.86" y="1651.72" width="263.91" height="132.16"/><rect class="ep" x="4909.59" y="1226.76" width="263.91" height="557.12"/><rect class="eq" x="5240.32" y="1415" width="263.91" height="368.88"/><rect class="er" x="5602.65" y="948.78" width="263.91" height="835.1"/></g></g><rect class="es" x="-65.12" y="912.59" width="651.9" height="346.57" rx="55.06" transform="translate(5458.78 824.05) rotate(90)"/><rect class="et" x="-38.1" y="912.59" width="651.9" height="346.57" rx="55.06" transform="translate(5485.8 797.02) rotate(90)"/><path class="eu" d="M406.08,776.64h-55a6.63,6.63,0,0,0-6.34,4.68l-2.54,8.19a10.9,10.9,0,0,1-10.4,7.66H243.88a10.88,10.88,0,0,1-10.39-7.66L231,781.32a6.65,6.65,0,0,0-6.35-4.68h-55A38.35,38.35,0,0,0,131.28,815v541.79a38.34,38.34,0,0,0,38.35,38.34H406.08a38.34,38.34,0,0,0,38.34-38.34V815A38.35,38.35,0,0,0,406.08,776.64Z" transform="translate(4112.07 -1)"/><path class="eu" d="M312.23,784.16H263.47a2.64,2.64,0,0,1-2.64-2.65h0a2.64,2.64,0,0,1,2.64-2.64h48.76a2.64,2.64,0,0,1,2.64,2.64h0A2.64,2.64,0,0,1,312.23,784.16Z" transform="translate(4112.07 -1)"/><line class="ev" x1="4211.59" y1="868.69" x2="4211.59" y2="949.48"/><line class="ev" x1="4211.59" y1="974.69" x2="4211.59" y2="1012.44"/><polygon class="et" points="4947.28 1409.43 5011.15 1044 5482.69 1044 5418.82 1409.43 4947.28 1409.43"/><polygon class="eu" points="5405.89 1394 4965.71 1394 5024.08 1059.44 5464.27 1059.44 5405.89 1394"/><path class="ew" d="M1277.73,1326.42s5.54,15.66,3.49,23.29-8.08,14.23-8.49,25.52.53,31.24,4.13,31.93,1.25-14.94,4.49-16.25,14,23.07,14,23.07l32.56.23s-10.79-70.23-12.37-82.2S1277.73,1326.42,1277.73,1326.42Z" transform="translate(4112.07 -1)"/><path class="ew" d="M725.82,1135s-52.47-4.7-65.74-8.12-48.23,7.3-48.23,7.3L670,1182.77s14.71-9.08,30.68-11.66,26.93-1.51,26.93-1.51Z" transform="translate(4112.07 -1)"/><path class="ew" d="M952.89,835.83c-.74,13.19-4.53,46.07-2.6,61.34s9.83,26,25.73,23.64,29.56,64.87,29.56,64.87l34.11,5.35,24.94-37.27-22.78-41.25s17.05-45.23,8.51-71.91-71.55-48-95.3-39.51S952.89,835.83,952.89,835.83Z" transform="translate(4112.07 -1)"/><polygon points="5097.73 948.24 5136.86 964.05 5145.04 982.05 5145.2 959.12 5174.74 928.43 5182.35 945.43 5258.38 1256.02 5141.74 1255.18 5075.43 981.55 5095.96 968.24 5097.73 948.24"/><polygon class="ex" points="5321.3 1412.36 5083.13 1410.64 5128.78 1255.09 5309.67 1256.39 5321.3 1412.36"/><path class="ey" d="M983.89,969.24c11.4,31.81,62.14,252.83,70,282.79s11.9,112.41,11.9,112.41-69.13.83-84.73-.61,5.68-97,5.17-118.93S944.66,1109,944.66,1109s-78.91,67.89-90.88,69.13-135.55-4.3-135.55-4.3l.31-43.19s103.72-5.24,115.06-11.14S914,1035,930.72,1015.21,963,969.92,983.89,969.24Z" transform="translate(4112.07 -1)"/><path class="ez" d="M919.93,1060c-9,.93-18.86,57.68-30.44,74-7.37,10.4-18,26.41-24.37,38.24,25.38-16.68,79.54-63.27,79.54-63.27C939.6,1097,928.91,1059.06,919.93,1060Z" transform="translate(4112.07 -1)"/><path class="ey" d="M1275,1335.89l45.23.32-17.08-99.94a335.25,335.25,0,0,0-34.27-105.61c-29.2-56.05-74.77-139.84-93.61-154.56-12.41-9.71-68.56-31.4-105-29.67,0,0,39.54,254.5,45.24,294.42s30,118.85,30,118.85l83.58.6-18.72-114.56-21.4-107,46.75,63.8Z" transform="translate(4112.07 -1)"/><path class="ez" d="M1189,1138.69s-28.13-39.58-34.45-61.55-9.59-52.41-6.54-60.86-6.89-12-11.64,24.34-5,68.75,16.69,104.79,6.07,56.87,23.29,88.9,39.49,44.74,39.49,44.74Z" transform="translate(4112.07 -1)"/><path class="fa" d="M924.56,797c11.57-24.74,38.76-9.72,68.88-5.94s58.21,7.83,67.82,29.37-2.81,65.16-19.41,92.07c0,0-13.13-16.61-13.18-28s13.51-18.6,8-29.62-13.62-4.14-15.44.57-2.91,9.67-5,7.17,1.85-12.64.78-21.12-5.07-21.08-24-18.34-38.82-1.66-38.82-1.66l-1.3,14.3S911.52,824.85,924.56,797Z" transform="translate(4112.07 -1)"/><path class="ey" d="M380.6,1264.78l8.24,140.51H162.19s5.87-31.34,5.87-56.64c0-50.59,30.17-83.87,30.17-83.87Z" transform="translate(4112.07 -1)"/><polygon class="fb" points="4424.84 1404.29 4500.91 1404.29 4492.67 1263.78 4463.67 1263.78 4424.84 1404.29"/><path class="fc" d="M450.56,843.56s-2.37,31.94,1.77,37.56,2.58,9.17-1.22,11-3.81,31.35-12.68,33.43-16.57-4.65-19.82,4.77-7.4,32.2-7.4,32.2l-55.9-3.84L371,917.21s-10.65-30.76-3.55-57.38S448.78,816.94,450.56,843.56Z" transform="translate(4112.07 -1)"/><path class="fd" d="M342,946.2l93.58,13.19a3.63,3.63,0,0,1,3,4.51l-5.49,21.35s4.74,33.13,3,58-21.89,111.22-27.21,137.84-9.47,92.29-23.08,92.88-171.56,0-198.78,0,13.61-27.8,27.22-52.06,30.17-105.9,52.06-152.63,70.4-99.1,71.58-109.3S336.77,945.47,342,946.2Z" transform="translate(4112.07 -1)"/><path class="fe" d="M334,1041.19c-9.88-12.45-15.43-9.35-10.14,11.5s11.95,39.49,31.48,51.92c17.62,11.21,21.87,77.73,50.6,94.81,1-7,1.94-13.37,2.94-18.35,4.35-21.77,18.59-83.46,24.6-118.83C433.44,1062.24,342.29,1051.66,334,1041.19Z" transform="translate(4112.07 -1)"/><path class="fc" d="M452.92,1067.78s33.72,45.65,44.67,48.86,120.39,12.07,129.86,12.07,31.06,13.31,39.63,17.46,31.06,23.07,19.53,29.87-31.65,6.21-43.19,0-21-14.49-31.36-14.49-111.83,2.57-134-4.14c-30.76-9.32-78.5-61.23-86.28-68Z" transform="translate(4112.07 -1)"/><path class="ew" d="M621,1174.2c.88-6.74-.45-13.53,9.32-10s19.74,11.75,27.5,14-.22,11.32-6.43,11.32S620.07,1181,621,1174.2Z" transform="translate(4112.07 -1)"/><path class="ew" d="M623.07,1142.13s40.15-7.32,50.36-5.66,3.58,5.87-8,9.43C638.82,1154.11,612.27,1147.53,623.07,1142.13Z" transform="translate(4112.07 -1)"/><path class="fa" d="M392.87,877s-10.65-10.65-13.6,0,8.87,19.53,6.8,25.44-10.95,29-17.45,27.81,1.77-14.2-5.92-26-17.75-26-11.24-52.66S378.67,832,385.77,822s13-20.11,40.82-17.15,40.23-13.48,52.07-.53,10,36.62-19.53,43.12-35.49-2.36-41.7,4.74S400.56,876.39,392.87,877Z" transform="translate(4112.07 -1)"/><path class="ff" d="M327.5,1033.76l58,66.56,74.24-28.7S424.82,1019,413,1004.77,380.45,976.08,362.7,979,313,1014.53,327.5,1033.76Z" transform="translate(4112.07 -1)"/><path class="fg" d="M401.1,993.07s16,11.51,35.27,44" transform="translate(4112.07 -1)"/><line class="fh" x1="4018.14" y1="1410.83" x2="5546.93" y2="1410.83"/><text class="fi" transform="translate(4284.11 367.58)">Discuss, Decide <tspan x="0" y="141.62">Deliver...</tspan></text><path class="fj" d="M-897.07,2195.84v459.67c-1889.91-437.64-2856.55,488.7-3215,965.22V2195.84Z" transform="translate(4112.07 -1)"/><rect class="fk" x="4077.36" y="1406.86" width="1631.57" height="381.86"/></g></g></svg>