<svg xmlns="http://www.w3.org/2000/svg" viewBox="0 0 88.56 145.49"><path d="M0,72.6Q0,42.92,0,13.22C0,4.43,4.47,0,13.32,0H75.81c8,0,12.74,4.64,12.74,12.65q0,60.09,0,120.19c0,8-4.71,12.64-12.74,12.65H12.75c-8,0-12.73-4.65-12.74-12.65Q0,102.72,0,72.6ZM5.86,31.47v79.7H82.7V31.47Zm-.14,85.66c0,5.92-.13,11.58,0,17.24a5.56,5.56,0,0,0,5.82,5.42q32.66.06,65.3,0c3,0,5.64-1.9,5.77-4.79.28-5.91.09-11.84.09-17.87ZM66,5.7c-.19.61-.35,1-.45,1.51-1.46,6.59-5.45,9.83-12.2,9.84-6.44,0-12.87.05-19.31,0a11.19,11.19,0,0,1-10.78-8.8c-.19-.81-.39-1.62-.61-2.55-3.8,0-7.49-.07-11.17,0a5.45,5.45,0,0,0-5.61,5c-.25,4.87-.07,9.77-.07,14.75h77c0-5,.15-9.77,0-14.56a5.43,5.43,0,0,0-5.17-5.15C73.72,5.58,69.85,5.7,66,5.7Zm-37.25.11c.62,3.8,2.42,5.52,5.81,5.55q9.81.08,19.6,0c3.37,0,5.22-1.89,5.65-5.54Z"/><path d="M54.3,68.5a30.34,30.34,0,0,1,5.47.09,4.09,4.09,0,0,1,2.7,1.94,3.36,3.36,0,0,1-.78,3c-5,4.74-10.18,9.34-15.31,14a2.88,2.88,0,0,1-4.3-.07C37,82.83,31.94,78.3,27,73.62a3.69,3.69,0,0,1-.85-3.2,4,4,0,0,1,2.75-1.84,30.38,30.38,0,0,1,5.37-.08V62.84c0-6.34,0-12.68,0-19,0-3,1-3.89,3.95-3.93,3.78,0,7.57,0,11.35,0s4.7.79,4.71,4.61c0,6.82,0,13.63,0,20.45Zm-1.94,5.86c-3.81-.29-3.79-2.69-3.77-5.19,0-6.91,0-13.83,0-20.74a21.52,21.52,0,0,0-.35-2.66H40V49c0,6.73-.05,13.45,0,20.17,0,2.56-.16,4.8-3.65,5.27l8,7.24Z"/><path d="M20,96.91H68.61c0-2.57,0-5.08,0-7.59,0-1.89.38-3.51,2.64-3.58s3,1.55,3.05,3.56c0,3.22,0,6.44,0,9.66,0,2.57-1.27,3.81-3.84,3.81H18c-2.42,0-3.68-1.22-3.69-3.66,0-3.31,0-6.62,0-9.93,0-1.9.69-3.43,2.89-3.44S20,87.23,20,89.17C19.93,91.62,20,94.08,20,96.91Z"/><path d="M44.38,125.58c5.38,0,10.76,0,16.15,0,2,0,3.67.56,3.6,2.92-.07,2.15-1.61,2.78-3.53,2.78q-16.29,0-32.57,0c-2,0-3.64-.67-3.6-3s1.6-2.72,3.53-2.71C33.43,125.6,38.91,125.58,44.38,125.58Z"/></svg>