<svg xmlns="http://www.w3.org/2000/svg" viewBox="0 0 99.19 117.94"><path d="M94.2,21.54c-1.36,0-2.73,0-4.06,0h-18v-1c0-1.62,0-3.15,0-4.67A15.76,15.76,0,0,0,56.11,0H43.75C33.81,0,27.11,6.67,27.08,16.58v4.94H19.83q-7.3,0-14.59,0C2.11,21.55.05,23.45,0,26.37a5,5,0,0,0,5,5.14c1,.06,1.88,0,2.86,0v71.19c0,9.66,5.52,15.2,15.13,15.2H77a15.4,15.4,0,0,0,3.08-.21c7-1.41,11.26-6.84,11.27-14.54q0-25.37,0-50.73V31.53h.13a29.33,29.33,0,0,0,3-.05,4.9,4.9,0,0,0,4.72-5.12A4.81,4.81,0,0,0,94.2,21.54Zm-56.94-6.7c.35-2.9,2.64-4.8,5.83-4.83,4.36,0,8.74,0,13,0,3.18,0,5.47,1.93,5.83,4.83a34.71,34.71,0,0,1,.1,5.33l0,1.22H37.19c0-.41,0-.82,0-1.22A36,36,0,0,1,37.26,14.84ZM17.86,45.41V31.61H81.34V48.22q0,27.27,0,54.53c0,4.12-1.07,5.19-5.21,5.19H22.41c-3.22,0-4.54-1.3-4.55-4.49Q17.85,74.42,17.86,45.41Z"/><path d="M34.56,95.88A4.83,4.83,0,0,0,38,97.24h.07c3,0,4.88-2.21,4.89-5.68q0-7.45,0-14.92V64.54q0-7.49,0-15A6.22,6.22,0,0,0,41.31,45a4.43,4.43,0,0,0-3.39-1.29c-2.87,0-5,2.46-5,5.72,0,15.44,0,29.25,0,42.23A5.83,5.83,0,0,0,34.56,95.88Z"/><path d="M58.67,96.42a4.51,4.51,0,0,0,2.66.9,4.33,4.33,0,0,0,2-.48,5.9,5.9,0,0,0,2.95-5.4q0-20.89,0-41.78c0-3.45-2-5.9-5-6A4.6,4.6,0,0,0,57.88,45a6.18,6.18,0,0,0-1.64,4.56q0,7.41,0,14.83v6.06c0,1.81,0,3.62,0,5.44,0,5.22,0,10.61.09,15.92A6.36,6.36,0,0,0,58.67,96.42Z"/></svg>