<svg xmlns="http://www.w3.org/2000/svg" viewBox="0 0 122.85 122.79"><path d="M119.11,19.92c-4.27-4.39-8.68-8.77-13-13l-3.29-3.27A12.51,12.51,0,0,0,94.25,0h-.07a13.57,13.57,0,0,0-9.77,4.35l-26,26.22Q35.58,53.68,12.72,76.8a8.81,8.81,0,0,0-2.14,3.58C6.65,93.92,3.27,105.83.23,116.78c-.36,1.28-.44,3.76.87,4.92a5.32,5.32,0,0,0,3.43,1.09,5.89,5.89,0,0,0,1.56-.2c11.09-3.07,22.85-6.43,35.94-10.26a10.41,10.41,0,0,0,4.17-2.43c3.72-3.61,7.45-7.33,11-10.92L62,94.22,82,74.43q18.22-18.06,36.44-36.15C124.06,32.68,124.34,25.3,119.11,19.92ZM32.23,84a31.92,31.92,0,0,1-1.67-3.43c-1-2.65-2.78-4.06-5.2-4.21L75.11,27.91l6.62,6.6ZM17.88,85.56C18,85,18,85,19,84.88a12.2,12.2,0,0,1,1.52-.1c2.48,0,3.71,1,4.34,3.43,1.51,5.8,6.24,8.34,10.55,10.28l1.38.59c.42.18.86.37,1.07.48a12.54,12.54,0,0,1,0,1.27c0,.53,0,1.18,0,2v.24l.08.23a1.56,1.56,0,0,1,.08,1.08c-.12.22-.58.64-2.33,1-1.39.31-2.76.72-4.08,1.11s-2.69.79-4,1.08a1.84,1.84,0,0,1-1.21-.29c-3.73-3.55-7.39-7.22-10.88-10.88a2,2,0,0,1-.28-1.2c.41-1.73.92-3.49,1.41-5.2C17.07,88.57,17.51,87.07,17.88,85.56Zm77.19-37.9L46.49,97.59c-1-4.47-5.12-6-7.33-6.87l-.27-.11L88.44,41.06Zm18.26-16.34c-2.75,2.93-5.61,5.8-8.38,8.57-.77.78-1.54,1.54-2.29,2.31l-22-22c.75-.76,1.52-1.51,2.28-2.28,2.75-2.72,5.58-5.54,8.46-8.26a3.7,3.7,0,0,1,5.3.06c5.45,5.29,11,10.86,16.54,16.54A3.6,3.6,0,0,1,113.33,31.32ZM16.55,110.81l-6.31,1.78L12,106.3Z"/></svg>