<?xml version="1.0" encoding="UTF-8"?>
<svg xmlns="http://www.w3.org/2000/svg" xmlns:xlink="http://www.w3.org/1999/xlink" width="173px" height="50px" viewBox="0 0 173 50" version="1.1">
<g id="surface1">
<path style=" stroke:none;fill-rule:nonzero;fill:rgb(6.27451%,9.411765%,12.54902%);fill-opacity:1;" d="M 143.867188 0 C 144.117188 0.519531 144.582031 1.039062 144.589844 1.558594 C 144.640625 7.109375 144.601562 12.664062 144.636719 18.210938 C 144.636719 19.332031 144.226562 19.75 143.128906 19.742188 C 138.988281 19.707031 134.84375 19.902344 130.722656 19.667969 C 125.976562 19.402344 121.589844 17.976562 118.429688 14.109375 C 116.308594 11.515625 116.378906 8.042969 118.589844 5.503906 C 121.433594 2.238281 125.230469 0.851562 129.382812 0.230469 C 129.761719 0.171875 130.132812 0.0703125 130.511719 0 Z M 141.785156 1.929688 C 137.761719 1.929688 133.820312 1.734375 129.910156 1.988281 C 126.753906 2.171875 123.777344 3.515625 121.550781 5.761719 C 119.0625 8.246094 119.089844 11.601562 121.570312 14.097656 C 123.414062 15.992188 125.839844 17.210938 128.460938 17.554688 C 131.421875 17.9375 134.441406 17.933594 137.433594 18.054688 C 138.867188 18.109375 140.296875 18.054688 141.785156 18.054688 Z M 141.785156 1.929688 "/>
<path style=" stroke:none;fill-rule:nonzero;fill:rgb(6.27451%,9.411765%,12.54902%);fill-opacity:1;" d="M 172.222656 0 C 172.464844 0.527344 172.914062 1.046875 172.914062 1.582031 C 172.980469 4.746094 172.914062 7.914062 172.964844 11.082031 C 172.988281 12.25 172.421875 12.617188 171.410156 12.617188 C 163.210938 12.617188 155.011719 12.617188 146.8125 12.617188 C 145.546875 12.617188 145.277344 12.28125 145.273438 10.980469 C 145.273438 7.851562 145.242188 4.722656 145.304688 1.59375 C 145.304688 1.058594 145.742188 0.535156 145.976562 0.0078125 Z M 170.089844 10.785156 L 170.089844 1.886719 L 148.140625 1.886719 L 148.140625 10.785156 Z M 170.089844 10.785156 "/>
<path style=" stroke:none;fill-rule:nonzero;fill:rgb(6.27451%,9.411765%,12.54902%);fill-opacity:1;" d="M 109.777344 11.664062 L 55.238281 11.664062 L 55.238281 0.964844 L 109.777344 0.964844 Z M 109.777344 11.664062 "/>
<path style=" stroke:none;fill-rule:nonzero;fill:rgb(6.27451%,9.411765%,12.54902%);fill-opacity:1;" d="M 0.046875 38.332031 L 0.046875 27.554688 L 46.574219 27.554688 L 46.574219 38.332031 Z M 0.046875 38.332031 "/>
<path style=" stroke:none;fill-rule:nonzero;fill:rgb(6.27451%,9.411765%,12.54902%);fill-opacity:1;" d="M 46.574219 11.664062 L 0.0859375 11.664062 L 0.0859375 0.980469 L 46.570312 0.980469 Z M 46.574219 11.664062 "/>
<path style=" stroke:none;fill-rule:nonzero;fill:rgb(6.27451%,9.411765%,12.54902%);fill-opacity:1;" d="M 46.585938 14.328125 L 46.585938 24.929688 L 0.0351562 24.929688 L 0.0351562 14.328125 Z M 46.585938 14.328125 "/>
<path style=" stroke:none;fill-rule:nonzero;fill:rgb(6.27451%,9.411765%,12.54902%);fill-opacity:1;" d="M 73.851562 38.328125 L 73.851562 14.328125 L 91.082031 14.328125 L 91.082031 38.328125 Z M 73.851562 38.328125 "/>
<path style=" stroke:none;fill-rule:nonzero;fill:rgb(6.27451%,9.411765%,12.54902%);fill-opacity:1;" d="M 153.175781 39.253906 C 151.105469 39.253906 149.035156 39.269531 146.964844 39.253906 C 145.480469 39.238281 145.269531 39.007812 145.269531 37.558594 C 145.269531 32.085938 145.269531 26.613281 145.269531 21.136719 C 145.269531 19.855469 145.5625 19.523438 146.832031 19.523438 C 150.773438 19.511719 154.71875 19.414062 158.65625 19.554688 C 162.460938 19.6875 166.019531 20.746094 169.167969 23.011719 C 171.425781 24.640625 173.027344 26.644531 172.9375 29.625 C 172.886719 31.40625 172.144531 33.09375 170.867188 34.332031 C 167.75 37.511719 163.804688 38.828125 159.496094 39.148438 C 157.398438 39.304688 155.28125 39.175781 153.175781 39.175781 Z M 148.113281 37.707031 C 152.433594 37.539062 156.675781 37.507812 160.890625 37.160156 C 163.570312 36.929688 165.996094 35.777344 168.007812 33.914062 C 171.019531 31.148438 170.898438 27.273438 167.738281 24.671875 C 165.703125 23 163.367188 21.78125 160.773438 21.609375 C 156.65625 21.335938 152.511719 21.40625 148.382812 21.335938 C 148.285156 21.335938 148.1875 21.4375 148.113281 21.484375 Z M 148.113281 37.707031 "/>
<path style=" stroke:none;fill-rule:nonzero;fill:rgb(6.27451%,9.411765%,12.54902%);fill-opacity:1;" d="M 130.867188 39.253906 C 126.890625 39.253906 122.910156 39.253906 118.929688 39.253906 C 117.089844 39.253906 116.917969 39.074219 116.917969 37.273438 C 116.917969 34.265625 116.960938 31.253906 116.894531 28.246094 C 116.875 27.09375 117.378906 26.6875 118.398438 26.632812 C 118.710938 26.621094 119.023438 26.621094 119.332031 26.621094 C 126.980469 26.621094 134.628906 26.621094 142.273438 26.621094 C 142.699219 26.621094 143.128906 26.660156 143.554688 26.699219 C 144.300781 26.765625 144.632812 27.160156 144.628906 27.933594 C 144.605469 31.253906 144.59375 34.578125 144.628906 37.894531 C 144.628906 38.988281 144.03125 39.230469 143.152344 39.238281 C 140.460938 39.238281 137.769531 39.238281 135.078125 39.238281 Z M 141.785156 28.488281 L 119.785156 28.488281 L 119.785156 37.476562 L 141.785156 37.476562 Z M 141.785156 28.488281 "/>
<path style=" stroke:none;fill-rule:nonzero;fill:rgb(6.27451%,9.411765%,12.54902%);fill-opacity:1;" d="M 13.628906 46.789062 L 11.617188 48.652344 L 11.386719 48.652344 L 9.421875 46.78125 L 9.421875 49.90625 L 8.261719 49.90625 L 8.261719 45.597656 L 9.597656 45.597656 L 11.53125 47.441406 L 13.460938 45.597656 L 14.789062 45.597656 L 14.789062 49.894531 L 13.640625 49.894531 Z M 13.628906 46.789062 "/>
<path style=" stroke:none;fill-rule:nonzero;fill:rgb(6.27451%,9.411765%,12.54902%);fill-opacity:1;" d="M 30.734375 49.890625 L 29.355469 49.890625 L 27.558594 48.453125 L 26.4375 48.453125 L 26.4375 49.890625 L 25.285156 49.890625 L 25.285156 45.585938 L 28.21875 45.585938 C 29.675781 45.585938 30.441406 46.277344 30.441406 47.007812 C 30.441406 47.597656 30.054688 48.191406 28.882812 48.359375 L 30.75 49.828125 Z M 26.433594 46.347656 L 26.433594 47.730469 L 28.207031 47.730469 C 28.949219 47.730469 29.265625 47.382812 29.265625 47.039062 C 29.265625 46.691406 28.9375 46.347656 28.207031 46.347656 Z M 26.433594 46.347656 "/>
<path style=" stroke:none;fill-rule:nonzero;fill:rgb(6.27451%,9.411765%,12.54902%);fill-opacity:1;" d="M 37.734375 46.640625 C 37.257812 46.355469 36.714844 46.207031 36.160156 46.210938 C 34.839844 46.210938 34.039062 46.902344 34.039062 47.792969 C 34.039062 48.5 34.628906 49.234375 36.160156 49.234375 C 36.644531 49.246094 37.121094 49.125 37.542969 48.890625 L 37.542969 48.125 L 35.964844 48.125 L 35.964844 47.402344 L 38.625 47.402344 L 38.625 49.214844 C 38.015625 49.699219 37.242188 49.988281 36.167969 49.988281 C 33.847656 49.988281 32.90625 48.925781 32.90625 47.792969 C 32.90625 46.585938 33.988281 45.46875 36.167969 45.46875 C 36.976562 45.457031 37.773438 45.683594 38.457031 46.125 Z M 37.734375 46.640625 "/>
<path style=" stroke:none;fill-rule:nonzero;fill:rgb(6.27451%,9.411765%,12.54902%);fill-opacity:1;" d="M 41.527344 49.890625 L 41.527344 45.589844 L 42.675781 45.589844 L 42.675781 49.890625 Z M 41.527344 49.890625 "/>
<path style=" stroke:none;fill-rule:nonzero;fill:rgb(6.27451%,9.411765%,12.54902%);fill-opacity:1;" d="M 49.765625 45.585938 L 50.917969 45.585938 L 50.917969 49.890625 L 50.199219 49.890625 L 46.957031 46.984375 L 46.957031 49.882812 L 45.792969 49.882812 L 45.792969 45.589844 L 46.746094 45.589844 L 49.769531 48.253906 Z M 49.765625 45.585938 "/>
<path style=" stroke:none;fill-rule:nonzero;fill:rgb(6.27451%,9.411765%,12.54902%);fill-opacity:1;" d="M 58.519531 46.640625 C 58.042969 46.355469 57.5 46.207031 56.949219 46.210938 C 55.628906 46.210938 54.824219 46.902344 54.824219 47.792969 C 54.824219 48.5 55.414062 49.234375 56.949219 49.234375 C 57.4375 49.246094 57.917969 49.128906 58.34375 48.890625 L 58.34375 48.125 L 56.765625 48.125 L 56.765625 47.402344 L 59.402344 47.402344 L 59.402344 49.214844 C 58.796875 49.699219 58.023438 49.988281 56.945312 49.988281 C 54.625 49.988281 53.683594 48.925781 53.683594 47.792969 C 53.683594 46.585938 54.765625 45.46875 56.945312 45.46875 C 57.757812 45.453125 58.558594 45.683594 59.246094 46.125 Z M 58.519531 46.640625 "/>
<path style=" stroke:none;fill-rule:nonzero;fill:rgb(6.27451%,9.411765%,12.54902%);fill-opacity:1;" d="M 71.332031 46.328125 L 69.378906 46.328125 L 69.378906 45.589844 L 74.453125 45.589844 L 74.453125 46.328125 L 72.496094 46.328125 L 72.496094 49.886719 L 71.332031 49.886719 Z M 71.332031 46.328125 "/>
<path style=" stroke:none;fill-rule:nonzero;fill:rgb(6.27451%,9.411765%,12.54902%);fill-opacity:1;" d="M 89.976562 49.351562 C 89.277344 49.792969 88.460938 50.015625 87.632812 49.988281 C 85.332031 49.988281 84.371094 48.890625 84.363281 47.769531 C 84.351562 46.652344 85.402344 45.503906 87.632812 45.503906 C 88.4375 45.492188 89.226562 45.71875 89.898438 46.164062 L 89.121094 46.683594 C 88.675781 46.40625 88.15625 46.265625 87.632812 46.277344 C 86.140625 46.277344 85.5 47.050781 85.507812 47.769531 C 85.515625 48.492188 86.105469 49.226562 87.632812 49.226562 C 88.179688 49.230469 88.71875 49.082031 89.183594 48.789062 Z M 89.976562 49.351562 "/>
<path style=" stroke:none;fill-rule:nonzero;fill:rgb(6.27451%,9.411765%,12.54902%);fill-opacity:1;" d="M 96.769531 49.894531 L 96.769531 48.171875 L 93.738281 48.171875 L 93.738281 49.90625 L 92.574219 49.90625 L 92.574219 45.597656 L 93.738281 45.597656 L 93.738281 47.410156 L 96.769531 47.410156 L 96.769531 45.597656 L 97.921875 45.597656 L 97.921875 49.894531 Z M 96.769531 49.894531 "/>
<path style=" stroke:none;fill-rule:nonzero;fill:rgb(6.27451%,9.411765%,12.54902%);fill-opacity:1;" d="M 108.484375 46.628906 C 108.273438 46.382812 107.691406 46.152344 107.023438 46.152344 C 106.160156 46.152344 105.746094 46.402344 105.746094 46.71875 C 105.746094 47.097656 106.378906 47.199219 107.125 47.261719 C 108.410156 47.371094 109.609375 47.605469 109.609375 48.632812 C 109.609375 49.585938 108.394531 50 107.019531 50 C 105.761719 50 104.789062 49.730469 104.332031 48.945312 L 105.300781 48.59375 C 105.574219 49.054688 106.289062 49.285156 107.039062 49.285156 C 107.789062 49.285156 108.457031 49.105469 108.457031 48.640625 C 108.457031 48.234375 107.847656 48.070312 107.027344 48.007812 C 105.769531 47.902344 104.605469 47.667969 104.605469 46.707031 C 104.605469 45.820312 105.859375 45.460938 106.996094 45.453125 C 107.953125 45.453125 108.949219 45.644531 109.417969 46.304688 Z M 108.484375 46.628906 "/>
<path style=" stroke:none;fill-rule:nonzero;fill:rgb(6.27451%,9.411765%,12.54902%);fill-opacity:1;" d="M 118.507812 47.765625 C 118.488281 48.875 117.511719 49.988281 115.34375 49.988281 C 113.175781 49.988281 112.167969 48.902344 112.167969 47.769531 C 112.167969 46.640625 113.210938 45.503906 115.34375 45.503906 C 117.476562 45.503906 118.523438 46.640625 118.507812 47.765625 Z M 113.316406 47.78125 C 113.339844 48.492188 113.886719 49.242188 115.34375 49.242188 C 116.796875 49.242188 117.34375 48.484375 117.359375 47.777344 C 117.378906 47.066406 116.796875 46.242188 115.34375 46.242188 C 113.886719 46.242188 113.289062 47.058594 113.316406 47.78125 Z M 113.316406 47.78125 "/>
<path style=" stroke:none;fill-rule:nonzero;fill:rgb(6.27451%,9.411765%,12.54902%);fill-opacity:1;" d="M 122.457031 45.589844 L 122.457031 49.140625 L 125.628906 49.140625 L 125.628906 49.890625 L 121.304688 49.890625 L 121.304688 45.589844 Z M 122.457031 45.589844 "/>
<path style=" stroke:none;fill-rule:nonzero;fill:rgb(6.27451%,9.411765%,12.54902%);fill-opacity:1;" d="M 133.445312 45.597656 L 133.445312 48.058594 C 133.445312 49.332031 132.328125 49.980469 130.777344 49.980469 C 129.292969 49.980469 128.035156 49.355469 128.035156 48.058594 L 128.035156 45.597656 L 129.1875 45.597656 L 129.1875 48.058594 C 129.1875 48.832031 129.820312 49.242188 130.785156 49.242188 C 131.746094 49.242188 132.289062 48.796875 132.289062 48.058594 L 132.289062 45.597656 Z M 133.445312 45.597656 "/>
<path style=" stroke:none;fill-rule:nonzero;fill:rgb(6.27451%,9.411765%,12.54902%);fill-opacity:1;" d="M 138.117188 46.328125 L 136.160156 46.328125 L 136.160156 45.589844 L 141.238281 45.589844 L 141.238281 46.328125 L 139.28125 46.328125 L 139.28125 49.886719 L 138.117188 49.886719 Z M 138.117188 46.328125 "/>
<path style=" stroke:none;fill-rule:nonzero;fill:rgb(6.27451%,9.411765%,12.54902%);fill-opacity:1;" d="M 143.890625 49.890625 L 143.890625 45.589844 L 145.042969 45.589844 L 145.042969 49.890625 Z M 143.890625 49.890625 "/>
<path style=" stroke:none;fill-rule:nonzero;fill:rgb(6.27451%,9.411765%,12.54902%);fill-opacity:1;" d="M 154.328125 47.765625 C 154.3125 48.875 153.332031 49.988281 151.164062 49.988281 C 148.996094 49.988281 148 48.902344 148 47.769531 C 148 46.640625 149.039062 45.503906 151.171875 45.503906 C 153.304688 45.503906 154.34375 46.640625 154.328125 47.765625 Z M 149.136719 47.78125 C 149.164062 48.492188 149.707031 49.242188 151.164062 49.242188 C 152.617188 49.242188 153.164062 48.484375 153.179688 47.777344 C 153.195312 47.066406 152.617188 46.242188 151.164062 46.242188 C 149.707031 46.242188 149.109375 47.058594 149.136719 47.78125 Z M 149.136719 47.78125 "/>
<path style=" stroke:none;fill-rule:nonzero;fill:rgb(6.27451%,9.411765%,12.54902%);fill-opacity:1;" d="M 161.175781 45.585938 L 162.339844 45.585938 L 162.339844 49.890625 L 161.617188 49.890625 L 158.371094 46.984375 L 158.371094 49.882812 L 157.203125 49.882812 L 157.203125 45.589844 L 158.148438 45.589844 L 161.167969 48.253906 Z M 161.175781 45.585938 "/>
<path style=" stroke:none;fill-rule:nonzero;fill:rgb(6.27451%,9.411765%,12.54902%);fill-opacity:1;" d="M 169.25 46.628906 C 169.039062 46.382812 168.457031 46.152344 167.785156 46.152344 C 166.921875 46.152344 166.507812 46.402344 166.507812 46.71875 C 166.507812 47.097656 167.140625 47.199219 167.890625 47.261719 C 169.175781 47.371094 170.375 47.605469 170.375 48.632812 C 170.375 49.585938 169.160156 50 167.785156 50 C 166.527344 50 165.554688 49.730469 165.097656 48.945312 L 166.066406 48.59375 C 166.339844 49.054688 167.050781 49.285156 167.800781 49.285156 C 168.554688 49.285156 169.21875 49.105469 169.21875 48.640625 C 169.21875 48.234375 168.613281 48.070312 167.792969 48.007812 C 166.53125 47.902344 165.371094 47.667969 165.371094 46.707031 C 165.371094 45.820312 166.621094 45.460938 167.757812 45.453125 C 168.71875 45.453125 169.714844 45.644531 170.183594 46.304688 Z M 169.25 46.628906 "/>
<path style=" stroke:none;fill-rule:nonzero;fill:rgb(6.27451%,9.411765%,12.54902%);fill-opacity:1;" d="M 17.765625 47.125 L 21.554688 47.125 L 21.554688 48.035156 L 17.765625 48.035156 Z M 17.765625 47.125 "/>
<path style=" stroke:none;fill-rule:nonzero;fill:rgb(6.27451%,9.411765%,12.54902%);fill-opacity:1;" d="M 0.898438 45.332031 L 5.746094 45.332031 L 5.746094 46.242188 L 0.898438 46.242188 Z M 0.898438 45.332031 "/>
<path style=" stroke:none;fill-rule:nonzero;fill:rgb(6.27451%,9.411765%,12.54902%);fill-opacity:1;" d="M 0.898438 48.847656 L 5.746094 48.847656 L 5.746094 49.757812 L 0.898438 49.757812 Z M 0.898438 48.847656 "/>
<path style=" stroke:none;fill-rule:nonzero;fill:rgb(6.27451%,9.411765%,12.54902%);fill-opacity:1;" d="M 0.898438 47.152344 L 4.6875 47.152344 L 4.6875 48.0625 L 0.898438 48.0625 Z M 0.898438 47.152344 "/>
<path style=" stroke:none;fill-rule:nonzero;fill:rgb(6.27451%,9.411765%,12.54902%);fill-opacity:1;" d="M 17.765625 45.476562 L 22.613281 45.476562 L 22.613281 46.386719 L 17.765625 46.386719 Z M 17.765625 45.476562 "/>
<path style=" stroke:none;fill-rule:nonzero;fill:rgb(6.27451%,9.411765%,12.54902%);fill-opacity:1;" d="M 17.765625 48.996094 L 22.613281 48.996094 L 22.613281 49.90625 L 17.765625 49.90625 Z M 17.765625 48.996094 "/>
<path style=" stroke:none;fill-rule:nonzero;fill:rgb(6.27451%,9.411765%,12.54902%);fill-opacity:1;" d="M 76.578125 45.332031 L 81.429688 45.332031 L 81.429688 46.242188 L 76.578125 46.242188 Z M 76.578125 45.332031 "/>
<path style=" stroke:none;fill-rule:nonzero;fill:rgb(6.27451%,9.411765%,12.54902%);fill-opacity:1;" d="M 76.578125 48.847656 L 81.429688 48.847656 L 81.429688 49.757812 L 76.578125 49.757812 Z M 76.578125 48.847656 "/>
<path style=" stroke:none;fill-rule:nonzero;fill:rgb(6.27451%,9.411765%,12.54902%);fill-opacity:1;" d="M 76.578125 47.152344 L 80.371094 47.152344 L 80.371094 48.0625 L 76.578125 48.0625 Z M 76.578125 47.152344 "/>
</g>
</svg>
