<svg xmlns="http://www.w3.org/2000/svg" viewBox="0 0 751.5 216.94"><defs><style>.a{fill:#101820;}</style></defs><path class="a" d="M625.05,0c1.09,2.26,3.11,4.51,3.13,6.77.23,24.08.05,48.17.21,72.25,0,4.85-1.78,6.67-6.55,6.64-18-.15-36,.69-53.92-.32C547.3,84.18,528.24,78,514.5,61.21c-9.21-11.25-8.9-26.31.7-37.33C527.55,9.71,544.05,3.7,562.1,1c1.65-.25,3.27-.69,4.9-1ZM616,8.37c-17.48,0-34.61-.85-51.61.26A55.81,55.81,0,0,0,528.06,25c-10.81,10.78-10.68,25.33.09,36.16a51,51,0,0,0,29.94,15c12.87,1.67,26,1.65,39,2.17,6.22.25,12.44,0,18.9,0Z"/><path class="a" d="M748.27,0c1.05,2.28,3,4.55,3,6.86.29,13.73,0,27.48.23,41.23.09,5.06-2.37,6.66-6.76,6.66q-53.44,0-106.9,0c-5.5,0-6.67-1.46-6.68-7.11,0-13.57-.14-27.15.14-40.72,0-2.32,1.9-4.59,2.91-6.89ZM739,46.8V8.18H643.61V46.8Z"/><path class="a" d="M476.9,50.61h-237V4.19h237Z"/><path class="a" d="M.05,166.32V119.55H202.24v46.77Z"/><path class="a" d="M202.24,50.61H.23V4.26h202Z"/><path class="a" d="M202.3,62.17v46H0v-46Z"/><path class="a" d="M320.78,166.29V62.16h74.88V166.29Z"/><path class="a" d="M665.5,170.31c-9,0-18,.07-27,0-6.44-.07-7.36-1.07-7.36-7.35q0-35.62,0-71.25c0-5.56,1.28-7,6.79-7,17.13-.06,34.28-.47,51.39.13,16.53.58,32,5.18,45.67,15,9.81,7.07,16.78,15.77,16.39,28.7a29.67,29.67,0,0,1-9,20.42c-13.55,13.8-30.7,19.51-49.42,20.9-9.11.68-18.31.12-27.46.12Zm-22-6.71c18.77-.73,37.21-.86,55.53-2.37,11.64-1,22.18-6,30.93-14.09,13.08-12,12.55-28.81-1.18-40.09-8.84-7.26-19-12.54-30.27-13.29-17.89-1.19-35.89-.89-53.84-1.19-.42,0-.85.45-1.17.64Z"/><path class="a" d="M568.56,170.32q-25.93,0-51.88,0c-8,0-8.74-.78-8.74-8.6,0-13.05.19-26.11-.1-39.16-.1-5,2.1-6.76,6.53-7,1.35-.06,2.71-.06,4.06-.06q49.85,0,99.69,0c1.85,0,3.71.17,5.57.34,3.24.29,4.69,2,4.67,5.36-.1,14.41-.15,28.82,0,43.22,0,4.74-2.6,5.8-6.42,5.82-11.69,0-23.39,0-35.09,0ZM616,123.61H520.4v39H616Z"/><path class="a" d="M59.08,203l-8.74,8.1h-1l-8.54-8.12v13.56H35.75V197.84h5.82l8.39,8,8.39-8h5.78v18.65h-5Z"/><path class="a" d="M133.42,216.46h-6l-7.81-6.23h-4.87v6.23h-5V197.78l12.75,0c6.32,0,9.65,3,9.65,6.18,0,2.56-1.68,5.14-6.78,5.86l8.12,6.37Zm-18.69-15.37v6h7.7c3.22,0,4.6-1.5,4.6-3s-1.42-3-4.6-3Z"/><path class="a" d="M163.83,202.37A13.05,13.05,0,0,0,157,200.5c-5.75,0-9.23,3-9.23,6.87,0,3.07,2.56,6.24,9.23,6.24a11.61,11.61,0,0,0,6-1.49v-3.31h-6.86v-3.14H167.7v7.86c-2.64,2.1-6,3.36-10.68,3.36-10.08,0-14.17-4.61-14.17-9.52,0-5.24,4.71-10.09,14.17-10.09a17.79,17.79,0,0,1,9.95,2.85Z"/><path class="a" d="M180.31,216.46V197.81h5v18.65Z"/><path class="a" d="M216.12,197.78h5v18.68H218v0l-14.09-12.61v12.58h-5.06V197.81H203l13.14,11.56Z"/><path class="a" d="M254.15,202.37a13.06,13.06,0,0,0-6.82-1.87c-5.74,0-9.23,3-9.23,6.87,0,3.07,2.57,6.24,9.23,6.24a11.63,11.63,0,0,0,6.06-1.49v-3.31h-6.86v-3.14H258v7.86c-2.64,2.1-6,3.36-10.69,3.36-10.07,0-14.17-4.61-14.17-9.52,0-5.24,4.71-10.09,14.17-10.09a17.84,17.84,0,0,1,10,2.85Z"/><path class="a" d="M309.84,201h-8.5v-3.2H323.4V201h-8.5v15.45h-5.06Z"/><path class="a" d="M390.85,214.12a17.91,17.91,0,0,1-10.18,2.77c-10,0-14.17-4.77-14.21-9.62s4.52-9.83,14.21-9.83a17.38,17.38,0,0,1,9.84,2.85l-3.37,2.26a11.7,11.7,0,0,0-6.47-1.76c-6.48,0-9.27,3.36-9.23,6.48s2.6,6.31,9.23,6.31a12.47,12.47,0,0,0,6.74-1.89Z"/><path class="a" d="M420.38,216.49V209H407.21v7.54h-5.06V197.84h5.06v7.86h13.17v-7.86h5v18.65Z"/><path class="a" d="M471.29,202.31c-.92-1.06-3.45-2.07-6.36-2.07-3.75,0-5.55,1.09-5.55,2.47,0,1.63,2.76,2.08,6,2.35,5.59.48,10.8,1.49,10.8,5.94,0,4.15-5.28,5.94-11.26,5.94-5.47,0-9.69-1.17-11.68-4.58l4.21-1.52c1.19,2,4.29,3,7.55,3s6.17-.78,6.17-2.8c0-1.76-2.65-2.48-6.21-2.75-5.47-.45-10.53-1.46-10.53-5.64,0-3.84,5.44-5.41,10.38-5.44,4.17,0,8.5.83,10.53,3.7Z"/><path class="a" d="M514.84,207.24c-.08,4.82-4.33,9.65-13.75,9.65s-13.79-4.72-13.79-9.62,4.52-9.83,13.79-9.83S514.92,202.37,514.84,207.24Zm-22.56.08c.11,3.07,2.49,6.34,8.81,6.34s8.69-3.3,8.77-6.37-2.45-6.66-8.77-6.66S492.17,204.18,492.28,207.32Z"/><path class="a" d="M532,197.81v15.4h13.79v3.25H527V197.81Z"/><path class="a" d="M579.76,197.84v10.68c0,5.52-4.86,8.34-11.6,8.34-6.44,0-11.91-2.72-11.91-8.34V197.84h5v10.68c0,3.36,2.76,5.14,6.94,5.14s6.54-1.94,6.54-5.14V197.84Z"/><path class="a" d="M600.06,201h-8.5v-3.2h22.06V201h-8.5v15.45h-5.06Z"/><path class="a" d="M625.15,216.46V197.81h5v18.65Z"/><path class="a" d="M670.5,207.24c-.07,4.82-4.33,9.65-13.75,9.65S643,212.17,643,207.27s4.52-9.83,13.79-9.83S670.58,202.37,670.5,207.24Zm-22.56.08c.12,3.07,2.49,6.34,8.81,6.34s8.7-3.3,8.77-6.37-2.45-6.66-8.77-6.66S647.83,204.18,647.94,207.32Z"/><path class="a" d="M700.26,197.78h5.06v18.68h-3.14v0l-14.1-12.61v12.58H683V197.81h4.1l13.13,11.56Z"/><path class="a" d="M735.35,202.31c-.92-1.06-3.45-2.07-6.36-2.07-3.75,0-5.55,1.09-5.55,2.47,0,1.63,2.75,2.08,6,2.35,5.59.48,10.8,1.49,10.8,5.94,0,4.15-5.28,5.94-11.26,5.94-5.47,0-9.69-1.17-11.68-4.58l4.21-1.52c1.19,2,4.29,3,7.55,3s6.16-.78,6.16-2.8c0-1.76-2.64-2.48-6.2-2.75-5.48-.45-10.53-1.46-10.53-5.64,0-3.84,5.44-5.41,10.38-5.44,4.17,0,8.5.83,10.53,3.7Z"/><rect class="a" x="77.05" y="204.46" width="16.47" height="3.95"/><rect class="a" x="3.75" y="196.68" width="21.08" height="3.95"/><rect class="a" x="3.75" y="211.94" width="21.08" height="3.95"/><rect class="a" x="3.75" y="204.58" width="16.47" height="3.95"/><rect class="a" x="77.05" y="197.32" width="21.08" height="3.95"/><rect class="a" x="77.05" y="212.58" width="21.08" height="3.95"/><rect class="a" x="332.64" y="196.68" width="21.08" height="3.95"/><rect class="a" x="332.64" y="211.94" width="21.08" height="3.95"/><rect class="a" x="332.64" y="204.58" width="16.47" height="3.95"/></svg>