<svg xmlns="http://www.w3.org/2000/svg" viewBox="0 0 137.61 136.25"><defs><style>.a{fill:#231f20;}</style></defs><path class="a" d="M115.91,59.3a5,5,0,0,0-4.9.86,7.2,7.2,0,0,0-1.7,4.78l-.07,4.82c-.11,8.23-.23,16.74.1,25.1a12.29,12.29,0,0,1-3.22,9.35c-2.24,2.25-5.52,3.36-9.52,3.23-7.48-.27-14.88-.18-23.69,0a10.61,10.61,0,0,0-5.67,1.88c-4.44,3.2-8.88,6.55-13.17,9.78-2.69,2-5.37,4-8.07,6a5.46,5.46,0,0,1-1.56.64l-.1,0s0,0,0-.08a5.33,5.33,0,0,1-.37-1.68c0-1.95.12-3.94.22-5.87.07-1.49.14-3,.18-4.49.07-2.24-.36-3.76-1.36-4.79s-2.47-1.51-4.67-1.53q-4.76,0-9.52,0H21.94c-8,0-12.13-4.11-12.14-12.13q0-8.66,0-17.31c0-11,0-22.41-.07-33.61a12.13,12.13,0,0,1,3.34-9,11.66,11.66,0,0,1,8.79-3.16c11.63.25,23.45.19,34.88.14l12.94-.05c3.71,0,6-1.9,6.11-4.95A4.5,4.5,0,0,0,74.55,24a6.4,6.4,0,0,0-4.72-1.63q-24.93,0-49.88,0a15.59,15.59,0,0,0-3.52.33C6.36,24.89.07,32.66,0,42.92,0,58.57,0,74.49,0,89.88V96.7a21,21,0,0,0,.41,4.57c2.22,9.68,9.94,15.79,20.13,15.94,3.29,0,6.61,0,9.82,0H33.9c0,.77,0,1.52,0,2.24,0,2.15,0,4.16,0,6.16a10.27,10.27,0,0,0,4.93,9,9.94,9.94,0,0,0,5.42,1.66,11.62,11.62,0,0,0,6.9-2.51c6-4.44,12.9-9.61,19.7-14.86a7.53,7.53,0,0,1,5.17-1.7c3.43,0,6.92,0,10.3,0,3.94,0,8,0,12,0a20.09,20.09,0,0,0,14.76-5.88,20.81,20.81,0,0,0,6.14-15.27c-.09-5.93-.06-12,0-17.8q0-4.08,0-8.16c0-.62,0-1.25.05-1.88a18.63,18.63,0,0,0-.21-4.77A6.66,6.66,0,0,0,115.91,59.3Z"/><path class="a" d="M137.15,19.64c-.94-2.43-3.24-4.11-6.32-4.61-6.9-1.12-11.36-4.39-14.47-10.59A7.68,7.68,0,0,0,109.47,0h0a7.7,7.7,0,0,0-6.9,4.51c-3,6.13-7.49,9.38-14.5,10.53-3.15.52-5.49,2.24-6.4,4.71-1,2.67-.2,5.9,2.1,8.65l1.5,1.77c1.26,1.49,2.57,3,3.79,4.59a3,3,0,0,1,.69,1.71c-.1,2.61-.33,5.27-.55,7.84l-.08.91a8.24,8.24,0,0,0,3,7.52,8.35,8.35,0,0,0,8.11.88l.27-.1c2.24-.83,4.56-1.69,6.76-2.75a4.62,4.62,0,0,1,4.42-.05c2.69,1.27,5.43,2.29,7.51,3a9,9,0,0,0,3,.54,7.88,7.88,0,0,0,3.53-.81,7.08,7.08,0,0,0,3.64-4.29,12,12,0,0,0,.38-3.37c0-.43,0-.86,0-1.27v-.14c0-.57-.1-1.13-.14-1.67-.1-1.2-.19-2.33-.37-3.47-.45-2.69.08-4.5,1.75-6.05a32.28,32.28,0,0,0,3.45-4c.28-.36.55-.72.83-1.07C137.48,25.46,138.17,22.26,137.15,19.64ZM119.36,39.42a28.88,28.88,0,0,1,.28,3.29l0,.55-1.47-.57c-2-.76-3.86-1.48-5.68-2.29a7,7,0,0,0-6.14,0c-1.75.81-3.59,1.51-5.53,2.25l-1.53.59.06-1.41c.09-2,.17-3.8.43-5.6a7.61,7.61,0,0,0-2-6.63c-1.29-1.44-2.52-2.95-3.83-4.54l-1-1.16,1.48-.35a46.94,46.94,0,0,0,6-1.69,11.71,11.71,0,0,0,4.74-3.45,44,44,0,0,0,3.4-5.17l.79-1.32c.27.41.54.82.8,1.23,1.12,1.71,2.17,3.32,3.12,5a7.57,7.57,0,0,0,5.4,3.92c1.83.37,3.67.87,5.62,1.39l1.51.41-.48.65a18.92,18.92,0,0,1-2.58,3C118.62,31.29,118.76,35.85,119.36,39.42Z"/><path class="a" d="M86.68,62.76A4.69,4.69,0,0,0,88,59.35c0-3-2.25-4.83-5.83-4.84H38.85c-3.68,0-5.83,1.74-5.92,4.75a4.74,4.74,0,0,0,1.34,3.46,6,6,0,0,0,4.37,1.7c7.26,0,14.68,0,22.21,0l21.41,0A6.11,6.11,0,0,0,86.68,62.76Z"/><path class="a" d="M53.37,75.25H46.45c-2.74,0-5.57,0-8.35,0-3,0-5.06,1.89-5.17,4.68a4.77,4.77,0,0,0,1.3,3.51A5,5,0,0,0,37.83,85c4,0,8.14.07,12.33.07C54,85,57.84,85,61.75,85a4.77,4.77,0,0,0,5-4.86c0-2.9-2.07-4.81-5.27-4.85C58.79,75.23,56,75.24,53.37,75.25Z"/></svg>