<svg xmlns="http://www.w3.org/2000/svg" viewBox="0 0 148.68 215.67"><path d="M74.16,0c42.65.29,77.26,36.39,74,78.81-.8,10.33-4.44,20.93-8.92,30.39-14.28,30.11-36.42,54.35-60.38,77-2.7,2.56-5.77,2.83-8.49.24C44.59,162,21,135.88,6.55,102.82-12.88,58.37,15.68,12.24,56.92,2.65,62.57,1.34,68.41.86,74.16,0Zm-.22,174.21c5.38-5.18,10.43-9.57,14.93-14.46,16.51-18,31.87-36.78,41.94-59.32,5.21-11.68,7.84-23.82,5.28-36.5-5.11-25.26-20-42.44-44.8-49.43-24.6-6.95-46.52-.44-63.5,18.69S7.17,74.54,17.23,98.33C29.9,128.26,51.57,151.52,73.94,174.21Z"/><path d="M79.09,215.67c-23-.36-40.83-2.23-57.54-9.7a55.5,55.5,0,0,1-15-9.7c-8.61-8-8.92-19.52-.11-27.26,5.84-5.13,13.36-8.44,20.36-12.11,3.22-1.69,5.87.26,7.09,3.49s-.07,5.52-3,7c-4.29,2.19-8.88,3.92-12.84,6.59-8.36,5.65-8.27,11.33.08,17.14s18,8.53,27.88,10.31c23.64,4.24,47.15,3.92,70.13-3.52a62.47,62.47,0,0,0,17-9c5.37-3.9,5.24-8.83,0-12.9-4.15-3.2-9-5.52-13.78-7.85-3.58-1.76-6.07-3.84-4.32-8.07s5.21-4.43,8.75-2.68c5.19,2.58,10.63,5,15.22,8.42,12.89,9.72,12.79,23.58.05,33.46-10.3,8-22.49,11.51-35,13.6C94.24,214.49,84.24,215.11,79.09,215.67Z"/><path d="M74.3,103.32a28.73,28.73,0,1,1,29-28.74A28.87,28.87,0,0,1,74.3,103.32ZM91.58,74.56a17.16,17.16,0,1,0-17,17.32A17.27,17.27,0,0,0,91.58,74.56Z"/></svg>