<svg xmlns="http://www.w3.org/2000/svg" viewBox="0 0 193.22 134.81"><path d="M184.16,92.09c-14.78-23-44.36-33.08-71.91-24.56A60.82,60.82,0,0,0,83.13,87.09a7.3,7.3,0,0,0-4.37-4.87c-17.21-8-34.41-8.18-51.14-.54C10.25,89.62,1,103.09,0,121.71c-.19,3.88.85,7.15,3,9.44s5.52,3.59,9.55,3.6q9.09,0,18.18,0H52.19l3.6,0h.26c1.28,0,2.58,0,3.89,0,2.82,0,5-.06,7-.2s3.3-1.63,4.28-2.73c.3-.34.58-.66.81-.87l.74-.66a9.07,9.07,0,0,0,.86,1c2.24,2.26,5.52,3.4,9.76,3.4h97.44a11.55,11.55,0,0,0,12.35-12.46A55.93,55.93,0,0,0,184.16,92.09Zm-9.84,6.06a45.83,45.83,0,0,1,7.35,22.32,12.88,12.88,0,0,1,0,2.61,13.55,13.55,0,0,1-2.58.16H84.63a14,14,0,0,1-2.72-.16,16.09,16.09,0,0,1,0-2.87c1-19.88,15.56-36.93,36.26-42.41C139.63,72.11,162.73,80.48,174.32,98.15Zm-109.45,25a3.91,3.91,0,0,1-.46,0H13.88a10.83,10.83,0,0,1-2.36-.17,10,10,0,0,1,0-2.39,32.22,32.22,0,0,1,6.84-17.62c7.53-9.38,17.94-14.34,31.82-15.18A48.23,48.23,0,0,1,73.7,92.5a8.84,8.84,0,0,0,5,.7,54.36,54.36,0,0,0-8.41,28.35,18.91,18.91,0,0,0,.38,4,13.79,13.79,0,0,0-2.34-1.81A5.41,5.41,0,0,0,64.87,123.2Z"/><path d="M131.76,64.33h0A32.17,32.17,0,1,0,99.65,32.14,31.93,31.93,0,0,0,131.8,64.33Zm-20.6-32.18a20.74,20.74,0,0,1,20.73-20.63A20.87,20.87,0,0,1,152.41,32a20.64,20.64,0,0,1-6,14.7,20.62,20.62,0,0,1-35.2-14.56Z"/><path d="M52.47,76.07h.1A26.3,26.3,0,0,0,71.29,31.25,25.78,25.78,0,0,0,53,23.47h-.21A26.4,26.4,0,0,0,34.12,31.1a25.88,25.88,0,0,0-7.76,18.42A26.33,26.33,0,0,0,34,68.32,26,26,0,0,0,52.47,76.07ZM52.63,35V33.58l0,1.42a14.59,14.59,0,0,1,10.4,4.43A14.75,14.75,0,0,1,67.39,50,15,15,0,0,1,52.57,64.55a14.91,14.91,0,0,1-14.7-15A15,15,0,0,1,52.63,35Z"/></svg>