<svg xmlns="http://www.w3.org/2000/svg" viewBox="0 0 180.08 128.57"><path d="M180.05,98.07c-.18-17.31-14.42-33-31.76-35a38.16,38.16,0,0,0-24.52,5.44A50.89,50.89,0,0,0,89.09,55.68,51.76,51.76,0,0,0,54.93,69.89l-.1-.06-1.89-1a36.38,36.38,0,0,0-32.19-.39A35.74,35.74,0,0,0,1,93.17,56.59,56.59,0,0,0,0,105.35c0,1.16,0,2.31,0,3.45-.07,3.57.72,6.14,2.41,7.87s4.29,2.61,7.93,2.62h1.38c8.85,0,18,.07,27,0,1.55,0,1.89.23,2.3,1.68a9.86,9.86,0,0,0,9.91,7.61q19.31,0,38.64,0c13.26,0,26.47,0,39.54,0a10.12,10.12,0,0,0,9.92-7.6,27.18,27.18,0,0,0,.69-3.3l.09-.49h10.41q10.25,0,20.49,0c5.59,0,9.25-3.65,9.33-9.24C180.09,105.05,180.09,101.93,180.05,98.07Zm-8.63,7.37c0,.65,0,1.31,0,2a2.83,2.83,0,0,1-1,1.09c-8.39.13-16.66.12-25.41.11h-5.21c.2-13.25-3.13-24.2-10.14-33.37a26.94,26.94,0,0,1,24.59-1.7c8.85,3.62,15.06,11,16.62,19.79A66.71,66.71,0,0,1,171.42,105.44Zm-40.42-2c.18,4,.12,8.14.06,12.12v1.35c0,2.52-.62,3.07-3.26,3.08h-75c-1.79,0-2.83-.22-3.27-.68s-.58-1.43-.49-3c.11-2.06.16-4.16.21-6.2.13-5.37.27-10.92,1.51-16,4.56-18.86,22.91-31.63,42.65-29.71C114.58,66.4,130,82.48,131,103.44Zm-90.62,7.07c-.53,0-1,.09-1.45.1H30c-6.34,0-12.9,0-19.36.07-1.33,0-1.73-.22-1.87-.36s-.34-.55-.25-1.76c.12-1.68.15-3.38.18-5a50.66,50.66,0,0,1,.54-8c1.49-8.49,7.46-15.79,16-19.52a28.8,28.8,0,0,1,11.52-2.46,25.77,25.77,0,0,1,12.6,3.23C42.71,86.15,39.79,97.21,40.38,110.51Z"/><path d="M88.8,55.21h.26a27.7,27.7,0,0,0,19.6-8.15,27.35,27.35,0,0,0,8.26-19.49A27.71,27.71,0,0,0,89.22,0h-.08a28.05,28.05,0,0,0-20,8.19,27.11,27.11,0,0,0-8,19.3A27.91,27.91,0,0,0,88.8,55.21Zm.3-8.52h-.17a19.56,19.56,0,0,1-19.2-19.32,18.57,18.57,0,0,1,5.61-13.18A19.49,19.49,0,0,1,89.13,8.57h.16c10.43.08,19.18,8.79,19.12,19A19.68,19.68,0,0,1,89.1,46.69Z"/><path d="M36.56,62.85h.1A21.85,21.85,0,0,0,58.36,41,22,22,0,0,0,36.47,19.19h-.08A22,22,0,0,0,14.47,41.05a21.53,21.53,0,0,0,6.38,15.36A22.07,22.07,0,0,0,36.56,62.85ZM23,40.63A13.26,13.26,0,0,1,36.43,28h.32A13.07,13.07,0,0,1,49.81,41.57c-.15,7-6.27,12.77-13.43,12.77h-.25A13.44,13.44,0,0,1,23,40.63Z"/><path d="M143.58,61.54a22.21,22.21,0,0,0,22-21.78,22.14,22.14,0,0,0-21.93-22h-.2a22,22,0,0,0-21.77,22A22.17,22.17,0,0,0,143.58,61.54Zm0-35.16a13.34,13.34,0,0,1,9.47,4,13.14,13.14,0,0,1,3.94,9.4A13.58,13.58,0,0,1,143.63,53,13.38,13.38,0,0,1,134.15,49a13.19,13.19,0,0,1-3.93-9.47,13.35,13.35,0,0,1,13.32-13.19Z"/></svg>