<svg xmlns="http://www.w3.org/2000/svg" viewBox="0 0 141.73 139.13"><defs><style>.a{stroke:#000;stroke-miterlimit:10;stroke-width:1.7px;}</style></defs><path class="a" d="M42.61,83.71c1.35-1.63,2.31-2.77,3.26-3.93,13.94-17,38-23.88,58.62-16.68,21.3,7.43,35.89,27.24,36.39,48.86.18,8-3.69,13.26-10.1,17.06-8.75,5.16-18.51,7-28.42,8.3a122.48,122.48,0,0,1-42.67-2.15c-.45-.1-1.06-.49-1.32-.32-6.25,4.13-10.39-.93-14.21-4-6.58-5.28-12.26-5.63-18.51.12a28.57,28.57,0,0,1-7.07,4.49c-1.37.65-3.61,1.05-4.65.36s-1.53-3-1.25-4.41c1.07-5.32,2.74-10.51,3.74-15.84a6.31,6.31,0,0,0-1.51-5C11.06,107,6.69,104,2.79,100.38A6.21,6.21,0,0,1,.88,95.72c.16-1,2.42-2.29,3.85-2.45,4.79-.54,9.62-.72,14.44-.87,3.46-.11,5.69-1.29,6.75-5a78,78,0,0,1,4.78-12.1c.83-1.71,2.68-2.93,4.08-4.37,1.41,1.39,3.18,2.57,4.15,4.22C40.38,77.68,41.26,80.49,42.61,83.71Zm4.32,8.05c2.25.27,4.34.6,6.45.75,3.72.26,7.5.13,11.16.72,1.7.27,3.89,1.55,4.53,3,.43,1-1.22,3.22-2.41,4.43a30.48,30.48,0,0,1-6.8,5.65C53.06,110,51.92,115,54.62,122c1.3,3.36,2.66,5.26,6.33,6.1a114.24,114.24,0,0,0,44,1.47c7.53-1.22,14.9-4,22-6.88,4.53-1.81,7.17-5.67,6.67-11.16-2.16-23.75-17.55-40.25-41-43.83C75.16,65.06,54,76,46.93,91.76Zm-12-7.5C33.35,88.17,32,91,31.14,93.85c-1.18,3.78-3.31,5.61-7.47,5.37-2.92-.18-5.89.42-10,.77,3.34,2.78,5.51,4.76,7.85,6.5,2.94,2.21,4.19,4.61,2.69,8.39-1.13,2.86-1.47,6-2.38,10,3.56-2.22,6.3-3.69,8.77-5.52,2.92-2.15,5.53-2.18,8.48,0,2.56,1.84,5.36,3.34,8.89,5.51-1-4.32-1.56-7.69-2.67-10.85s-.2-5,2.19-6.79c2.68-2,5.2-4.28,8.73-7.21-4.33-.35-7.51-.88-10.67-.78-3.54.12-5.51-1.36-6.62-4.57S36.5,88.35,34.92,84.26Z"/><path class="a" d="M113.81,27.58A26.59,26.59,0,0,1,87.09,54.19C72.66,54.11,60.27,41.6,60.41,27.24A26.75,26.75,0,0,1,87.43.85,26.15,26.15,0,0,1,113.81,27.58ZM87.35,46.84a19.69,19.69,0,0,0,19.56-19.62A20.24,20.24,0,0,0,87.47,7.73c-10.56-.2-19.62,8.85-19.65,19.6A19.4,19.4,0,0,0,87.35,46.84Z"/></svg>