<svg xmlns="http://www.w3.org/2000/svg" viewBox="0 0 625.86 428.13"><defs><style>.a{opacity:0.41;}.b,.c,.i{fill:#c5d9ff;}.c{opacity:0.31;}.d{fill:#ecf1f7;}.e{fill:#243762;}.f{fill:#101820;}.g,.l{fill:#fff;}.h{fill:#777;}.i{opacity:0.43;}.j{opacity:0.26;}.k{fill:#f7a9b4;}.l{opacity:0.25;}</style></defs><g class="a"><path class="b" d="M603.37,306.25c3-67.83-30.55-126.1-81.24-158.93a37.75,37.75,0,0,1-16.92-27.53c-.07-.61-.14-1.22-.22-1.83C495.7,43.48,426.09-8.84,352,1.25,281,10.9,230,48.37,237.51,120.54c0,.34.07.84.12,1.46a34.47,34.47,0,0,1-33.77,36.67q-6.18.15-12.44.8c-84.61,8.84-146,84.88-137,169.77a153.94,153.94,0,0,0,49.21,97.39H544.71C578.23,394.54,601.41,350,603.37,306.25Z"/></g><path class="c" d="M164,99.71a18.24,18.24,0,1,1-18.24-18.24A18.24,18.24,0,0,1,164,99.71Z"/><circle class="c" cx="539.85" cy="30.21" r="16.01"/><path class="c" d="M625.86,186.28A10.9,10.9,0,1,1,615,175.39,10.9,10.9,0,0,1,625.86,186.28Z"/><path class="c" d="M21.8,325.83a10.9,10.9,0,1,1-10.9-10.9A10.9,10.9,0,0,1,21.8,325.83Z"/><path class="b" d="M562.93,324c2.59-57.85-26-107.54-69.28-135.54a32.18,32.18,0,0,1-14.43-23.48c-.06-.52-.12-1-.19-1.56C471.11,99.86,411.74,55.24,348.5,63.84,288,72.07,244.48,104,250.91,165.58c0,.29.06.71.1,1.25a29.4,29.4,0,0,1-28.8,31.27q-5.27.12-10.61.68c-72.16,7.54-124.51,72.39-116.82,144.79a131.24,131.24,0,0,0,42,83.06H512.9C541.49,399.26,561.26,361.3,562.93,324Z"/><path class="d" d="M521.2,382.88H158.38V139.78a7.37,7.37,0,0,1,7.36-7.37H513.83a7.37,7.37,0,0,1,7.37,7.37Z"/><path class="e" d="M522.14,383.82H157.44v-244a8.31,8.31,0,0,1,8.3-8.3H513.83a8.31,8.31,0,0,1,8.31,8.3ZM159.32,382H520.26V139.78a6.43,6.43,0,0,0-6.43-6.43H165.74a6.43,6.43,0,0,0-6.42,6.43Z"/><rect class="d" x="316.5" y="369.04" width="46.58" height="3.73"/><path class="e" d="M364,373.7H315.56v-5.6H364Zm-46.58-1.87h44.7V370h-44.7Z"/><path class="d" d="M342.62,142.77a2.83,2.83,0,1,1-2.83-2.69A2.77,2.77,0,0,1,342.62,142.77Z"/><path class="e" d="M339.79,146.4a3.63,3.63,0,1,1,3.77-3.63A3.71,3.71,0,0,1,339.79,146.4Zm0-5.38a1.76,1.76,0,1,0,1.89,1.75A1.82,1.82,0,0,0,339.79,141Z"/><path class="f" d="M559.63,426.86H119.41c-4.77,0-8.65-2.59-8.65-5.78V412c0-.9,1.1-1.63,2.44-1.63h453c1.35,0,2.44.73,2.44,1.63v8.85C568.66,424.16,564.62,426.86,559.63,426.86Z"/><path class="f" d="M559.63,427.8H119.41c-5.37,0-9.58-2.95-9.58-6.72V412c0-1.44,1.48-2.57,3.37-2.57h453c1.9,0,3.38,1.13,3.38,2.57v8.85C569.6,424.74,565.22,427.8,559.63,427.8ZM113.2,411.29c-.93,0-1.5.45-1.5.69v9.1c0,2.63,3.53,4.84,7.71,4.84H559.63c4.39,0,8.09-2.33,8.09-5.09V412c0-.24-.57-.69-1.5-.69Z"/><rect class="g" x="174.41" y="152.3" width="330.75" height="211.78" rx="8.06"/><path class="e" d="M497.1,365H182.48a9,9,0,0,1-9-9V160.36a9,9,0,0,1,9-9H497.1a9,9,0,0,1,9,9V356A9,9,0,0,1,497.1,365ZM182.48,153.19a7.18,7.18,0,0,0-7.17,7.17V356a7.17,7.17,0,0,0,7.17,7.16H497.1a7.17,7.17,0,0,0,7.17-7.16V160.36a7.18,7.18,0,0,0-7.17-7.17Z"/><path class="h" d="M503.7,166.48v-5.6c0-4.07-3.58-7.37-8-7.37H183.49c-4.42,0-8,3.3-8,7.37v5.62Z"/><path class="h" d="M476,160.36a1.86,1.86,0,1,1-1.86-1.86A1.86,1.86,0,0,1,476,160.36Z"/><circle class="h" cx="481.56" cy="160.36" r="1.86"/><circle class="h" cx="489.01" cy="160.36" r="1.86"/><rect class="i" x="202.56" y="189.83" width="271.77" height="146.9"/><path class="d" d="M159.78,382.17l-47.61,28h0l454.05-.2-43.85-27.66Z"/><path class="e" d="M112.43,411.08h-.26v-.94l-.47-.8,47.82-28.11h.26l362.86.12,46.83,29.53Zm47.6-28-44.41,26.1L563,409,522.1,383.22Z"/><g class="j"><path class="d" d="M219.91,382.17l-31.64,18.6h0l301.86-.13L461,382.25Z"/><path class="e" d="M184.81,401.71l34.85-20.48,241.59.08,32.12,20.26Zm35.36-18.6-28.45,16.72,295.16-.13L460.7,383.19Z"/></g><path class="f" d="M297.36,251a2.81,2.81,0,0,1-2.82-2.81,11.26,11.26,0,0,0-22.52,0,2.82,2.82,0,0,1-5.63,0,16.89,16.89,0,0,1,33.78,0A2.81,2.81,0,0,1,297.36,251Z"/><path class="f" d="M410.07,251a2.81,2.81,0,0,1-2.82-2.81,11.26,11.26,0,0,0-22.52,0,2.82,2.82,0,0,1-5.63,0,16.89,16.89,0,0,1,33.78,0A2.81,2.81,0,0,1,410.07,251Z"/><path class="f" d="M339.59,311.13a47.3,47.3,0,0,1-47-46,3.79,3.79,0,0,1,3.78-3.86h90.28v2.82A47.09,47.09,0,0,1,339.59,311.13ZM298.28,266.9a41.41,41.41,0,0,0,82.62,0Z"/><path class="e" d="M503.79,167.48H250.38a1,1,0,0,1,0-2H503.79a1,1,0,1,1,0,2Z"/><path class="f" d="M453.74,133.15V100.89c0-17.18,12.66-31.17,28.21-31.17h22.8c15.56,0,28.22,14,28.22,31.17v32.26c0,17.19-12.66,31.17-28.22,31.17H482C466.4,164.32,453.74,150.34,453.74,133.15ZM482,84.41c-8.22,0-14.91,7.39-14.91,16.48v32.26c0,9.09,6.69,16.48,14.91,16.48h22.8c8.23,0,14.92-7.39,14.92-16.48V100.89c0-9.09-6.69-16.48-14.92-16.48Z"/><path class="g" d="M504.75,165.21H482c-16.05,0-29.1-14.38-29.1-32.06V100.89c0-17.68,13-32.06,29.1-32.06h22.8c16.06,0,29.11,14.38,29.11,32.06v32.26C533.86,150.83,520.81,165.21,504.75,165.21ZM482,70.62c-15.06,0-27.31,13.58-27.31,30.27v32.26c0,16.69,12.25,30.27,27.31,30.27h22.8c15.07,0,27.32-13.58,27.32-30.27V100.89c0-16.69-12.25-30.27-27.32-30.27Zm22.8,79.91H482c-8.72,0-15.81-7.8-15.81-17.38V100.89c0-9.58,7.09-17.37,15.81-17.37h22.8c8.72,0,15.81,7.79,15.81,17.37v32.26C520.56,142.73,513.47,150.53,504.75,150.53ZM482,85.31c-7.73,0-14,7-14,15.58v32.26c0,8.59,6.29,15.59,14,15.59h22.8c7.74,0,14-7,14-15.59V100.89c0-8.59-6.28-15.58-14-15.58Z"/><rect class="k" x="435.73" y="122.19" width="115.24" height="95.67" rx="13.42"/><path class="e" d="M540,218.75H507.59a.9.9,0,1,1,0-1.79H540a10.13,10.13,0,0,0,10.12-10.12V142.67a.9.9,0,0,1,1.79,0v64.17A11.92,11.92,0,0,1,540,218.75Z"/><rect class="l" x="443.62" y="135.27" width="99.48" height="74.08" rx="13.42"/><path class="f" d="M479.9,161.73a13.46,13.46,0,1,1,17.35,12.81V192h-7.79V174.54A13.4,13.4,0,0,1,479.9,161.73Z"/><path class="e" d="M600.74,428.13h-521a1.51,1.51,0,0,1,0-3h521a1.51,1.51,0,0,1,0,3Z"/><path class="f" d="M572.39,133.62A21.67,21.67,0,1,1,550.72,112,21.68,21.68,0,0,1,572.39,133.62Z"/><path class="e" d="M530.19,154.15a.92.92,0,0,1,0-1.32.94.94,0,0,1,1.33,0,27.54,27.54,0,1,0,0-39,.94.94,0,1,1-1.33-1.33,29.42,29.42,0,1,1,0,41.6Z"/><path class="g" d="M550.41,145.41a2.92,2.92,0,0,1-2.06-.75,2.43,2.43,0,0,1-.81-1.83,2.36,2.36,0,0,1,.82-1.84,3,3,0,0,1,2-.72,2.93,2.93,0,0,1,2,.73,2.36,2.36,0,0,1,.79,1.83,2.44,2.44,0,0,1-.78,1.85A2.89,2.89,0,0,1,550.41,145.41Zm2.47-20.53-.45,11.24a2.06,2.06,0,0,1-2.06,2h0a2.06,2.06,0,0,1-2.07-2l-.43-11.25a2.07,2.07,0,0,1,2.07-2.14h.87A2.07,2.07,0,0,1,552.88,124.88Z"/></svg>