<svg xmlns="http://www.w3.org/2000/svg" viewBox="0 0 105.56 133.49"><defs><style>.a{fill:#0e0f0f;}</style></defs><path class="a" d="M0,70.3Q0,45.46,0,20.61C0,12.05,4.76,7.28,13.3,7.26c3.78,0,7.57.08,11.35-.06A4.73,4.73,0,0,0,27.52,6,21.42,21.42,0,0,1,42.93,0C49.64.06,56.34,0,63,0a21.35,21.35,0,0,1,14.8,5.82,6,6,0,0,0,3.49,1.36c3.78.18,7.57,0,11.35.07,7.95,0,12.87,4.93,12.87,12.82q0,50.28,0,100.56c0,8-4.86,12.85-12.76,12.85H12.59C5,133.49,0,128.56,0,120.93Q0,95.63,0,70.3ZM21.86,15.16H13.57c-4.65,0-5.68,1-5.68,5.7V120c0,4.64,1,5.62,5.73,5.62q39.15,0,78.31,0c4.79,0,5.74-1,5.74-5.85V21.11c0-.79,0-1.58-.06-2.37a3.5,3.5,0,0,0-3.48-3.51c-3.44-.17-6.9-.05-10.48-.05.23,1.54.51,2.85.61,4.17.33,4.34-1,5.75-5.33,5.75h-53c-3.31,0-4.78-1.49-4.66-4.79C21.34,18.67,21.64,17,21.86,15.16ZM29.93,17h45.7c-1.3-4.85-5.76-8.81-10.79-8.95q-12-.35-24.11,0C35.71,8.19,31.24,12.15,29.93,17Z"/><path class="a" d="M42.75,51.11c-3.64,3.68-7.28,7.38-10.95,11a3.75,3.75,0,0,1-4.73.83,3.57,3.57,0,0,1-1.92-4.17,4.58,4.58,0,0,1,1.22-2.2Q33,49.84,39.69,43.17C42,40.92,44,41,46.24,43.24c3.64,3.61,7.26,7.25,10.88,10.87.05,0,.14.07.06,0l8.31-8.39c-.93-1.3-2.45-2.62-2.89-4.24-.59-2.15,1.2-4,3.47-4.08,3.39-.1,6.78-.08,10.17,0,2.3,0,3.71,1.57,3.76,4,.06,2.91,0,5.83,0,8.75s-1,4.46-3.09,4.82c-2.41.4-3.85-.68-5-4.07l-9.52,9.71c-.61.62-1.2,1.25-1.83,1.84-2.25,2.11-4.18,2.1-6.4-.06C50.43,58.7,46.68,55,42.75,51.11Z"/><path class="a" d="M66.05,81H80.69c2.93,0,4.9,1.62,4.89,4s-1.87,3.94-4.69,4q-15,.07-30,0c-2.92,0-4.53-1.56-4.52-4S48,81,50.94,81C56,80.94,61,81,66.05,81Z"/><path class="a" d="M66,111.25c-5.05,0-10.1,0-15.15,0-3,0-4.53-1.4-4.51-3.92s1.5-3.79,4.38-3.8q15.15,0,30.29,0c2.72,0,4.48,1.55,4.53,3.79s-1.88,3.93-4.64,3.94C76,111.26,71,111.25,66,111.25Z"/><path class="a" d="M28.1,106.23c1.61-1.76,3.15-3.54,4.79-5.21,2.13-2.17,4.53-2.37,6.2-.65s1.49,4-.67,6.22q-3.63,3.7-7.34,7.35c-2.21,2.17-4.14,2.18-6.35.06-1.14-1.08-2.25-2.2-3.34-3.33-1.87-1.91-2.07-4.21-.54-5.86s3.91-1.6,6,.31Z"/><path class="a" d="M28.1,83.68c1.8-1.91,3.42-3.72,5.14-5.43,1.93-1.93,4.16-2,5.82-.37s1.56,3.89-.33,5.84q-3.85,4-7.82,7.87c-2.11,2-4.05,2-6.19,0-1.14-1.08-2.23-2.21-3.32-3.35-1.86-2-2.08-4.24-.59-5.87,1.67-1.84,3.71-1.78,6,.18C27.12,82.82,27.41,83.08,28.1,83.68Z"/></svg>