<svg xmlns="http://www.w3.org/2000/svg" viewBox="0 0 155.79 155.79"><path d="M155.74,69.21a8.7,8.7,0,0,0-9-8.88c-1.21,0-2.43,0-3.65,0-2,0-4.13,0-6.19-.07a2.08,2.08,0,0,1-1.33-.64c-1.12-2.57-2.15-5.21-3.23-8l-1-2.46,1.91-1.82c1.83-1.74,3.73-3.53,5.55-5.42,4-4.16,4-9.14-.11-13.31-3.48-3.54-6.93-7-11-11.06-4.76-4.73-9.58-4.74-14.31,0-1.74,1.74-3.44,3.51-5.08,5.24-.59.62-1.18,1.24-1.77,1.84L105.14,24c-1.29-.61-2.4-1.14-3.56-1.63-.65-.27-1.33-.51-2-.74a21.1,21.1,0,0,1-3-1.23,2.57,2.57,0,0,1-1-1.65c-.1-2-.09-4.09-.08-6.1,0-1.24,0-2.49,0-3.73A8.69,8.69,0,0,0,86.66.05C80.7,0,74.79,0,69.1.05a8.7,8.7,0,0,0-8.78,8.87q0,1.9,0,3.81c0,2,0,4-.06,6a2.42,2.42,0,0,1-.74,1.54c-2.55,1.13-5.15,2.14-7.89,3.2l-2.39.93-.68-.71C47.72,22.82,46.84,21.9,46,21l-.4-.41c-1.2-1.22-2.44-2.48-3.71-3.68-4.12-3.84-9.14-3.82-13.11.08C24.59,21,20.62,25,17.28,28.42c-4.31,4.36-4.34,9.36-.09,13.71C19,44,20.82,45.7,22.6,47.39l1.86,1.76c-.34.85-.66,1.68-1,2.5-1.06,2.69-2.06,5.24-3.16,7.71a2.2,2.2,0,0,1-1.42.89c-2.09.1-4.23.09-6.31.08H9.07a8.69,8.69,0,0,0-9,8.89C0,74.71,0,80.37,0,86.5a8.71,8.71,0,0,0,9,9c1.23,0,2.46,0,3.69,0,2,0,4.11,0,6.15.07a2.24,2.24,0,0,1,1.47.82c1.11,2.49,2.11,5.06,3.17,7.78l1,2.52-2.07,2c-1.91,1.79-3.87,3.65-5.72,5.6-3.59,3.8-3.52,8.9.17,12.7,2.29,2.34,4.65,4.69,6.93,7,1.56,1.56,3.13,3.12,4.68,4.69.72.72,2.89,2.91,5.21.71a3.08,3.08,0,0,0,1.07-2.21,4.49,4.49,0,0,0-1.6-3q-3.69-3.67-7.37-7.37l-3.47-3.48c-2.25-2.25-2.24-3.16,0-5.44l1.1-1.11c2.24-2.25,4.55-4.57,6.85-6.8,1.59-1.55,1.85-3.2.83-5.36-2-4.33-3.72-8.33-5.13-12.24-.84-2.34-2.18-3.35-4.45-3.35h-.11c-3.91,0-7.83,0-11.49,0-2.71,0-3.26-.56-3.27-3.18,0-5.21,0-10.41,0-15.62,0-2.72.51-3.24,3.18-3.26l1.83,0c3,0,6.07-.07,9.1,0,2.86.11,4.47-1,5.39-3.82a83.65,83.65,0,0,1,4.77-11.45c1.24-2.46,1-4.2-1-6-2.61-2.47-5.17-5.08-7.65-7.6l-.3-.3c-1.88-1.91-1.87-2.95,0-4.87q5-5,10.08-10.07l.58-.58c2.1-2.09,3.08-2.08,5.26.08l1.38,1.37c2.09,2.08,4.26,4.23,6.33,6.39a4.38,4.38,0,0,0,5.79,1,108.87,108.87,0,0,1,12-5c2.46-.87,3.49-2.3,3.44-4.79-.08-4-.05-8,0-11.49,0-2.53.58-3.07,3.09-3.09,5.27,0,10.61,0,15.89,0,2.48,0,3.06.59,3.08,3.1,0,3.85,0,7.81,0,11.77a4.2,4.2,0,0,0,3.16,4.4c4,1.46,8,3.18,12.51,5.23,2.09,1,3.67.74,5.13-.75,1.65-1.69,3.33-3.37,5-5,.91-.9,1.81-1.81,2.71-2.71,1.41-1.41,2.33-2,3.07-2h0c.72,0,1.61.58,3,1.94l4.64,4.63,5.63,5.63c1.91,1.92,1.91,3,0,4.87-2.38,2.43-5.21,5.29-8.14,8.1-1.72,1.67-2,3.33-.91,5.58a112.41,112.41,0,0,1,5,12c.88,2.54,2.41,3.59,5,3.54,3.89-.09,7.81,0,11.48,0,2.3,0,2.9.65,2.92,3,0,4.75,0,10,0,15.89,0,2.62-.57,3.16-3.28,3.18-3.66,0-7.58,0-11.49,0h-.11c-2.27,0-3.61,1-4.45,3.36-1.4,3.88-3.08,7.89-5.13,12.24-1,2.15-.76,3.8.84,5.35,2.6,2.52,5.13,5.07,8.14,8.1,2,2,2,3,0,5.07-3.61,3.62-7.21,7.25-10.85,10.84a4.73,4.73,0,0,0-1.79,3.2,3.55,3.55,0,0,0,3.21,3.17c1.42,0,2.59-1.18,3.27-1.86,1.56-1.58,3.13-3.14,4.69-4.7,2.12-2.12,4.24-4.23,6.34-6.37,4.28-4.36,4.28-9.35,0-13.71-1.78-1.81-3.63-3.56-5.43-5.25l-1.93-1.83.57-1.21c.58-1.23,1.07-2.29,1.54-3.39l.43-1a25.6,25.6,0,0,0,1.57-4.24c.25-1.06.58-1.28,1.89-1.25,3.25.08,6.54,0,9.62,0a8.71,8.71,0,0,0,8.94-9C155.8,80.26,155.8,74.61,155.74,69.21Z"/><path d="M119.61,138.92c0-3.83,0-7.67,0-11.5a26.36,26.36,0,0,0-22.48-25.59c-2.89-.41-4.52.55-5.47,3.22-1.5,4.22-3.09,8.4-4.77,12.83l-1.22,3.25c-1-3.67-1.39-6.72,1-9.75A21.26,21.26,0,0,0,89,107.24l.26-.55a3.78,3.78,0,0,0,0-3.65,3.28,3.28,0,0,0-2.86-1.47c-5.49-.13-11.22-.14-17,0a3.4,3.4,0,0,0-3,1.48,3.75,3.75,0,0,0,0,3.58l.39.83a24,24,0,0,0,2.59,4.6c2.21,2.85,1.53,5.59.65,9l-1.07-2.83c-1.74-4.65-3.39-9-5-13.4-.63-1.69-1.66-3.39-4.42-3.17-12.24,1-23.18,12.45-23.4,24.52-.09,5-.08,10-.07,14.91,0,3.53,0,7.05,0,10.57a4.08,4.08,0,0,0,1,3.06,4.24,4.24,0,0,0,3.17,1h0c27.61,0,52.15,0,75.05,0h0a4.33,4.33,0,0,0,3.24-1,4.24,4.24,0,0,0,1-3.22C119.6,147.32,119.6,143.05,119.61,138.92ZM73.75,149H42.44c.08-2.5.1-5,.13-7.45a144.06,144.06,0,0,1,1-18.65c1.18-8.17,7.95-12.12,13.43-14,1.18-.41,1.46-.29,1.85.76,3.52,9.42,7.15,19,10.66,28.21Zm1.69-20.87c.14-.66.29-1.32.4-2,.24-1.37.52-2.74.8-4.11.39-1.9.79-3.86,1.07-5.81a7.42,7.42,0,0,0-.7-3.81,39.28,39.28,0,0,0-1.91-3.68l-.29-.52h5.82c-3.51,5.23-2.28,10.74-1.09,16.08.13.58.25,1.15.38,1.73,1.27,6,.72,10.31-2.06,15.36l-.6-1.41a32.07,32.07,0,0,1-2.32-6.64A13.65,13.65,0,0,1,75.44,128.11Zm37.61,14.74c0,2,0,4.1,0,6.18H82l1.15-3c1.17-3,2.31-6,3.44-9L88.52,132c2.69-7.11,5.48-14.46,8.14-21.72.57-1.58,1-1.76,2.54-1.22A19.79,19.79,0,0,1,113,127.49C113.09,132.58,113.07,137.57,113.05,142.85Z"/><path d="M82,36.36A41.58,41.58,0,0,0,37.51,88.2a48,48,0,0,0,4.67,10.55c.66,1.21,1.31,2.42,1.92,3.64a3.42,3.42,0,0,0,2.2,1.87,3.08,3.08,0,0,0,.68.08,3.57,3.57,0,0,0,2.1-.75,3.07,3.07,0,0,0,1.3-2,3.83,3.83,0,0,0-.93-2.86c-.24-.33-.48-.65-.7-1-7.65-12-8.3-24.16-1.94-36.24S63.76,43.13,78.38,42.62l1.81.19c1.5.15,3.21.32,4.86.6C100,46,112.56,60.57,113,75.9c.28,8.71-1.88,16.11-6.59,22.63a4.18,4.18,0,0,0-1,3.24,3,3,0,0,0,1.51,2c2.77,1.7,4.51-.9,5.16-1.88,8.83-13.25,10.1-27.08,3.78-41.1C109.4,46.39,97.67,38,82,36.36Z"/><path d="M77.77,101.27H78A23.22,23.22,0,0,0,100.93,78a23,23,0,0,0-23-22.72h-.12a23,23,0,0,0,0,46Zm.09-6.5A16.18,16.18,0,0,1,66.35,90a16.6,16.6,0,0,1,0-23.59,16.11,16.11,0,0,1,11.39-4.72H78a16.55,16.55,0,0,1,0,33.09Z"/></svg>