<svg xmlns="http://www.w3.org/2000/svg" viewBox="0 0 97.88 97.92"><path d="M96.68,2.75A7,7,0,0,0,90.93,0h0l-.7.14c-.45.11-1.11.29-1.75.5L45.31,15,31,19.78,5.31,28.32A7.14,7.14,0,0,0,.55,32.26a6.22,6.22,0,0,0,0,5.19,7.83,7.83,0,0,0,5.13,3.91l9.72,2.78Q30,48.29,44.49,52.41c.77.22.88.38,1,1,.32,1.4.74,2.78,1.14,4.12.21.66.41,1.33.6,2Q51.95,76,56.62,92.42a7,7,0,0,0,3.81,4.89,6.84,6.84,0,0,0,2.75.61,6,6,0,0,0,2.41-.5,7.74,7.74,0,0,0,4-4.83Q77.87,67.81,86.13,43l5-14.9q3.24-9.69,6.43-19.39A6.61,6.61,0,0,0,96.68,2.75ZM53.29,50.33c10.77-10.86,21.77-21.85,32.4-32.48l.67-.66L63.24,86.54l-.47-1.65q-1.68-5.82-3.34-11.65l-1-3.39c-1.73-6-3.52-12.31-5.21-18.47A2.43,2.43,0,0,1,53.29,50.33ZM80.76,11.58l-6,6C66,26.3,57,35.34,48.12,44.27c-.61.62-.9.68-1.84.41Q33,40.84,19.72,37.08l-8.36-2.37Z"/></svg>