<svg xmlns="http://www.w3.org/2000/svg" viewBox="0 0 127.28 133.99"><defs><style>.a{fill:#0e0f0f;}</style></defs><path class="a" d="M124.58,46.05c-3.48-2-3.65-4.47-3.64-8.67,0-2.2.25-2.71,1.65-3.45,4.29-2.24,5.81-6.74,3.71-10.95a59.09,59.09,0,0,0-3.7-6.38c-2.06-3.1-6.23-5.2-9.37-3.2s-5.12.87-8.17-.82l-.71-.39c-1.91-1-2.41-1.59-2.35-3.47a8.07,8.07,0,0,0-2.16-5.94A9,9,0,0,0,93.38.11c-.53,0-1,0-1.58,0a21.08,21.08,0,0,0-4.75.15A13.26,13.26,0,0,0,81.48,2.6c-2.08,1.62-3,4.17-2.68,7.59.06.71,0,.92-.92,1.32a26.79,26.79,0,0,0-5.51,3.17c-.62.46-.81.47-1.56,0C67.71,12.93,65.24,12.39,63,13s-4.08,2.35-5.84,5.48c-.66,1.18-.82,1.25-2.1.84A31.39,31.39,0,0,0,19.39,32.14a31,31,0,0,0,3,37.52,48.62,48.62,0,0,0,4.9,4.54l.53.45-.29.12C11.31,81.52,2.18,93.53.42,110.46A119.9,119.9,0,0,0,0,123.56c0,1.65,0,3.3,0,5a5.62,5.62,0,0,0,1.25,4.16A5.74,5.74,0,0,0,5.46,134H85.89c3.75,0,5.36-1.58,5.38-5.27,0-1.22,0-2.44,0-3.66.05-3.71.11-7.55-.09-11.34-1-18.3-10-31.31-26.93-38.68l-.64-.27.2-.16a46.66,46.66,0,0,0,4.61-4.09,49.22,49.22,0,0,0,3.9-4.92l.85-1.16.28.17a15.59,15.59,0,0,0,3.69,1.93c1.37.44,1.66.93,1.63,2.75-.09,5.1,3.14,8.6,8.23,8.92a51.19,51.19,0,0,0,7.42-.09c3.79-.31,7.55-3,7.29-7-.23-3.41,1.31-4.65,4.63-6a4.35,4.35,0,0,0,1.44-.92c.86-.86,1.48-1.06,3.12-.07,4.65,2.8,9.34,1.55,12.25-3.26l.32-.52c.85-1.42,1.74-2.88,2.54-4.37C127.9,52.59,127.85,47.93,124.58,46.05ZM114.64,56.6c-3.89-3.11-7.54-2.94-11.14.52a15,15,0,0,1-5,2.62l-1.12.44A4.64,4.64,0,0,0,94,65a2.74,2.74,0,0,1,0,.39c-.09.58-.14,1.29-.19,2a17.72,17.72,0,0,1-.22,2.08,17.91,17.91,0,0,1-5.62.24l-.4,0a2.79,2.79,0,0,1-.33-.52c.87-5.36-1.29-8.6-7-10.49-3.8-1.25-3.8-1.25-3.44-5.95v-.23C77,51.3,77,50.12,77,49a16.58,16.58,0,0,0,13.36,6.69h0a16.47,16.47,0,0,0,16.42-16.57A16.66,16.66,0,0,0,90.12,22.63h-.07a16.13,16.13,0,0,0-11.4,4.83A17.05,17.05,0,0,0,74,35.88a32.76,32.76,0,0,0-9.79-11.83l-.52-.38A9.44,9.44,0,0,1,65,21.29a13.89,13.89,0,0,1,3.27,1.56c3.61,2,4.3,2,7.42-.24l.45-.32a37.06,37.06,0,0,1,7.21-4c1.79-.75,3.84-2,3.83-5.43,0-.72,0-1.35,0-1.9a15,15,0,0,1,0-2.39,16,16,0,0,1,2.67-.09h1.76a11.71,11.71,0,0,1,2.06.09,12.85,12.85,0,0,1,.09,2v.79c0,.66,0,1.32,0,2-.05,2.79,1.72,4,3.27,4.8a77.5,77.5,0,0,1,8.68,4.9,5.11,5.11,0,0,0,5.94.34c.81-.46,1.49-.86,2.07-1.21.87-.52,1.78-1.06,1.94-1.11a14.14,14.14,0,0,1,1.85,2.75l.91,1.54c.58.95.48,1.3.47,1.34s-.32.36-.93.58c-4.67,1.67-6.36,4.91-5.17,9.91a15.83,15.83,0,0,1-.2,5.74l-.13.85c-.24,1.7-.23,4.12,2.62,5.5.47.23.91.49,1.36.76s1.13.65,1.71.93.75.47.79.61,0,.54-.4,1.14l-.34.56c-.63,1-1.28,2-1.83,3.16-.24.47-.44.64-.51.66s-.25.06-.88-.33A2.47,2.47,0,0,0,114.64,56.6ZM84.43,45.05a8.58,8.58,0,0,1-.06-11.8A8,8,0,0,1,90.09,31h0a8.18,8.18,0,0,1,8.3,8.32,8.13,8.13,0,0,1-8.23,8.16A7.76,7.76,0,0,1,84.43,45.05ZM9.61,105.15A33.81,33.81,0,0,1,42.19,80.39h2a56.08,56.08,0,0,1,11.48.75c15.72,3.28,26.65,16.45,27.18,32.78.09,2.87.07,5.72,0,8.74,0,.94,0,1.89,0,2.85H8.34v-.25c0-1.21,0-2.41,0-3.61q0-1.48,0-3C8.34,114,8.33,109.55,9.61,105.15ZM45.28,72h0a23,23,0,0,1-22.77-23A23.15,23.15,0,0,1,45.77,26.19h0a22.48,22.48,0,0,1,16.07,6.88A23,23,0,0,1,68.6,49.42a23.86,23.86,0,0,1-7.28,16.49A21.92,21.92,0,0,1,45.28,72Z"/></svg>