<svg xmlns="http://www.w3.org/2000/svg" viewBox="0 0 140.05 150.06"><path d="M131.11,71.27c-1.49-.7-3.7.78-4.33,1.85a6.21,6.21,0,0,0-.38,4c2,15.19-1.34,29.05-10,41.2a83.37,83.37,0,0,1-6.26,7.43l-1.6,1.76C105,113.8,97.08,104.46,84.29,99c5.85-5.78,7.28-11.74,7.4-15.86a21.79,21.79,0,1,0-43.57,0c.13,4.11,1.56,10,7.4,15.82-12.77,5.42-20.74,14.78-24.27,28.52-.63-.73-1.25-1.43-1.87-2.13a90.46,90.46,0,0,1-6.75-8.31c-8.18-12-11.25-25.51-9.14-40.29.2-1.39.3-3.15-.73-4.43a3.86,3.86,0,0,0-2.84-1.35c-3.7-.27-4.14,3.15-4.36,4.8-1.81,13.25,0,25.66,5.42,36.89,9.28,19.31,24.81,31.48,46.16,36.18l.36.08a10.59,10.59,0,0,0,2.3.34,3.73,3.73,0,0,0,2.12-.59A3.9,3.9,0,0,0,63.49,146c.56-3.49-2.18-4.21-3.65-4.59-.34-.09-.68-.17-1-.29-5.33-1.91-10.71-4-15.92-6l-2.59-1c-1.4-.54-2-1.27-1.57-3.74A31.6,31.6,0,0,1,71,104.4c15.16.48,28.42,12.34,30.19,27,.17,1.43-.19,1.85-1.06,2.23q-2.44,1.06-4.87,2.16c-3.14,1.41-6.38,2.86-9.61,4.16a18.46,18.46,0,0,1-3.1.82,20.17,20.17,0,0,0-3.56.95A4.63,4.63,0,0,0,76.44,146c.18,1.17,1.25,2.14,3.39,3a4.36,4.36,0,0,0,2.77,0l.35-.08c16.23-3.52,29.32-11.77,38.91-24.52C132.63,110,136.75,93.41,134.1,75A5.58,5.58,0,0,0,131.11,71.27ZM83.83,82.64A14.1,14.1,0,0,1,69.89,96.43h0A14.09,14.09,0,0,1,56,82.54a14.07,14.07,0,0,1,4.27-9.79,13.84,13.84,0,0,1,9.62-4.11H70A14.32,14.32,0,0,1,83.83,82.64Z"/><path d="M47,30.23c1.64,1.57,3.34,3.21,4.93,4.87a3,3,0,0,1,.63,2c-.46,3.47-1.05,6.9-1.67,10.53-.23,1.32-.45,2.66-.68,4l0,.19a3.62,3.62,0,0,0,3.69,4,6.19,6.19,0,0,0,2.71-.71c1.75-.87,3.49-1.79,5.17-2.68C64,51.34,66.36,50.11,68.68,49a3.48,3.48,0,0,1,2.42,0c2,.94,4,2,5.88,3s3.93,2.09,6,3A5.74,5.74,0,0,0,88,55c1.53-1,1.52-3.73,1.38-4.71-.29-2.14-.67-4.29-1-6.38s-.78-4.48-1.07-6.72a3,3,0,0,1,.61-2.05c1.59-1.67,3.3-3.31,5-4.89,1.49-1.45,3-2.94,4.52-4.46,0,0,2.51-2.62,1.71-4.62a5.72,5.72,0,0,0-4-2.93c-3.39-.64-6.85-1.1-10.2-1.54l-2.16-.29c-1.76-.24-2.5-.73-3.06-2-1.81-4.22-3.9-8.18-5.72-11.5C73.23,1.75,71.64,0,69.93,0h0C68.27,0,66.63,1.66,66,2.83c-2.08,3.85-4,7.8-5.81,11.74a2.89,2.89,0,0,1-2.66,1.8l-2.43.32c-3.35.44-6.81.9-10.21,1.53a5.84,5.84,0,0,0-4.07,2.88c-.69,1.67,1,3.92,1.68,4.64C44,27.28,45.53,28.78,47,30.23Zm32,7A55,55,0,0,1,80.2,43.9c0,.31.09.62.13.94l-.28-.14a28.36,28.36,0,0,1-4.36-2.38,9.85,9.85,0,0,0-5.73-2,10.22,10.22,0,0,0-5.91,2.11,29.34,29.34,0,0,1-4.36,2.35l-.18.09c0-.3.08-.6.13-.89.35-2.49.68-4.84,1.2-7.08a6,6,0,0,0-1.94-6.19c-1.71-1.67-3.35-3.41-5.09-5.26l-.46-.48.32-.05c2.27-.36,4.41-.71,6.59-.93a7,7,0,0,0,6.42-4.6c.83-2,1.85-4,2.93-6.13l.3-.59c.08.14.15.29.22.43,1,2,2,3.91,2.78,5.83A7.47,7.47,0,0,0,80,24a60.24,60.24,0,0,1,6.21.85l.41.07-.43.45c-1.65,1.74-3.21,3.39-4.85,4.93S78.15,33.83,79.05,37.24Z"/><path d="M139.89,37.61a4.29,4.29,0,0,0-3.56-2.68c-1.65-.3-3.32-.55-4.94-.78-1.85-.27-3.76-.55-5.61-.92a2.79,2.79,0,0,1-1.55-1.07c-.78-1.4-1.51-2.89-2.21-4.34s-1.53-3.13-2.41-4.66c-.66-1.16-2.32-2.76-4-2.74s-3.23,1.71-3.86,2.83c-.82,1.44-1.55,2.93-2.26,4.38s-1.43,2.95-2.24,4.35a3.16,3.16,0,0,1-1.75,1.26c-1.61.34-3.3.59-4.93.83s-3.36.49-5,.85a5.52,5.52,0,0,0-3.8,2.76c-.69,1.65.79,3.77,1.42,4.45,1,1.11,2.14,2.16,3.2,3.18,1.26,1.21,2.57,2.46,3.72,3.77a4.08,4.08,0,0,1,.83,2.66c-.25,2.44-.69,4.84-1.12,7.15-.16.88-.32,1.72-.46,2.54l0,.16c-.15,2.67.83,3.9,1.68,4.45a3.45,3.45,0,0,0,1.95.55,6.73,6.73,0,0,0,3-.85c1.13-.57,2.24-1.28,3.31-2,2.25-1.43,4.38-2.78,6.34-2.79h0c2,0,4.12,1.34,6.39,2.77,1,.66,2.14,1.34,3.24,1.91a2.08,2.08,0,0,0,1,.42,6.75,6.75,0,0,1,.86.11,4.3,4.3,0,0,0,3.2-.32c1.31-.9,1.72-3,1.59-4.27a75.63,75.63,0,0,0-1.58-9.86,2.52,2.52,0,0,1,1-2.91c2.73-2.51,5.06-4.77,7.13-6.94A4.33,4.33,0,0,0,139.89,37.61Zm-15,6.57c-2.62,2.08-3.4,4.74-2.4,8.16a20.37,20.37,0,0,1,.55,3.06,12.41,12.41,0,0,0-14-.72c1.08-5.62-.55-9.94-4.93-13.08,1.56-.28,3-.54,4.56-.68a5.7,5.7,0,0,0,5.07-3.73c.6-1.36,1.26-2.67,2-4.18a23.81,23.81,0,0,1,1.6,3.33,6.8,6.8,0,0,0,6.36,4.77c1.26.11,2.52.3,4,.52A28.57,28.57,0,0,1,124.91,44.18Z"/><path d="M9.38,51.78c-.56,2.38-.92,4.78-1.26,7.1-.14.94-.28,1.87-.43,2.79l0,.11a4.48,4.48,0,0,0,1.65,4.28,4.3,4.3,0,0,0,4.42,0c3.34-1.63,6.3-3.19,9-4.75a2.12,2.12,0,0,1,2.54,0c3.22,1.87,6.53,3.53,9,4.76a5.82,5.82,0,0,0,2.55.66,3.49,3.49,0,0,0,2-.62c.69-.49,1.79-1.72,1.44-4.4-.37-2.9-.85-6.34-1.62-9.81a2.6,2.6,0,0,1,1-3,83.87,83.87,0,0,0,6.53-6.39c.39-.44,2.35-2.72,1.8-4.69-.48-1.74-2.91-2.7-4.13-3-1.72-.36-3.46-.62-5.15-.86-1.51-.22-3.07-.45-4.56-.75a2.86,2.86,0,0,1-1.6-1c-.8-1.43-1.54-2.94-2.26-4.41s-1.5-3.08-2.36-4.59c-.61-1.08-2.21-2.79-3.9-2.8h0c-1.7,0-3.3,1.69-3.91,2.77-.86,1.52-1.63,3.1-2.37,4.63s-1.45,3-2.24,4.37A2.75,2.75,0,0,1,14,33.24c-1.58.32-3.22.56-4.81.8s-3.45.5-5.18.86C2.69,35.17.58,36.16.11,37.76s.82,3.68,1.59,4.52C4,44.83,6.51,47.14,8.41,48.86A2.52,2.52,0,0,1,9.38,51.78Zm21.3-.13c.24,1.12.43,2.23.58,3.38A13.7,13.7,0,0,0,24,52.79a13.25,13.25,0,0,0-6.54,1.82c1-5.19-.63-9.44-4.82-12.85,5.72-.21,9.57-3,11.45-8.27,2,5.31,6,8.13,11.79,8.29-1,1-2,1.93-3,2.79C30.05,46.87,30.27,49.71,30.68,51.65Z"/><path d="M72.86,143.88c-1.06-.8-2-1.49-3.14-1.44-1.46.05-2.75,1.65-2.89,1.83a2.62,2.62,0,0,0-.7,2.12c.31,1.51,2,3.48,3.63,3.66H70c1.08,0,2-.76,2.94-1.63.42-.37.9-.79,1.42-1.18L76,146l-1.73-1.11C73.77,144.57,73.31,144.22,72.86,143.88Z"/></svg>