<svg xmlns="http://www.w3.org/2000/svg" viewBox="0 0 46.09 36.75"><defs><style>.a{fill:#fff;}</style></defs><path class="a" d="M24.84,3.78c0,.88,0,1.66,0,2.45a1.8,1.8,0,1,1-3.58,0c0-.78,0-1.57,0-2.35-5,0-11.78,3.75-14.7,9.12l2,1c1.32.64,1.8,1.63,1.3,2.65s-1.55,1.24-2.9.59l-2-1A19.54,19.54,0,0,0,6.07,32.59c.71-.34,1.36-.66,2-1a1.82,1.82,0,1,1,1.57,3.25c-1.07.54-2.15,1.06-3.23,1.57a1.83,1.83,0,0,1-2.71-.81A23.06,23.06,0,0,1,18.49.49,22.27,22.27,0,0,1,32.33,2,1.76,1.76,0,0,1,33.5,4.14c-.33,1.17-1.34,1.58-2.61,1.17-1.57-.51-3.17-1-4.77-1.41A7,7,0,0,0,24.84,3.78Z"/><path class="a" d="M17.67,22.63a4.7,4.7,0,0,1,2-3.66c4.31-3.12,8.65-6.2,13-9.28,1.33-.95,2.69-1.87,4-2.79A1.8,1.8,0,0,1,39.18,7a1.83,1.83,0,0,1,0,2.47q-5.67,8.11-11.35,16.22a5.94,5.94,0,0,1-3.56,2.7C20.87,29.19,17.65,26.63,17.67,22.63Zm12.94-6.9-.2-.19c-2.82,2.05-5.64,4.09-8.43,6.17a1.74,1.74,0,0,0-.22,2.66,1.7,1.7,0,0,0,2.7-.2C26.54,21.38,28.57,18.55,30.61,15.73Z"/><path class="a" d="M40,32.6a18.74,18.74,0,0,0,2.18-6,19.38,19.38,0,0,0-1.31-11.27,1.84,1.84,0,0,1,.82-2.58,1.8,1.8,0,0,1,2.49,1.16,22.81,22.81,0,0,1-1.87,21.86,1.77,1.77,0,0,1-2.53.74c-1.16-.53-2.32-1.08-3.46-1.66a1.81,1.81,0,0,1-1-2.49,1.83,1.83,0,0,1,2.59-.74C38.55,31.92,39.23,32.25,40,32.6Z"/></svg>