<svg xmlns="http://www.w3.org/2000/svg" viewBox="0 0 75.08 85.4"><defs><style>.a{fill:#fff;}</style></defs><path class="a" d="M23.23,56.29c-2.92-4.56-5.7-9-8.59-13.41A27.67,27.67,0,0,1,32.4.51c17.08-3.38,33.31,10.57,32.6,28A28.11,28.11,0,0,1,60.34,43c-2.85,4.35-5.62,8.77-8.44,13.19a95.63,95.63,0,0,1,9.74,2.55A40.92,40.92,0,0,1,71,63.33c5.52,3.92,5.4,9.88,0,14-4.46,3.46-9.72,5-15.14,6.11-14.61,2.85-29.15,2.77-43.42-1.86a30.36,30.36,0,0,1-8.64-4.48c-5.19-3.88-5-9.72,0-13.76,3.83-3,8.38-4.48,13-5.69C18.92,57.16,21,56.78,23.23,56.29Zm14.28,13c.33-.44.51-.65.66-.88,6.18-9.69,12.39-19.35,18.54-29.06a21.73,21.73,0,0,0,3.1-14.69A22.64,22.64,0,0,0,43.1,5.73a22.35,22.35,0,0,0-23.82,8.73,22.7,22.7,0,0,0-.73,25.24L36.4,67.62C36.72,68.13,37.06,68.62,37.51,69.3Zm0,11c8.49-.15,17-.83,25.06-4.07a26.49,26.49,0,0,0,6.32-3.85c1.54-1.22,1.49-2.86,0-4.18a20,20,0,0,0-4.62-3.18c-4.47-2.19-9.31-3.15-14.21-3.89a1.69,1.69,0,0,0-2,.91c-2.61,4.19-5.29,8.34-7.95,12.5-1.72,2.68-3.57,2.67-5.3,0-2.66-4.16-5.29-8.34-8-12.46a2.09,2.09,0,0,0-1.62-.89c-3.43.63-6.87,1.27-10.23,2.19a19.71,19.71,0,0,0-8.51,4.36c-1.93,1.81-2,3.56.1,5.18a24.61,24.61,0,0,0,5.87,3.36C20.49,79.48,28.94,80.19,37.55,80.35Z"/><path class="a" d="M50,27.86A12.48,12.48,0,1,1,37.72,15.18,12.48,12.48,0,0,1,50,27.86ZM37.47,20.22A7.45,7.45,0,1,0,45,27.52,7.41,7.41,0,0,0,37.47,20.22Z"/></svg>